<svg xmlns="http://www.w3.org/2000/svg" xmlns:xlink="http://www.w3.org/1999/xlink" viewBox="828 627.663 400 150.669">
  <defs>
    <style>
      .cls-1 {
        clip-path: url(#clip-path);
      }

      .cls-2 {
        fill: #fff;
      }
    </style>
    <clipPath id="clip-path">
      <rect id="Rectangle_5" data-name="Rectangle 5" width="400" height="150.669"/>
    </clipPath>
  </defs>
  <g id="Group_5" data-name="Group 5" transform="translate(-565 20.756)">
    <g id="Group_3" data-name="Group 3" transform="translate(1393 606.906)">
      <g id="Group_1" data-name="Group 1" class="cls-1" transform="translate(0 0)">
        <path id="Path_10317" data-name="Path 10317" class="cls-2" d="M44.261-44.261a3.541,3.541,0,0,1,.384,1.663c.128,0,.128.128.128.384a3.321,3.321,0,0,1-.512,1.279,2.8,2.8,0,0,1-1.151,1.279,9.28,9.28,0,0,1-1.535.64,56.531,56.531,0,0,1-6.14,1.919,49.74,49.74,0,0,1-6.524,1.023,7.294,7.294,0,0,0-1.663.128,2.054,2.054,0,0,0-1.407.64c-.256.384-.64.768-.9,1.151a9.281,9.281,0,0,0-.64,1.535,53.768,53.768,0,0,0-2.814,12.28,62.515,62.515,0,0,0,.256,12.92A17.462,17.462,0,0,0,32.62-6.14a16.544,16.544,0,0,0,9.338-5.5,1.5,1.5,0,0,1,1.535,1.151,3.55,3.55,0,0,1,0,2.3A2.762,2.762,0,0,1,42.342-6.4c-.64.384-1.279.768-1.791,1.151-1.663.9-3.454,1.919-5.373,2.942A22.525,22.525,0,0,1,29.55-.384,15.878,15.878,0,0,1,26.1,0a22.042,22.042,0,0,1-5.629-.768A24.52,24.52,0,0,1,12.28-5.245,28.862,28.862,0,0,1,6.4-12.408a27.627,27.627,0,0,1-3.07-8.571,33.825,33.825,0,0,1-.768-7.036c0-1.023.128-1.919.128-2.942a39.334,39.334,0,0,1,2.175-9.082A25.163,25.163,0,0,1,14.967-52.32a19.675,19.675,0,0,1,10.617-2.814,26.757,26.757,0,0,1,6.268.64,10.833,10.833,0,0,1,2.175.512,11.257,11.257,0,0,1,1.919.64,13.01,13.01,0,0,1,5.373,3.454A11.332,11.332,0,0,1,44.261-44.261Zm-5.245-2.814a8.4,8.4,0,0,0-3.2-1.791,10.916,10.916,0,0,0-3.966-.768c-1.023,0-1.791,0-2.047.256-.128,0-.384.512-.64,1.279a6.421,6.421,0,0,0-.256,1.535,2.945,2.945,0,0,1-.384,1.151c-.128.512-.384,1.407-.9,2.942a8.131,8.131,0,0,0-.384,1.919c0,.128.128.256.128.384H29.55a48.214,48.214,0,0,0,6.012-1.919,25.83,25.83,0,0,0,4.605-2.175,2.555,2.555,0,0,0,.384-1.023c0-.256,0-.384-.128-.384A3.569,3.569,0,0,0,39.016-47.075Zm8.829,15.606a27.391,27.391,0,0,1,9.082-16.374A19.139,19.139,0,0,1,74.709-52.32l1.535.384a6.228,6.228,0,0,0,1.535-.128c.512-.256.9-.512,1.023-.9l.768-1.535a7.5,7.5,0,0,1,3.966-1.151,8.033,8.033,0,0,1,2.431.384A30.15,30.15,0,0,1,92.49-52.7a21.874,21.874,0,0,1,2.942,1.663,5.034,5.034,0,0,1,2.3,2.558,6.769,6.769,0,0,1,1.151,3.838,19.364,19.364,0,0,1,.256,3.838c-.128,5.884-.256,11.769-.384,17.781,0,5.884-.128,11.769-.384,17.781v1.791a3.012,3.012,0,0,1-.64,1.663A3.615,3.615,0,0,1,95.56-.128,7.487,7.487,0,0,1,93.9.128c-.256,0-.64-.128-1.023-.128A12.477,12.477,0,0,1,85.2-3.966a19.428,19.428,0,0,1-4.605-7.547,57.97,57.97,0,0,1-4.221,6.78A11.043,11.043,0,0,1,70.1-.384a11.458,11.458,0,0,1-8.315-1.279,23.915,23.915,0,0,1-6.652-5.629,55.279,55.279,0,0,1-3.966-6.14,28.211,28.211,0,0,1-2.3-6.524,38,38,0,0,1-1.023-5.5c0-1.023-.128-1.919-.128-2.942S47.845-30.445,47.845-31.469ZM67.29-8.7a1.973,1.973,0,0,1,.9.9,1.625,1.625,0,0,0,.9.512c1.023,0,2.558-1.023,4.349-3.07a24.663,24.663,0,0,0,4.349-6.4,7.025,7.025,0,0,0,.9-3.07v-.384c0-1.151-.128-3.71-.512-7.675-.128-2.558-.256-4.989-.256-7.292,0-2.558-.128-4.221-.128-4.989.384-3.07.512-4.861.256-5.5-.128-.768-1.023-1.279-2.686-1.791a8.251,8.251,0,0,0-2.431-.9H72.79a2.371,2.371,0,0,0-1.279.512,9.446,9.446,0,0,0-3.07,4.477c-.384,1.663-1.023,4.093-1.791,7.419a23.4,23.4,0,0,0-.512,4.221c-.128,1.791-.256,3.71-.384,5.884v2.047c0,2.558.128,5.245.256,7.8A34.638,34.638,0,0,0,67.29-8.7ZM126.9-13.56a9.853,9.853,0,0,0-.9-5.5,17.4,17.4,0,0,0-3.07-4.861,27.2,27.2,0,0,0-3.838-3.838c-1.279-1.279-2.686-2.558-3.966-3.966a21.348,21.348,0,0,1-3.07-4.733,12.954,12.954,0,0,1-1.151-5.245,8.248,8.248,0,0,1,.384-2.558c.384-.9.768-1.663,1.023-2.431a14.709,14.709,0,0,1,6.268-6.524,11.729,11.729,0,0,1,6.268-1.791,13.9,13.9,0,0,1,2.3.128,10.864,10.864,0,0,1,6.908,5.5,8.413,8.413,0,0,1,.64,8.443c0,.128,0,.256-.256.512l-.512.512a1.723,1.723,0,0,1-2.047.128,7.452,7.452,0,0,1-1.407-1.919,5.017,5.017,0,0,1-.512-2.3,6.352,6.352,0,0,0-.256-2.3,4.04,4.04,0,0,0-2.175-2.814,4.332,4.332,0,0,0-3.582-.384,17.218,17.218,0,0,0,1.151,7.164,39.04,39.04,0,0,0,3.582,6.4,43.154,43.154,0,0,0,4.349,5.5,51.366,51.366,0,0,1,4.861,5.5,29.554,29.554,0,0,1,4.605,7.292,9.539,9.539,0,0,1,1.279,4.861,9.8,9.8,0,0,1-.512,3.2,11.343,11.343,0,0,1-1.791,3.2c-.768.9-1.791,1.791-2.814,2.814a23.984,23.984,0,0,1-10.49,4.861,21.173,21.173,0,0,1-4.093.384A22.832,22.832,0,0,1,116.927.384a21.789,21.789,0,0,1-8.955-7.036,19.049,19.049,0,0,1-3.582-10.873c0-.512.128-1.023.128-1.535a3,3,0,0,1,.64-1.279,2.112,2.112,0,0,1,1.919-.64,3.9,3.9,0,0,1,2.047,1.023,4.337,4.337,0,0,1,1.151,1.791c.256.64.384,1.407.64,2.175a25.614,25.614,0,0,1,.512,3.07,14,14,0,0,0,1.151,2.942,6.58,6.58,0,0,0,3.838,2.942,6.812,6.812,0,0,0,4.733-.512,9.144,9.144,0,0,0,3.71-2.3A7.139,7.139,0,0,0,126.9-13.56Zm36.46,43.237a18.364,18.364,0,0,1-9.21-4.477c-2.3-2.431-3.838-3.966-4.349-4.605a5.592,5.592,0,0,0-.768-1.279,2.169,2.169,0,0,1,0-1.279c.384-1.279.768-1.919,1.279-2.175a1.615,1.615,0,0,1,1.791.256c.512.128,1.151.256,1.919.512a13.977,13.977,0,0,1,2.175.64,7.7,7.7,0,0,0,3.966-.512,11.305,11.305,0,0,0,3.582-2.942,52.972,52.972,0,0,0,4.605-6.908c1.791-3.07,2.814-5.245,2.942-6.268q.192-.768.384-1.919a28.888,28.888,0,0,0-3.838-.64,29.19,29.19,0,0,1-3.71-1.279,22.553,22.553,0,0,1-3.454-2.558c-.9-1.023-1.791-1.919-2.814-2.942a22.05,22.05,0,0,1-2.047-2.3,22.873,22.873,0,0,0-1.663-1.791,10.886,10.886,0,0,0-1.279-1.663A12.18,12.18,0,0,1,150.7-18.8c-.512-2.3-1.151-4.733-1.791-7.547-.768-4.221-1.279-8.443-1.791-12.536-.384-4.221-.64-6.908-.768-7.931a14.773,14.773,0,0,1,.256-2.047,16.31,16.31,0,0,0,.128-2.431,11.8,11.8,0,0,1,1.279-4.221,2.827,2.827,0,0,1,2.558-1.407,16.8,16.8,0,0,1,5.117,1.279,17.867,17.867,0,0,1,5.373,2.431,17.431,17.431,0,0,1,4.221,3.71,13.293,13.293,0,0,1,3.326,3.838,10.442,10.442,0,0,1,.512,3.454,85.605,85.605,0,0,1,.256,9.338q0,8.059.384,11.9c.256,2.431.64,3.71,1.151,3.966.256.128.9-.128,1.919-.64A7.194,7.194,0,0,0,175.39-19.7a4.333,4.333,0,0,0,1.279-2.047,23.225,23.225,0,0,0,1.407-3.582c1.023-2.558,1.663-4.477,2.175-6.012.512-1.663,1.407-4.989,2.686-9.85a38.618,38.618,0,0,0,1.407-4.989c.384-1.535.64-2.3.9-2.431a4.416,4.416,0,0,1,.384-1.663,13.976,13.976,0,0,0,.64-2.175c.512-1.279.768-2.047.9-2.3.256-.256.64-.256,1.407-.256a5.268,5.268,0,0,1,3.07,1.663,6.762,6.762,0,0,1,2.558,3.966,18.56,18.56,0,0,1,1.535,2.814,30.146,30.146,0,0,1,1.919,3.2c.64.768,1.535,2.942,2.686,6.4a13.9,13.9,0,0,1,.64,4.989,62.532,62.532,0,0,1-1.791,13.432c-.256,1.279-.384,2.431-.512,3.582-.128,1.023-.256,1.663-.256,1.663q0,.384-.768,3.838c-.512,2.3-1.023,4.733-1.663,7.419-.384,1.791-.768,3.454-1.279,5.117a18.063,18.063,0,0,1-1.279,3.966,59.559,59.559,0,0,1-3.07,7.675A24.677,24.677,0,0,1,187.03,20.6a16.066,16.066,0,0,1-3.454,3.71,35.042,35.042,0,0,1-5.5,3.454,30.665,30.665,0,0,1-5.5,1.663C171.168,29.55,168.1,29.678,163.365,29.678Zm47.463-77.137a16.225,16.225,0,0,1,5.884-4.093A23.621,23.621,0,0,1,224-53.471a15.481,15.481,0,0,1,2.431-.128,29.523,29.523,0,0,1,4.733.384,13.222,13.222,0,0,1,6.652,2.558,7.323,7.323,0,0,1,1.919,2.047,4.015,4.015,0,0,1,.9,2.686,3.285,3.285,0,0,1-1.023,2.558,2.4,2.4,0,0,1-2.558.64,3.249,3.249,0,0,1-1.279-1.023,4.885,4.885,0,0,0-1.151-1.151,3.265,3.265,0,0,0-1.279-.9,1.36,1.36,0,0,0-1.535.128,4,4,0,0,0-.64,1.279c0,.512-.128.9-.128,1.279a69.274,69.274,0,0,1-2.3,16.374,38.7,38.7,0,0,0-.512,16.758,8.8,8.8,0,0,0,.256,1.663,6.013,6.013,0,0,0,1.151,1.535,2.512,2.512,0,0,0,1.919.64,7.723,7.723,0,0,0,2.047-.64,13.549,13.549,0,0,1,1.535-1.279,7.251,7.251,0,0,0,1.279-1.663c.9-1.279,1.791-2.431,2.686-3.71s1.791-2.431,2.686-3.71a1.227,1.227,0,0,1,1.407,1.407,3.541,3.541,0,0,1,.128,1.151,5.247,5.247,0,0,1-.128,1.407,46.062,46.062,0,0,1-2.558,4.989,15.749,15.749,0,0,1-3.582,4.221,16.2,16.2,0,0,1-4.861,2.814,12.281,12.281,0,0,1-4.221.768h-1.151a34.169,34.169,0,0,1-4.605-1.791c-1.279-.9-2.686-1.919-3.966-2.942a36.6,36.6,0,0,1-10.106-14.967,35.123,35.123,0,0,1-1.919-11.129,35.258,35.258,0,0,1,.64-6.524c.384-1.151.768-2.175,1.151-3.2a23.809,23.809,0,0,1,1.279-3.2,5.3,5.3,0,0,0,.512-1.535A14.676,14.676,0,0,1,210.828-47.459ZM264.046-1.791A9.942,9.942,0,0,1,262-2.047a5.976,5.976,0,0,0-1.791-.512A12.457,12.457,0,0,1,255.6-5.373a22.059,22.059,0,0,1-3.582-4.605,33.72,33.72,0,0,1-3.582-11,44.262,44.262,0,0,1-.384-5.5,30.393,30.393,0,0,1,.384-4.989,97.749,97.749,0,0,1,2.814-10.362,19.7,19.7,0,0,1,5.117-7.931,11.942,11.942,0,0,1,4.861-3.2c1.919-.64,3.838-1.279,5.629-1.791a12.059,12.059,0,0,1,3.838-.64,17.992,17.992,0,0,1,3.582.384,17.97,17.97,0,0,1,7.292,2.431,11.412,11.412,0,0,1,4.094,4.093,20.05,20.05,0,0,1,2.3,5.373,44.047,44.047,0,0,1,2.686,15.351c0,1.279,0,2.558-.128,3.966a28.093,28.093,0,0,1-7.547,17.525,11.467,11.467,0,0,1-2.942,2.558,13.007,13.007,0,0,1-3.582,1.663,14.017,14.017,0,0,1-3.326.768c-1.023,0-2.175.128-3.326.128a23.435,23.435,0,0,1-2.686-.256ZM277.733-11a19.7,19.7,0,0,0,5.884-6.268,25.835,25.835,0,0,0,3.07-8.443,9.577,9.577,0,0,0,.256-2.686,30.957,30.957,0,0,0-1.279-8.571c-1.023-4.349-3.07-7.292-6.14-9.082a2.905,2.905,0,0,0-2.047-.768h-.384a2.814,2.814,0,0,0-1.663.512c-.256.256-.512.64-.768.9a2.571,2.571,0,0,0-.512,1.023,35.569,35.569,0,0,0-3.71,16.118v.128a36.383,36.383,0,0,0,3.582,15.734l.768,1.151a1.642,1.642,0,0,0,1.279.512c.64,0,1.023-.128,1.279-.128A.56.56,0,0,0,277.733-11Zm33.518,9.21a9.942,9.942,0,0,1-2.047-.256,5.976,5.976,0,0,0-1.791-.512,12.456,12.456,0,0,1-4.605-2.814,22.058,22.058,0,0,1-3.582-4.605,33.719,33.719,0,0,1-3.582-11,44.259,44.259,0,0,1-.384-5.5,30.391,30.391,0,0,1,.384-4.989A97.746,97.746,0,0,1,298.46-41.83a19.7,19.7,0,0,1,5.117-7.931,11.942,11.942,0,0,1,4.861-3.2c1.919-.64,3.838-1.279,5.629-1.791a12.059,12.059,0,0,1,3.838-.64,17.992,17.992,0,0,1,3.582.384,17.97,17.97,0,0,1,7.292,2.431,11.412,11.412,0,0,1,4.094,4.093,20.05,20.05,0,0,1,2.3,5.373,44.047,44.047,0,0,1,2.686,15.351c0,1.279,0,2.558-.128,3.966a28.093,28.093,0,0,1-7.547,17.525,11.467,11.467,0,0,1-2.942,2.558,13.007,13.007,0,0,1-3.582,1.663,14.017,14.017,0,0,1-3.326.768c-1.023,0-2.175.128-3.326.128a23.435,23.435,0,0,1-2.686-.256ZM324.939-11a19.7,19.7,0,0,0,5.884-6.268,25.835,25.835,0,0,0,3.07-8.443,9.577,9.577,0,0,0,.256-2.686,30.957,30.957,0,0,0-1.279-8.571c-1.023-4.349-3.07-7.292-6.14-9.082a2.905,2.905,0,0,0-2.047-.768H324.3a2.814,2.814,0,0,0-1.663.512c-.256.256-.512.64-.768.9a2.571,2.571,0,0,0-.512,1.023,35.569,35.569,0,0,0-3.71,16.118v.128a36.383,36.383,0,0,0,3.582,15.734L322-11.257a1.642,1.642,0,0,0,1.279.512c.64,0,1.023-.128,1.279-.128A.56.56,0,0,0,324.939-11Zm41.322-62.3v32.62c1.663-2.814,3.326-5.5,5.117-8.315s3.582-5.5,5.117-8.187a7.973,7.973,0,0,1,1.151-1.535,3.28,3.28,0,0,1,1.407-1.023,2.59,2.59,0,0,1,3.07,2.047,7.666,7.666,0,0,1,.256,4.477,44.373,44.373,0,0,1-2.431,7.675,45.406,45.406,0,0,1-3.838,7.419c-.128.256-.384.64-.64,1.151a2.579,2.579,0,0,0-.384,1.407,4.272,4.272,0,0,0,.384,1.919,8.154,8.154,0,0,1,1.023,1.791A58.79,58.79,0,0,1,383.53-19.7q3.838,7.675,6.14,12.664a3.754,3.754,0,0,1,.768,2.175v.512a5.022,5.022,0,0,1-.384,1.791,2.7,2.7,0,0,1-2.047.768,5.017,5.017,0,0,1-2.3-.512,5.208,5.208,0,0,1-1.791-1.535c-.384-.768-.768-1.407-1.151-2.047-1.663-3.07-3.582-7.036-5.884-12.025s-4.221-9.082-5.884-12.153c-2.3,0-3.966,1.151-4.989,3.71a33.914,33.914,0,0,0-1.663,6.908c-.128,2.047-.256,3.966-.256,6.012a49.46,49.46,0,0,1-.384,6.14c-.128.64-.256,1.407-.384,2.175a7.387,7.387,0,0,1-.768,2.175A6.766,6.766,0,0,1,358.33-.128c-.512,0-1.151.128-1.791.128a7.616,7.616,0,0,1-3.454-.768A12.845,12.845,0,0,1,347.2-5.373a30.256,30.256,0,0,1-3.326-6.78,35.517,35.517,0,0,1-.9-7.292v-1.919c0-1.919.128-3.838.128-5.756.384-8.955.768-17.909,1.151-26.736.384-8.955.768-17.781,1.023-26.48a30.036,30.036,0,0,0,0-6.78,9.283,9.283,0,0,1,1.279-5.373,3.979,3.979,0,0,1,2.047-1.535,5.975,5.975,0,0,1,2.175-.384,6.228,6.228,0,0,1,1.535.128,14.228,14.228,0,0,1,7.292,3.71,15.3,15.3,0,0,1,4.733,6.908,1.818,1.818,0,0,0,.256.768,2.839,2.839,0,0,1,.128,1.151,10.606,10.606,0,0,1,.768,4.093A31.294,31.294,0,0,0,366.261-73.3Z" transform="translate(0 109.859)"/>
      </g>
      <g id="Group_2" data-name="Group 2" class="cls-1" transform="translate(0 0)">
        <path id="Path_39" data-name="Path 39" class="cls-2" d="M528.352,242.515c-.685,4.668-6.738,5.259-8.851,4.786s-5.71-1.891-5.653-3.781c.057-1.95,3.369-3.486,4.854-3.722,1.428-.236,2.8,1.536,3.141,2.245s1.827,1.3,1.941.118a3.562,3.562,0,0,0-1.142-2.777c-.8-1.064-3.026-1-2.512-1.536l3.6-5.14c.057,0,5.539,3.6,4.625,9.808m-3.826-11.758c.514-.768.286-4.018.286-4.018a11.036,11.036,0,0,0,1.884,1.477c1.485,1.064,2.455-.532,2.056-1.182-.4-.709-2.512-2.423-3.655-3.663-1.256-.177-1.884-.177-2,.532-.4,2.186-.457,7.8-4.8,13.176-3.883,4.786-8.68,5.318-14.732,5.022s-7.823-2.009-11.991-6.263a14.548,14.548,0,0,1-3.769-11.817c.228-2.186-2.57-.886-2.57-.886s-3.826,3.368-4.854,4.372c-1.085,1,.171,2.186,1.2,1.418s1.542-.65,2.741-1.832c1.485-1.418,1.313.118,1.313.118a16.789,16.789,0,0,0,6.338,12.644c3.826,2.9,9.764,4.55,19.415,3.427a8.634,8.634,0,0,0,8.108,6.027c2.8.177,6.8.059,9.422-3.368,6.167-8.331-4.283-15.3-4.4-15.185" transform="translate(-205.897 -102.185)"/>
      </g>
    </g>
    <path id="Path_10318" data-name="Path 10318" class="cls-2" d="M-41.66-30.8h.964q3.753,0,5.168,1.333l-.144.226v.062h.369l-.082-.144h.082a7.689,7.689,0,0,1,1.251,1.7,4.008,4.008,0,0,1,1.333,3.035q.041,0,.369,2.42a.522.522,0,0,1-.308.164v.287q.369,0,.369.451v.431q0,.1-.226.226a1.807,1.807,0,0,0,.308.451q0,.062-.082.062l.082.369v1.415l-.308.287q.308.308.308.451a7.389,7.389,0,0,1-1.62,5.168.622.622,0,0,0-.226.062l.062.164a6.051,6.051,0,0,1-1.989,1.7H-36.2q0,.39-2.953,1.025a1.278,1.278,0,0,1,.226.513q-.062,0-.062.082.205,0,2.728,5.168A3.739,3.739,0,0,0-33.99-2.3q1.374,0,2.974-1.989h.062v.144q-.554,3.63-2.666,3.63a2.972,2.972,0,0,0-.656.062A3.716,3.716,0,0,1-38.05-3.1a54.774,54.774,0,0,0-2.133-5.168V-8.49h-.369q0-.144-.082-.144-.882,0-1.107,3.1,0,4.348.82,4.348.062.226.882.369a1.807,1.807,0,0,1,.308.451A31.065,31.065,0,0,1-43.28,0a.073.073,0,0,0-.082-.082l.738-1.538q-.082-1.6-.082-2.215-.267-25.942-.656-25.942l-.369-.882q.082,0,.082-.062Q-42.3-30.8-41.66-30.8Zm-.308,1.107q-.062,1.477-.062,2.215v1.846q0,2.215.369,8.06-.144,4.655-.144,6.727,0,.369.062,1.477a38.734,38.734,0,0,0,4.881-1.559q0,.144.287.144v.082l-.144.226v.062h.144q.123,0,.226-.226v-.144l-.062-.513A4.2,4.2,0,0,0-34.5-13.822a1.621,1.621,0,0,1,.677-1.538q.062,0,.062-.082V-15.5q-.431,0-.431-.226.062-1.251.062-1.928v-.369h.082l.369.082v-.082q-.513-.185-.513-1.559A58.012,58.012,0,0,0-35.159-26q-1.333-3.773-3.261-3.773h-.369Q-39.67-29.777-41.967-29.7Zm6.3,1.928v.062q0,.1.205.226.164,0,.164-.144v-.144Zm.574.431h.164v-.144Q-35.1-27.46-35.1-27.337Zm-7.3,3.486v.205a.622.622,0,0,1,.226-.062v-.082A.622.622,0,0,1-42.4-23.851Zm8.859.513.144.062a.127.127,0,0,0,.144-.144l-.144-.062Q-33.538-23.461-33.538-23.338Zm-.882,1.025a.505.505,0,0,1,.287.082l.082-.144v-.082h-.226Q-34.42-22.436-34.42-22.312Zm1.846.369h.144v.144A.127.127,0,0,1-32.575-21.943Zm-.082,1.189v.144h.082v-.144Zm-9.967,3.979v.164h.144v-.164Zm9.823.9h.287v-.164h-.144A.166.166,0,0,0-32.8-15.873Zm-.595.882q.021.144.144.144l.082-.144Zm-8.716,3.1v.144h.144v-.144Zm7.239.287h.144q.164,0,.164-.144h-.164Q-34.871-11.73-34.871-11.607ZM-42.4-9a1.746,1.746,0,0,0,.595.144.773.773,0,0,0,.062-.308l-.144-.062h-.082Q-42.4-9.187-42.4-9Zm3.979,3.015v.144h.308v-.144Zm5.394,4.143v.226a.127.127,0,0,0,.144-.144ZM-21.809-30.7q6.173,0,6.173.656v.513q-.164,2.974-.738,3.22a2.462,2.462,0,0,1-.369-1.395v-1.6h-.082q-5.722.062-6.378.062a.5.5,0,0,1-.226.082q0-.1-.226-.226v.226h-1.251q-.226,0-.574,3.22a26.419,26.419,0,0,0-.226,3.753q.062.759.062.882h-.513v.144h.513q.082,1.579.082,2.358v.062q-.595.082-.595.308.677,0,.677,1.251,0,2.563.656,2.563a14.483,14.483,0,0,0,1.62.226q.923-1.395,1.251-1.395h.205q.472,0,.82,2.194v.882q0,1.189-.226,1.189,0-.164-.226-.164a.694.694,0,0,1-.369.164q-.738-.349-.738-.82l.369.082q.1,0,.226-.226,0-.164-.595-.369a.509.509,0,0,1-.205.082q0-.246-.964-.308h-1.395v4.266l-.431.082v.144l.431.062v3.753a1.9,1.9,0,0,0-.369.369,1.9,1.9,0,0,0,.369.369v2.42l.082.738q8.552-.8,8.654-.882a3.741,3.741,0,0,0,.369-1.62q.308-.431.369-.431h.144a1.121,1.121,0,0,1,.595.943q-.246,1.846-.882,1.846A36.431,36.431,0,0,1-24.085,0q-2.133,0-2.728-.882a5.207,5.207,0,0,1-.738-2.933v-.369q0-.656.308-5.742v-3.22h.144v-.226a.5.5,0,0,1-.226-.082q-.082-5.619-.082-7.916,0-1.189.082-4.778a.61.61,0,0,1-.082-.308q.349-.082.369-.287h-.144l-.144.082-.082-.164v-.287l-.062-.738a.127.127,0,0,0,.144-.144v-.062a1.332,1.332,0,0,1-.287-.964h.205a.127.127,0,0,0-.144-.144.127.127,0,0,1-.144.144,4.566,4.566,0,0,0-.513-1.251v-.082A43.094,43.094,0,0,1-21.809-30.7Zm-.82.144-.205.287h.287q.1,0,.226-.226Zm-3.671.144v.144h.082a.127.127,0,0,0,.144-.144Zm-.595.595h.451q0-.164-.144-.164h-.144Q-26.895-29.962-26.895-29.818Zm-.287.882a.5.5,0,0,0,.513.287h.082a.471.471,0,0,1,.144-.287q-.041-.164-.369-.308Q-27.141-29.1-27.182-28.937Zm1.846-.308a.853.853,0,0,0-.144.369h.144a.127.127,0,0,0,.144-.144V-29.1A.127.127,0,0,0-25.336-29.244Zm-1.395,1.395v.513q.021.164.144.164h.062q.144,0,.451-.533-.082,0-.082-.062l-.144.062h-.226v-.144Zm.062,3.835v.205h.082a.127.127,0,0,0,.144-.144l-.144-.062Zm.595,1.169v.062h.226v-.062ZM-27.1-21.738l.144.062a.127.127,0,0,0,.144-.144l-.144-.082A.166.166,0,0,0-27.1-21.738Zm.144,1.169v.144h.287a.127.127,0,0,0-.144-.144Zm.595.656v.144h.144v-.144Zm.287.226v.144h.144v-.144Zm-.656.287-.082.144.144.082.082-.144Zm-.451,1.395v.082h.226v-.226h-.082Q-27.182-18.129-27.182-18.006Zm.287,1.764v.082h.164v-.082Zm4.717.882v.082h.144a.127.127,0,0,0,.144-.144l-.144-.082Q-22.178-15.483-22.178-15.36Zm-.595.882v.144h.144v-.144Zm-1.989.738v.082h.308v-.082ZM-21.6-13a.166.166,0,0,0,.164.144V-13Zm-4.84,1.025v.144l.144-.062q.144.021.144.144a.054.054,0,0,0-.062.062h.144a.62.62,0,0,1,.062-.205l-.144-.082Zm0,.226v.062h.144v-.062Zm.882.287q.021.144.144.144h.082a.127.127,0,0,0,.144-.144.127.127,0,0,0-.144-.144h-.082Q-25.562-11.587-25.562-11.464Zm-.964.82v.062h.164v-.062Zm.226.144q0,.082.369.369-.1,0-.226.205a.073.073,0,0,1,.082.082q.328-.144.369-.287v-.164l-.082-.349h-.369Q-26.3-10.623-26.3-10.5Zm.738.431v.226h.226Q-25.336-9.946-25.562-10.069ZM-26.3-8q0,.185.451.287l.144-.226-.226-.287ZM-27.469-4.84q0,.246.882.513a1.029,1.029,0,0,0-.82-.513Zm.574,2.933v.144h.226v-.144ZM-5.28-30.967a7.015,7.015,0,0,1,2.01.738h.082v.144q-.308,0-.308.226l.308.226h.205v-.308l-.062-.144h.062q.882.144,1.046.144l.287-.144a3.663,3.663,0,0,1,.677,2.071q-.1,0-.226.226a.2.2,0,0,1,.226.226q-.1,1.846-.369,1.846-.451,0-.882-1.333.062,0,.062-.082-.205-.082-.656-1.251-.759-.82-1.128-.82h-.738l-.287-.287h-.082l.082.144-.144.082H-6.388q-.759,1.928-.964,1.928-.1,0-.226.205.164.041.164.164a34.65,34.65,0,0,0-1.333,4.594q-.328.964-.451.964-.308.041-.308.226v.062l.451.369v.533a.671.671,0,0,1-.082.369l.082.369Q-9.5-13.453-9.5-12A27.485,27.485,0,0,0-7.721-1.784,2.277,2.277,0,0,0-5.875-.82a7.635,7.635,0,0,0,2.522-.656.773.773,0,0,0,.308.062.054.054,0,0,1,.062-.062l-.062-.144V-1.7Q-.892-2.974-.892-3.937A7.848,7.848,0,0,0-.379-6.07h.144A10.589,10.589,0,0,1,.359-1.928V-.882L.277-.738a1.637,1.637,0,0,1-.738-.595v-.144a.073.073,0,0,1,.082-.082A.794.794,0,0,0-.83-2.01H-.892A5.6,5.6,0,0,1-5.116,0q-4.04,0-6.091-5.045A18.644,18.644,0,0,1-11.72-9.5q0-.472.226-6.3h.062a.054.054,0,0,0-.062-.062q.595-7.731,1.189-9.413a7.457,7.457,0,0,1,1.62-4q1.415-1.559,1.7-1.559Q-5.629-30.967-5.28-30.967Zm-1.251.431v.082q.021.144.144.144l.369-.082a.127.127,0,0,0-.144-.144Zm1.62.308.164.062h.062a.622.622,0,0,1-.062-.226Q-4.911-30.352-4.911-30.229Zm.164.513v.082l.369.062v-.144q-.144,0-.144-.082A.5.5,0,0,1-4.747-29.716Zm-2.6,0v.082a.773.773,0,0,1,.308.062l.062-.144Zm.595.738.144.082v-.226Q-6.757-29.1-6.757-28.978Zm5.045.144a.073.073,0,0,1-.082.082.5.5,0,0,1,.082.226h.287a.5.5,0,0,1,.082-.226Zm-5.414.308v.144h.144v-.144Zm-1.333,1.189v.205a.127.127,0,0,0,.144-.144v-.062Zm-1.415.513v.082q0,.1.226.205a.127.127,0,0,0,.144-.144v-.144Zm.595.451h.144v-.164A.149.149,0,0,0-9.279-26.373Zm-.369,2.358a4.133,4.133,0,0,0,.451.082v-.144q0-.164-.144-.164Q-9.649-24.117-9.649-24.015Zm-.287.964q.062.226.144.226a.5.5,0,0,1,.226-.082v-.144a.127.127,0,0,0-.144-.144Q-9.936-23.112-9.936-23.051Zm.062.9V-22h.226a.127.127,0,0,0-.144-.144ZM-10.53-20.3v.082q0,.1.226.205v-.062Q-10.3-20.18-10.53-20.3Zm1.025.964-.062.144h.226Q-9.341-19.339-9.5-19.339Zm-1.025,2.153v.144h.226v-.144Zm.369.144q.021.144.144.144h.082v-.144Zm-1.107,5.558v.082h.287v.144h-.062a.5.5,0,0,0-.226-.082q0,.144.226.144a.62.62,0,0,1,.205-.062V-11.4q0-.164-.205-.164A.5.5,0,0,1-11.269-11.484Zm1.025.287-.062.164v.062q.021.144.144.144a.127.127,0,0,0,.144-.144v-.144A.5.5,0,0,1-10.243-11.2Zm-.8,1.128v.205l.287.082V-9.7L-10.9-9.5v.082h.144q.1,0,.226-.226v-.431q0-.164-.144-.164H-10.9A.149.149,0,0,0-11.043-10.069Zm.656.513v.144a.5.5,0,0,1,.226.082v-.082a.127.127,0,0,0-.144-.144Zm.738.369v.144h.082v-.144ZM-10.3-8.142l.144.062h.226a.127.127,0,0,0,.144-.144l-.226-.144Q-10.3-8.265-10.3-8.142Zm-.82.574q0,.123.287.308h.164l.205-.144q-.1-.308-.205-.308h-.164A.471.471,0,0,1-11.125-7.567Zm1.333.369v.164h.226q0-.164-.144-.164ZM-.461-4.307v.226h.226v-.226Zm.451.595v.164H.134v-.164Zm-8.675.9v.144h.308q0-.144-.164-.144Zm5.7,1.7.164.062h.205v-.062a.127.127,0,0,0-.144-.144h-.062Q-2.983-1.23-2.983-1.107ZM-7.208-.82v.226a.5.5,0,0,1,.226-.082V-.738A.5.5,0,0,1-7.208-.82ZM3.455-30.68l.287.082,5.722.205.082.144q-.164.492-1.395,1.046-.431.369-.513,2.707a10.008,10.008,0,0,1,.082,1.477v.144q-.492,0-.595.287.595.287.595.369V-17.9a.5.5,0,0,0-.226-.082v.082q0,.1.287.205l.144,8.675q-.1,0-.205.226l.205.287v1.169H7.639q0,.144.287.144v.964l-.205.287q.205,0,.205.144v.144a15.965,15.965,0,0,0,.513,4.04,2.256,2.256,0,0,1,1.477.656v.082l-.287.226H9.546L9.4-.738Q9.4-.123,6.9,0A6.708,6.708,0,0,1,5.219-.287V-.369q0-.164,1.169-.513-.062-.984-.062-1.477V-13.351q0-.164.205-.164v-.062q-.205,0-.205-.144v-1.189a.851.851,0,0,0,.205-.513q-.1,0-.205-.205-.082-1.312-.082-2.133a.505.505,0,0,1,.082-.287q-.451-8.347-.964-11.238a3.163,3.163,0,0,0-1.538-.431,2.646,2.646,0,0,1-.369-.882ZM7.27-22.312v.082q.021.144.144.144H7.5v-.308A.5.5,0,0,1,7.27-22.312Zm.226,7.4q.021.164.144.164l.082-.164Zm-.82,1.928v.062h.164v-.062Zm.082,3.814h.082a.505.505,0,0,1,.287-.082v.082l-.082.144h.164v-.144a.145.145,0,0,0-.164-.164H6.9A.166.166,0,0,0,6.757-9.167Zm0,.062v.082H6.9v-.082ZM6.757-8v.062H6.9V-8Zm.226.144v.082l.287.287-.144.226V-7.2h.082q.1,0,.349-.287Q7.475-8,7.352-8H7.126Q6.983-7.978,6.983-7.854ZM6.9-5.291a.809.809,0,0,0,.513.226L7.5-5.209v-.144A.127.127,0,0,0,7.352-5.5Q6.9-5.455,6.9-5.291ZM15.369-30.8q0,.451.369.451l.287.062v-.062a.91.91,0,0,1-.144-.451h.082a9.965,9.965,0,0,1,7.075,2.5l-.226.308.369-.082h.062a4.384,4.384,0,0,1,1.189,2.215,16.985,16.985,0,0,1,.595,3.9q-.369.1-.369.226v.082q.431.185.431,1.456v.82q0,2.871-.226,2.871a.5.5,0,0,0,.082.226,8.886,8.886,0,0,1-1.477,4.409,6.837,6.837,0,0,1-3.753,2.358v-.062a.127.127,0,0,0-.144-.144h-.308v.144l.144-.082q.164.021.164.144a2.59,2.59,0,0,0-.738.308,12.526,12.526,0,0,1-1.477.287l-.369-.062q0,.164-.369.369,0,.718-.082.738,0,.062.082.062l-.082.882v1.251a.857.857,0,0,1-.062.369L16.538-5q-.062,1.764-.062,2.789a11.819,11.819,0,0,0,1.989,1.189l.205.287q0,.574-1.989.738-2.871-.123-2.871-.513,0-.595,1.189-.656a4.392,4.392,0,0,0,.287-1.271h.144v-.431q-.205,0-.205-.144-.082-1.6-.082-2.3a.127.127,0,0,0,.144-.144.855.855,0,0,1-.226-.431q-.656-15.032-.656-20.795v-.431h.513q.226,0,.226-.308a.509.509,0,0,1-.082-.205h-.287l-.369.062v-1.251q.451,0,.451-.226v-.226a2.135,2.135,0,0,1-1.046-.513l-.369-.062a.054.054,0,0,1-.062.062,2.758,2.758,0,0,1-.226-.656Q13.155-30.659,15.369-30.8Zm.882.226q.021.144.144.144h.144v-.144Zm-.082.595v.062h.164v-.062Zm-.8.287q.1.287.226.287H15.8q.123,0,.226-.226V-29.7q0-.062-.226-.226Zm3.24-.144q0,.205-2.071.513,0,.1-.574.226v.574l-.308.308v.062a.522.522,0,0,1,.308.164l-.082.144v1.313a.073.073,0,0,1-.082.082l.082.144v2.358l-.082.144q.164.021.164.164v2.563q-.369,0-.369.164.021.144.144.144.021-.144.144-.144a5.93,5.93,0,0,1,.144,1.682v1.251H15.8v.144q.308,0,.308.533,0,1.8.226,5.435-.164.041-.164.164v.144a.809.809,0,0,1,.226.513v.144l-.144.226q.144,0,.287.595.144,0,.144.062l-.144.308.226.144h.226l.226-.144a.612.612,0,0,1-.082-.369l.369-.082q0,.226.144.226h.082q.144,0,.144-.287a8.211,8.211,0,0,0,4.061-1.477,6.172,6.172,0,0,0,1.251-4.143h.062a4.164,4.164,0,0,0,.677.226q0-.123-.738-.595-.41-10.09-1.251-10.89-1.046-2.44-3.1-2.44h-.082Q18.753-29.839,18.61-29.839Zm-3.015,2.646q.021.144.144.144H15.8a.127.127,0,0,0-.144-.144Zm6.48,0v.144h.144A.127.127,0,0,0,22.075-27.193Zm-7.526.369v.144h.144v-.144Zm7.67.082.082.144a.509.509,0,0,1,.205-.082v-.062Zm-7.67,1.169v.144h.144v-.144Zm.369,0q.021.144.144.144h.082v-.144Zm.513.082v.144h.082a.127.127,0,0,0,.144-.144Zm0,1.989v.144h.082a.127.127,0,0,0,.144-.144Zm-.369,1.477a.166.166,0,0,0,.164.144h.062v-.144Zm8.552.738q.021.144.144.144h.082a.127.127,0,0,0-.144-.144Zm-8.757.369v.144h.205a.127.127,0,0,0-.144-.144Zm.062,1.682v.082h.144v-.082Zm9.741.144q.021.164.144.164h.062a.145.145,0,0,0,.164-.164l-.164-.062A.62.62,0,0,1,24.659-19.093Zm-9.29.513v.226h.287a.622.622,0,0,1-.062-.226Zm8.921,1.189v.226l.287.062.082-.144v-.144ZM15-15.914v.144h.226v-.144Zm.226.287v.082q.021.144.144.144h.369a.127.127,0,0,0,.144-.144v-.082q0-.1-.226-.226Q15.226-15.791,15.226-15.627Zm.062,2.5a.5.5,0,0,1,.226.082l.082-.144v-.144h-.082Q15.41-13.33,15.287-13.125Zm8.265-.062v.144h.287v-.144Zm-.595.964v.144h.226a.127.127,0,0,0-.144-.144Zm-7.362,3.24v.205l.144.082H15.8a.548.548,0,0,1-.144-.287Zm.062,3.1-.062.144v.062h.062a.127.127,0,0,0,.144-.144Zm.369.144-.062.144.144.082.062-.164ZM34.482-30.7q6.173,0,6.173.656v.513q-.164,2.974-.738,3.22a2.462,2.462,0,0,1-.369-1.395v-1.6h-.082q-5.722.062-6.378.062a.5.5,0,0,1-.226.082q0-.1-.226-.226v.226H31.385q-.226,0-.574,3.22a26.419,26.419,0,0,0-.226,3.753q.062.759.062.882h-.513v.144h.513q.082,1.579.082,2.358v.062q-.595.082-.595.308.677,0,.677,1.251,0,2.563.656,2.563a14.483,14.483,0,0,0,1.62.226q.923-1.395,1.251-1.395h.205q.472,0,.82,2.194v.882q0,1.189-.226,1.189,0-.164-.226-.164a.694.694,0,0,1-.369.164q-.738-.349-.738-.82l.369.082q.1,0,.226-.226,0-.164-.595-.369a.509.509,0,0,1-.205.082q0-.246-.964-.308H31.242v4.266l-.431.082v.144l.431.062v3.753a1.9,1.9,0,0,0-.369.369,1.9,1.9,0,0,0,.369.369v2.42l.082.738q8.552-.8,8.654-.882a3.741,3.741,0,0,0,.369-1.62q.308-.431.369-.431h.144a1.121,1.121,0,0,1,.595.943q-.246,1.846-.882,1.846A36.431,36.431,0,0,1,32.205,0q-2.133,0-2.728-.882a5.207,5.207,0,0,1-.738-2.933v-.369q0-.656.308-5.742v-3.22h.144v-.226a.5.5,0,0,1-.226-.082q-.082-5.619-.082-7.916,0-1.189.082-4.778a.61.61,0,0,1-.082-.308q.349-.082.369-.287h-.144l-.144.082-.082-.164v-.287l-.062-.738a.127.127,0,0,0,.144-.144v-.062a1.332,1.332,0,0,1-.287-.964h.205a.127.127,0,0,0-.144-.144.127.127,0,0,1-.144.144,4.566,4.566,0,0,0-.513-1.251v-.082A43.094,43.094,0,0,1,34.482-30.7Zm-.82.144-.205.287h.287q.1,0,.226-.226Zm-3.671.144v.144h.082a.127.127,0,0,0,.144-.144Zm-.595.595h.451q0-.164-.144-.164H29.56Q29.4-29.962,29.4-29.818Zm-.287.882a.5.5,0,0,0,.513.287H29.7a.471.471,0,0,1,.144-.287q-.041-.164-.369-.308Q29.15-29.1,29.109-28.937Zm1.846-.308a.853.853,0,0,0-.144.369h.144a.127.127,0,0,0,.144-.144V-29.1A.127.127,0,0,0,30.954-29.244ZM29.56-27.85v.513q.021.164.144.164h.062q.144,0,.451-.533-.082,0-.082-.062l-.144.062h-.226v-.144Zm.062,3.835v.205H29.7a.127.127,0,0,0,.144-.144l-.144-.062Zm.595,1.169v.062h.226v-.062Zm-1.025,1.107.144.062a.127.127,0,0,0,.144-.144l-.144-.082A.166.166,0,0,0,29.191-21.738Zm.144,1.169v.144h.287a.127.127,0,0,0-.144-.144Zm.595.656v.144h.144v-.144Zm.287.226v.144h.144v-.144Zm-.656.287-.082.144.144.082.082-.144Zm-.451,1.395v.082h.226v-.226h-.082Q29.109-18.129,29.109-18.006Zm.287,1.764v.082h.164v-.082Zm4.717.882v.082h.144a.127.127,0,0,0,.144-.144l-.144-.082Q34.113-15.483,34.113-15.36Zm-.595.882v.144h.144v-.144Zm-1.989.738v.082h.308v-.082ZM34.687-13a.166.166,0,0,0,.164.144V-13Zm-4.84,1.025v.144l.144-.062q.144.021.144.144a.054.054,0,0,0-.062.062h.144a.62.62,0,0,1,.062-.205l-.144-.082Zm0,.226v.062h.144v-.062Zm.882.287q.021.144.144.144h.082a.127.127,0,0,0,.144-.144.127.127,0,0,0-.144-.144h-.082Q30.729-11.587,30.729-11.464Zm-.964.82v.062h.164v-.062Zm.226.144q0,.082.369.369-.1,0-.226.205a.073.073,0,0,1,.082.082q.328-.144.369-.287v-.164l-.082-.349h-.369Q29.991-10.623,29.991-10.5Zm.738.431v.226h.226Q30.954-9.946,30.729-10.069ZM29.991-8q0,.185.451.287l.144-.226-.226-.287ZM28.822-4.84q0,.246.882.513a1.029,1.029,0,0,0-.82-.513ZM29.4-1.907v.144h.226v-.144Z" transform="translate(1593 648.126)"/>
  </g>
</svg>
