<svg xmlns="http://www.w3.org/2000/svg" xmlns:xlink="http://www.w3.org/1999/xlink" viewBox="828 627.663 400 150.669">
  <defs>
    <style>
      .cls-1 {
        fill: none;
      }

      .cls-2 {
        clip-path: url(#clip-path);
      }

      .cls-3 {
        clip-path: url(#clip-path-2);
      }

      .cls-4, .cls-5 {
        fill: #fff;
      }

      .cls-4 {
        font-size: 131px;
        font-family: Cupcakia;
      }
    </style>
    <clipPath id="clip-path">
      <rect id="Rectangle_5" data-name="Rectangle 5" width="400" height="150.669"/>
    </clipPath>
    <clipPath id="clip-path-2">
      <rect class="cls-1" width="393" height="145"/>
    </clipPath>
  </defs>
  <g id="Group_4" data-name="Group 4" transform="translate(-565 20.756)">
    <g id="Group_3" data-name="Group 3" transform="translate(1393 606.906)">
      <g id="Group_1" data-name="Group 1" class="cls-2" transform="translate(0 0)">
        <g id="Repeat_Grid_1" data-name="Repeat Grid 1" class="cls-3" transform="translate(0 -0.141)">
          <g transform="translate(0 0.141)">
            <text id="easycook" class="cls-4" transform="translate(0 109.859)"><tspan x="0" y="0">easycook</tspan></text>
          </g>
        </g>
      </g>
      <g id="Group_2" data-name="Group 2" class="cls-2" transform="translate(0 0)">
        <path id="Path_39" data-name="Path 39" class="cls-5" d="M528.352,242.515c-.685,4.668-6.738,5.259-8.851,4.786s-5.71-1.891-5.653-3.781c.057-1.95,3.369-3.486,4.854-3.722,1.428-.236,2.8,1.536,3.141,2.245s1.827,1.3,1.941.118a3.562,3.562,0,0,0-1.142-2.777c-.8-1.064-3.026-1-2.512-1.536l3.6-5.14c.057,0,5.539,3.6,4.625,9.808m-3.826-11.758c.514-.768.286-4.018.286-4.018a11.036,11.036,0,0,0,1.884,1.477c1.485,1.064,2.455-.532,2.056-1.182-.4-.709-2.512-2.423-3.655-3.663-1.256-.177-1.884-.177-2,.532-.4,2.186-.457,7.8-4.8,13.176-3.883,4.786-8.68,5.318-14.732,5.022s-7.823-2.009-11.991-6.263a14.548,14.548,0,0,1-3.769-11.817c.228-2.186-2.57-.886-2.57-.886s-3.826,3.368-4.854,4.372c-1.085,1,.171,2.186,1.2,1.418s1.542-.65,2.741-1.832c1.485-1.418,1.313.118,1.313.118a16.789,16.789,0,0,0,6.338,12.644c3.826,2.9,9.764,4.55,19.415,3.427a8.634,8.634,0,0,0,8.108,6.027c2.8.177,6.8.059,9.422-3.368,6.167-8.331-4.283-15.3-4.4-15.185" transform="translate(-205.897 -102.185)"/>
      </g>
    </g>
    <path id="Path_10316" data-name="Path 10316" class="cls-5" d="M6.439-30.967a7.015,7.015,0,0,1,2.01.738h.082v.144q-.308,0-.308.226l.308.226h.205v-.308l-.062-.144h.062q.882.144,1.046.144l.287-.144a3.663,3.663,0,0,1,.677,2.071q-.1,0-.226.226a.2.2,0,0,1,.226.226q-.1,1.846-.369,1.846-.451,0-.882-1.333.062,0,.062-.082-.205-.082-.656-1.251-.759-.82-1.128-.82H7.034l-.287-.287H6.665l.082.144-.144.082H5.332q-.759,1.928-.964,1.928-.1,0-.226.205.164.041.164.164a34.65,34.65,0,0,0-1.333,4.594q-.328.964-.451.964-.308.041-.308.226v.062l.451.369v.533a.671.671,0,0,1-.082.369l.082.369Q2.215-13.453,2.215-12A27.485,27.485,0,0,0,4-1.784,2.277,2.277,0,0,0,5.845-.82a7.635,7.635,0,0,0,2.522-.656.773.773,0,0,0,.308.062.054.054,0,0,1,.062-.062L8.675-1.62V-1.7q2.153-1.271,2.153-2.235a7.848,7.848,0,0,0,.513-2.133h.144a10.589,10.589,0,0,1,.595,4.143V-.882L12-.738a1.637,1.637,0,0,1-.738-.595v-.144a.073.073,0,0,1,.082-.082.794.794,0,0,0-.451-.451h-.062A5.6,5.6,0,0,1,6.6,0Q2.563,0,.513-5.045A18.644,18.644,0,0,1,0-9.5q0-.472.226-6.3H.287a.054.054,0,0,0-.062-.062q.595-7.731,1.189-9.413a7.457,7.457,0,0,1,1.62-4q1.415-1.559,1.7-1.559Q6.091-30.967,6.439-30.967Zm-1.251.431v.082q.021.144.144.144l.369-.082a.127.127,0,0,0-.144-.144Zm1.62.308.164.062h.062a.622.622,0,0,1-.062-.226Q6.809-30.352,6.809-30.229Zm.164.513v.082l.369.062v-.144q-.144,0-.144-.082A.5.5,0,0,1,6.973-29.716Zm-2.6,0v.082a.773.773,0,0,1,.308.062l.062-.144Zm.595.738.144.082v-.226Q4.963-29.1,4.963-28.978Zm5.045.144a.073.073,0,0,1-.082.082.5.5,0,0,1,.082.226h.287a.5.5,0,0,1,.082-.226Zm-5.414.308v.144h.144v-.144ZM3.261-27.337v.205a.127.127,0,0,0,.144-.144v-.062Zm-1.415.513v.082q0,.1.226.205a.127.127,0,0,0,.144-.144v-.144Zm.595.451h.144v-.164A.149.149,0,0,0,2.44-26.373Zm-.369,2.358a4.133,4.133,0,0,0,.451.082v-.144q0-.164-.144-.164Q2.071-24.117,2.071-24.015Zm-.287.964q.062.226.144.226a.5.5,0,0,1,.226-.082v-.144a.127.127,0,0,0-.144-.144Q1.784-23.112,1.784-23.051Zm.062.9V-22h.226a.127.127,0,0,0-.144-.144ZM1.189-20.3v.082q0,.1.226.205v-.062Q1.415-20.18,1.189-20.3Zm1.025.964-.062.144h.226Q2.379-19.339,2.215-19.339ZM1.189-17.186v.144h.226v-.144Zm.369.144q.021.144.144.144h.082v-.144ZM.451-11.484v.082H.738v.144H.677a.5.5,0,0,0-.226-.082q0,.144.226.144a.62.62,0,0,1,.205-.062V-11.4q0-.164-.205-.164A.5.5,0,0,1,.451-11.484Zm1.025.287-.062.164v.062q.021.144.144.144a.127.127,0,0,0,.144-.144v-.144A.5.5,0,0,1,1.477-11.2Zm-.8,1.128v.205l.287.082V-9.7L.82-9.5v.082H.964q.1,0,.226-.226v-.431q0-.164-.144-.164H.82A.149.149,0,0,0,.677-10.069Zm.656.513v.144a.5.5,0,0,1,.226.082v-.082a.127.127,0,0,0-.144-.144Zm.738.369v.144h.082v-.144ZM1.415-8.142l.144.062h.226a.127.127,0,0,0,.144-.144L1.7-8.367Q1.415-8.265,1.415-8.142Zm-.82.574q0,.123.287.308h.164L1.251-7.4q-.1-.308-.205-.308H.882A.471.471,0,0,1,.595-7.567ZM1.928-7.2v.164h.226q0-.164-.144-.164Zm9.331,2.892v.226h.226v-.226Zm.451.595v.164h.144v-.164Zm-8.675.9v.144h.308q0-.144-.164-.144Zm5.7,1.7.164.062h.205v-.062a.127.127,0,0,0-.144-.144H8.9Q8.736-1.23,8.736-1.107ZM4.512-.82v.226a.5.5,0,0,1,.226-.082V-.738A.5.5,0,0,1,4.512-.82ZM21-30.8q2.112,0,3.753,3.24v.082h-.144v.144h.082l.144-.082a20.433,20.433,0,0,1,1.846,5.537q.431,2.42.431,2.5l-.369-.082a.622.622,0,0,1-.062.226l.144.082a.505.505,0,0,1,.287-.082,18.311,18.311,0,0,1,.226,2.3q-.369.185-.369.287.431.205.431.287v.226a10.991,10.991,0,0,0,.082,1.107.5.5,0,0,1-.226.082v.062l.226.308v1.025q0,.226-.287.226v.062a.548.548,0,0,1,.287.144l-.082.369q0,.7-.144,2.153h-.062q-.144,0-.144-.369h-.738l-.533.062v.082l.308.062a.622.622,0,0,1,.226-.062q.144.595.287.595h.369l.144-.082a.073.073,0,0,0,.082.082q-.328,1.764-.738,1.764v.062q0,.123.226.226-.328,1.559-.451,1.559H26v.205q.226,0,.226.164A18.52,18.52,0,0,1,25.49-2.81,7.049,7.049,0,0,1,22.763-.595,4.6,4.6,0,0,1,20.486,0a3.489,3.489,0,0,1-3.548-2.071q-1-1.415-1.62-8.982H15.4a.5.5,0,0,0,.226.082q-.144-.308-.308-.308-.144-2.563-.144-4.04A.5.5,0,0,1,15.4-15.4v-.226q-.226,0-.226-.144v-1.107a1.046,1.046,0,0,1,.513-1.025q0-.123-.431-.369a28.49,28.49,0,0,1,1.087-7.444,10.113,10.113,0,0,0,1.477.144H17.9v-.062a6.156,6.156,0,0,0-1.395-.226q0,.062-.082.062l-.082-.144q.492-1.682.9-1.682h.062a.551.551,0,0,1-.144-.308A5.181,5.181,0,0,1,18.5-29.7q0-.226.574-.226l-.062-.144Q19.01-30.434,21-30.8Zm-.656,1.7a.5.5,0,0,1-.082-.226h-.144l-.082.287a.5.5,0,0,1,.082.226q-.779,1.025-1.046,1.025a.127.127,0,0,0-.144-.144h-.144v.513q0,.082.287.226a17.179,17.179,0,0,0-1.395,5.086q-.144,0-.144-.226-.144.021-.144.144v.082q.226,0,.226.082a49.711,49.711,0,0,0-.533,6.911q0,1.518.164,4.143H16.8a.509.509,0,0,1-.082.205.9.9,0,0,0,.595.226A20.707,20.707,0,0,1,17.39-8.47h-.226a1.016,1.016,0,0,1,.369.738l.226,2.276h-.082a10.76,10.76,0,0,0,.513,2.871q.82,1.7,1.928,1.7h.226q2.03,0,3.24-2.358.349,0,.943-2.5a.5.5,0,0,1,.226-.082V-6.05h-.144A13.854,13.854,0,0,0,25.2-9.29a.62.62,0,0,1,.205-.062v-.082q-.205,0-.205-.144a1.491,1.491,0,0,1,.205-.882l-.144-.082a37.239,37.239,0,0,0,.369-5.147V-16a41.976,41.976,0,0,0-.8-7.813.127.127,0,0,0,.144-.144v-.062a6.585,6.585,0,0,1-.82-2.358q-1.169-3.261-2.789-3.261A2.113,2.113,0,0,0,20.343-29.1Zm-2.071.062a.991.991,0,0,0,.595.308l.205-.369-.287-.226A.5.5,0,0,0,18.272-29.039Zm-.882.964a4.2,4.2,0,0,0,.595.144h.062q.144,0,.144-.226-.062-.287-.431-.287Q17.554-28.444,17.39-28.075ZM16.8-26.742l.144.062h.144v-.062q0-.164-.144-.164A.166.166,0,0,0,16.8-26.742Zm1.333.062v.082h.144q.1,0,.226-.226h-.226Q18.128-26.8,18.128-26.681Zm-.308,2.133v.082a.149.149,0,0,0,.164.144v-.062A.145.145,0,0,0,17.82-24.548Zm-.431.369v.164h.144v-.164Zm7.67.308-.082.144H25.2A.127.127,0,0,0,25.06-23.871Zm-7.978.738v.144a.622.622,0,0,1,.226.062v-.062a.127.127,0,0,0-.144-.144Zm-.943.513.369.062h.062V-22.7a.127.127,0,0,0-.144-.144Q16.139-22.743,16.139-22.62Zm1.025,1.025v.226h.226a.5.5,0,0,1-.082-.226Zm-1.251.144v.164H16.2q0-.164-.144-.164Zm-.287,1.189v.144a.127.127,0,0,0,.144-.144ZM16-19.3v.144h.431q0-.062-.226-.226A.509.509,0,0,1,16-19.3Zm10.828.369v.144q.021.144.144.144v-.287ZM16.057-17.76v.144q.021.144.144.144h.144a.509.509,0,0,1,.082-.205l-.144-.082Zm10.09.082a.166.166,0,0,0,.164.144v-.144Zm-9.5.287v.082H16.8v-.082ZM26-17.1v.082h.226V-17.1ZM16.282-14.95l.369.062h.062v-.062q-.062-.226-.144-.226Q16.282-15.073,16.282-14.95Zm9.577-.164v.082q.144,0,.144.082a.5.5,0,0,1,.226-.082v-.082q-.144,0-.144-.062A.622.622,0,0,1,25.86-15.114Zm.513.82a.853.853,0,0,0,.369.144q.226-.082.226-.144a.5.5,0,0,1-.082-.226h-.062Q26.372-14.479,26.372-14.294Zm-10.459.226a.505.505,0,0,1,.082.287q.349,0,.349-.144a.622.622,0,0,1-.062-.226Zm10.4.205v.082a.548.548,0,0,1,.287.144q.021-.144.144-.144-.1-.287-.226-.287Q26.413-14.068,26.311-13.863Zm.431.677q0,.1.226.226.144,0,.144-.164v-.062a.127.127,0,0,0-.144-.144h-.082Q26.741-13.31,26.741-13.187Zm-10.685.062v.164H16.2Q16.2-13.125,16.057-13.125Zm.287,1.046q.082.205.451.205l.144-.205v-.082A.127.127,0,0,0,16.8-12.3h-.226Q16.467-12.3,16.344-12.079Zm10.336.513v.062q.041,0,.431.082l.082-.144q0-.1-.226-.226h-.082Q26.782-11.792,26.68-11.566Zm-1.189,0v.062h.451v-.062a.5.5,0,0,1-.226-.082A.5.5,0,0,1,25.49-11.566Zm-8.7.226v.144a.622.622,0,0,1,.226.062V-11.2a.127.127,0,0,0-.144-.144Zm9.577.062v.144h.308v-.205H26.6A.622.622,0,0,1,26.372-11.279ZM16.344-10.172h.164v-.144Q16.344-10.295,16.344-10.172ZM25.2-8.777q0,.123.205.226v-.062q0-.164-.144-.164Zm0,.451V-8.1h.144a.127.127,0,0,0,.144-.144l-.144-.082Zm-9.434.287v.164h.144v-.164Zm.513.369v.226h.226Q16.508-7.547,16.282-7.67Zm.964.964v.144h.144v-.144Zm-.964,2.133v.144a.622.622,0,0,1,.226-.062v-.082Zm.369.226v.082q.144,0,.144-.164v-.062Q16.652-4.471,16.652-4.348Zm7.731.82-.062.144a.62.62,0,0,1,.205.062v-.062A.127.127,0,0,0,24.383-3.527Zm.082.718v.082h.226V-2.81Zm-.82.451h.226v-.226Q23.768-2.584,23.645-2.358ZM36.3-30.8q2.112,0,3.753,3.24v.082h-.144v.144h.082l.144-.082a20.433,20.433,0,0,1,1.846,5.537q.431,2.42.431,2.5l-.369-.082a.622.622,0,0,1-.062.226l.144.082a.505.505,0,0,1,.287-.082,18.311,18.311,0,0,1,.226,2.3q-.369.185-.369.287.431.205.431.287v.226a10.991,10.991,0,0,0,.082,1.107.5.5,0,0,1-.226.082v.062l.226.308v1.025q0,.226-.287.226v.062a.548.548,0,0,1,.287.144l-.082.369q0,.7-.144,2.153h-.062q-.144,0-.144-.369h-.738l-.533.062v.082l.308.062a.622.622,0,0,1,.226-.062q.144.595.287.595h.369l.144-.082a.073.073,0,0,0,.082.082q-.328,1.764-.738,1.764v.062q0,.123.226.226-.328,1.559-.451,1.559H41.3v.205q.226,0,.226.164a18.52,18.52,0,0,1-.738,3.445A7.049,7.049,0,0,1,38.061-.595,4.6,4.6,0,0,1,35.784,0a3.489,3.489,0,0,1-3.548-2.071q-1-1.415-1.62-8.982H30.7a.5.5,0,0,0,.226.082q-.144-.308-.308-.308-.144-2.563-.144-4.04A.5.5,0,0,1,30.7-15.4v-.226q-.226,0-.226-.144v-1.107a1.046,1.046,0,0,1,.513-1.025q0-.123-.431-.369a28.49,28.49,0,0,1,1.087-7.444,10.113,10.113,0,0,0,1.477.144H33.2v-.062a6.156,6.156,0,0,0-1.395-.226q0,.062-.082.062l-.082-.144q.492-1.682.9-1.682h.062a.551.551,0,0,1-.144-.308A5.181,5.181,0,0,1,33.8-29.7q0-.226.574-.226l-.062-.144Q34.308-30.434,36.3-30.8Zm-.656,1.7a.5.5,0,0,1-.082-.226h-.144l-.082.287a.5.5,0,0,1,.082.226q-.779,1.025-1.046,1.025a.127.127,0,0,0-.144-.144h-.144v.513q0,.082.287.226a17.179,17.179,0,0,0-1.395,5.086q-.144,0-.144-.226-.144.021-.144.144v.082q.226,0,.226.082a49.711,49.711,0,0,0-.533,6.911q0,1.518.164,4.143h-.451a.509.509,0,0,1-.082.205.9.9,0,0,0,.595.226,20.707,20.707,0,0,1,.082,2.071h-.226a1.016,1.016,0,0,1,.369.738l.226,2.276h-.082a10.76,10.76,0,0,0,.513,2.871q.82,1.7,1.928,1.7h.226q2.03,0,3.24-2.358.349,0,.943-2.5a.5.5,0,0,1,.226-.082V-6.05h-.144A13.854,13.854,0,0,0,40.5-9.29a.62.62,0,0,1,.205-.062v-.082q-.205,0-.205-.144a1.491,1.491,0,0,1,.205-.882l-.144-.082a37.239,37.239,0,0,0,.369-5.147V-16a41.976,41.976,0,0,0-.8-7.813.127.127,0,0,0,.144-.144v-.062a6.585,6.585,0,0,1-.82-2.358q-1.169-3.261-2.789-3.261A2.113,2.113,0,0,0,35.641-29.1Zm-2.071.062a.991.991,0,0,0,.595.308l.205-.369-.287-.226A.5.5,0,0,0,33.57-29.039Zm-.882.964a4.2,4.2,0,0,0,.595.144h.062q.144,0,.144-.226-.062-.287-.431-.287Q32.852-28.444,32.688-28.075Zm-.595,1.333.144.062h.144v-.062q0-.164-.144-.164A.166.166,0,0,0,32.093-26.742Zm1.333.062v.082h.144q.1,0,.226-.226H33.57Q33.426-26.8,33.426-26.681Zm-.308,2.133v.082a.149.149,0,0,0,.164.144v-.062A.145.145,0,0,0,33.118-24.548Zm-.431.369v.164h.144v-.164Zm7.67.308-.082.144H40.5A.127.127,0,0,0,40.358-23.871Zm-7.978.738v.144a.622.622,0,0,1,.226.062v-.062a.127.127,0,0,0-.144-.144Zm-.943.513.369.062h.062V-22.7a.127.127,0,0,0-.144-.144Q31.437-22.743,31.437-22.62Zm1.025,1.025v.226h.226a.5.5,0,0,1-.082-.226Zm-1.251.144v.164H31.5q0-.164-.144-.164Zm-.287,1.189v.144a.127.127,0,0,0,.144-.144Zm.369.964v.144h.431q0-.062-.226-.226A.509.509,0,0,1,31.293-19.3Zm10.828.369v.144q.021.144.144.144v-.287ZM31.355-17.76v.144q.021.144.144.144h.144a.509.509,0,0,1,.082-.205l-.144-.082Zm10.09.082a.166.166,0,0,0,.164.144v-.144Zm-9.5.287v.082h.144v-.082ZM41.3-17.1v.082h.226V-17.1ZM31.58-14.95l.369.062h.062v-.062q-.062-.226-.144-.226Q31.58-15.073,31.58-14.95Zm9.577-.164v.082q.144,0,.144.082a.5.5,0,0,1,.226-.082v-.082q-.144,0-.144-.062A.622.622,0,0,1,41.158-15.114Zm.513.82a.853.853,0,0,0,.369.144q.226-.082.226-.144a.5.5,0,0,1-.082-.226h-.062Q41.67-14.479,41.67-14.294Zm-10.459.226a.505.505,0,0,1,.082.287q.349,0,.349-.144a.622.622,0,0,1-.062-.226Zm10.4.205v.082a.548.548,0,0,1,.287.144q.021-.144.144-.144-.1-.287-.226-.287Q41.711-14.068,41.609-13.863Zm.431.677q0,.1.226.226.144,0,.144-.164v-.062a.127.127,0,0,0-.144-.144h-.082Q42.039-13.31,42.039-13.187Zm-10.685.062v.164H31.5Q31.5-13.125,31.355-13.125Zm.287,1.046q.082.205.451.205l.144-.205v-.082a.127.127,0,0,0-.144-.144h-.226Q31.765-12.3,31.642-12.079Zm10.336.513v.062q.041,0,.431.082l.082-.144q0-.1-.226-.226h-.082Q42.08-11.792,41.978-11.566Zm-1.189,0v.062h.451v-.062a.5.5,0,0,1-.226-.082A.5.5,0,0,1,40.788-11.566Zm-8.7.226v.144a.622.622,0,0,1,.226.062V-11.2a.127.127,0,0,0-.144-.144Zm9.577.062v.144h.308v-.205H41.9A.622.622,0,0,1,41.67-11.279ZM31.642-10.172h.164v-.144Q31.642-10.295,31.642-10.172ZM40.5-8.777q0,.123.205.226v-.062q0-.164-.144-.164Zm0,.451V-8.1h.144a.127.127,0,0,0,.144-.144l-.144-.082Zm-9.434.287v.164h.144v-.164Zm.513.369v.226h.226Q31.806-7.547,31.58-7.67Zm.964.964v.144h.144v-.144ZM31.58-4.573v.144a.622.622,0,0,1,.226-.062v-.082Zm.369.226v.082q.144,0,.144-.164v-.062Q31.95-4.471,31.95-4.348Zm7.731.82-.062.144a.62.62,0,0,1,.205.062v-.062A.127.127,0,0,0,39.681-3.527Zm.082.718v.082h.226V-2.81Zm-.82.451h.226v-.226Q39.066-2.584,38.943-2.358ZM56.435-30.926a2.367,2.367,0,0,1,.287.82q-.779,0-1.784,5.845-.738,2.83-4.655,7.752l-.082.39a2.773,2.773,0,0,1,.82-.164q0,.226.308.226l.062-.144q-.062,0-.062-.082l.144-.062h.738a.809.809,0,0,0,.513.226l.144-.226q2.194,0,3.261,2.666v.369h-.082v.144q.451,0,.759,3.035a.517.517,0,0,0-.533.287.551.551,0,0,1,.308.144.622.622,0,0,1,.226-.062q.041.144.144.8a.61.61,0,0,1-.308.082v.144q.451.246.451,1.415a2.476,2.476,0,0,0-.513.062v.082q0,.144.595.226a4.162,4.162,0,0,0,.062.82l-.144.062a.765.765,0,0,1-.144-.513h-.226a4.346,4.346,0,0,0-1.046.144v.082q.677,0,.677.369,0,.226.369.226a1.29,1.29,0,0,0,.451-.164,3.576,3.576,0,0,1,.205,1.271q-.287.1-.287.226v.062q.513.185.513,1.477.185,1.415.677,1.415,1.107.431,1.107.595a2.546,2.546,0,0,1-1.107.513,2.382,2.382,0,0,1-2.153-1.559v-.226q-.513,0-.656-4.737-.082,0-.082-.062a.671.671,0,0,1,.369-.082v-.144q-.369,0-.369-.451a21.112,21.112,0,0,0-1.62-7.69l-.164-.062q-5.168.451-5.168.964a.93.93,0,0,1-.308.8q.369,0,.369.308,0,.226.082,1.395a.073.073,0,0,0-.082.082q.226,0,.759,4.143a.853.853,0,0,1-.369.144v.082h.287v.144h-.082L48.95-7.4v.144h.144l.164-.062a2.336,2.336,0,0,1,.205.964q-.369.082-.369.226v.062q0,.226.369.226V-5.7q-.205,0-.205.144v.082H49.4l.144-.082a4.3,4.3,0,0,1,.144,1.333v.533l-.369-.082q-.1,0-.226.226,0,.1.226.226l.369-.082v.082A2.855,2.855,0,0,0,50.734-.964a3.3,3.3,0,0,1-2.01.882,2.1,2.1,0,0,0-.8-.369v.082q0,.226.287.226V0h-.144a2.18,2.18,0,0,1-1.7-.656V-.738l1.107-.451q-.082-.287-.369-2.584h.082a2.177,2.177,0,0,0,.738.287q0-.123-.9-.656v-.082q0-.267-.062-1.846a.127.127,0,0,0,.144-.144v-.144A.127.127,0,0,0,46.96-6.5q-.308-10.192-.308-13.761l-.062-.9.144-.062h.082l.882.062v-.144q-1.107-.1-1.107-.287-.082-4.45-.082-5.558a.671.671,0,0,1,.369-.082q-.451-.226-.451-.574v-1.415l-.656-.595v-.062a3.471,3.471,0,0,1,.882-.226h.082l.287.226q.021-.164.164-.164a11.192,11.192,0,0,0,1.169.082v.082q0,.205-.595.882a3,3,0,0,0-.205,1.189v.205q.144,2.522.144,3.568a.45.45,0,0,0-.451.287q.656.267.677.451.287,4.86.287,7.014.021.164.144.164h.369l-.062-.164v-.062a1.915,1.915,0,0,1,1.025-.533v-.144h-.226v-.062a20.345,20.345,0,0,0,4.512-7.26q.205-.369.308-.369a.5.5,0,0,1-.082-.226A13.638,13.638,0,0,0,54.938-29a.989.989,0,0,0-.656-.882l-.082-.677A5.925,5.925,0,0,1,56.435-30.926ZM46.96-26.045l-.082.144.369.226.082-.144Q47.33-25.983,46.96-26.045Zm-.308.82V-25h.164v-.082Q46.817-25.225,46.653-25.225Zm.082.513v.082h.226v-.226h-.082Q46.735-24.835,46.735-24.712Zm.226,1.333v.144h.062q.164,0,.164-.144Zm-.308,1.025.164.082a.127.127,0,0,0,.144-.144l-.144-.082Q46.653-22.477,46.653-22.354ZM47.7-20.118v.144h.144v-.144Zm-.451.369v.144a.127.127,0,0,0,.144-.144Zm-.287,1.025v.144h.226q0-.144-.164-.144Zm4.573,0v.144H51.7Q51.7-18.724,51.534-18.724Zm-4.286.964v.082h.144V-17.9Q47.248-17.883,47.248-17.76Zm-.287.595a.622.622,0,0,1,.062.226h.226a.622.622,0,0,1-.062-.226Zm3.773,1.189v.062q.021.164.144.164l.082-.164-.164-.062Zm-1.7.369v.144h.144v-.144Zm4.942.287v.144q.041.164.164.164H54.2q.144,0,.144-.164a.127.127,0,0,0-.144-.144Zm-5.394.308q.021.144.144.144l.082-.144Zm5.988.595v.062a.149.149,0,0,0,.164.144l.062-.144v-.062Zm-7.321.574v.164h.226q0-.164-.144-.164Zm7.485.226q0,.1.205.226h.226a.127.127,0,0,0,.144-.144v-.082q0-.185-.287-.226Q54.733-13.72,54.733-13.617Zm1.169.964v.082h.226v-.082Zm-.062,1.928v.144h.287a.127.127,0,0,0-.144-.144Zm.369,1.333v.062l.287.082.144-.226-.205-.144Q56.312-9.618,56.209-9.393Zm-8.08.369-.062.144.144.082h.082V-8.88Q48.293-9.023,48.129-9.023ZM47.186-8v.164h.205A.145.145,0,0,0,47.555-8Zm9.085,1.271a.622.622,0,0,1,.226.062l.082-.144v-.082h-.144Q56.271-6.85,56.271-6.727Zm.082,2.81v.062h.226A.127.127,0,0,0,56.722-4l-.144-.062H56.5Q56.353-4.04,56.353-3.917Zm.082,1.333v.062h.144a.127.127,0,0,0,.144-.144l-.144-.062Q56.435-2.707,56.435-2.584Zm-8.88,1.7h.287v-.164H47.7A.166.166,0,0,0,47.555-.882Zm15.052-29.8.287.082,5.722.205.082.144q-.164.492-1.395,1.046-.431.369-.513,2.707a10.008,10.008,0,0,1,.082,1.477v.144q-.492,0-.595.287.595.287.595.369V-17.9a.5.5,0,0,0-.226-.082v.082q0,.1.287.205l.144,8.675q-.1,0-.205.226l.205.287v1.169h-.287q0,.144.287.144v.964l-.205.287q.205,0,.205.144v.144a15.965,15.965,0,0,0,.513,4.04,2.256,2.256,0,0,1,1.477.656v.082l-.287.226H68.7l-.144-.082q0,.615-2.5.738a6.708,6.708,0,0,1-1.682-.287V-.369q0-.164,1.169-.513-.062-.984-.062-1.477V-13.351q0-.164.205-.164v-.062q-.205,0-.205-.144v-1.189a.851.851,0,0,0,.205-.513q-.1,0-.205-.205Q65.4-16.939,65.4-17.76a.505.505,0,0,1,.082-.287q-.451-8.347-.964-11.238a3.163,3.163,0,0,0-1.538-.431,2.646,2.646,0,0,1-.369-.882Zm3.814,8.367v.082q.021.144.144.144h.082v-.308A.5.5,0,0,1,66.422-22.312Zm.226,7.4q.021.164.144.164l.082-.164Zm-.82,1.928v.062h.164v-.062Zm.082,3.814h.082a.505.505,0,0,1,.287-.082v.082l-.082.144h.164v-.144a.145.145,0,0,0-.164-.164h-.144A.166.166,0,0,0,65.909-9.167Zm0,.062v.082h.144v-.082Zm0,1.107v.062h.144V-8Zm.226.144v.082l.287.287-.144.226V-7.2h.082q.1,0,.349-.287Q66.627-8,66.5-8h-.226Q66.134-7.978,66.134-7.854Zm-.082,2.563a.809.809,0,0,0,.513.226l.082-.144v-.144A.127.127,0,0,0,66.5-5.5Q66.052-5.455,66.052-5.291ZM83.832-30.68l2.563.144v.082a.58.58,0,0,1-.656.656v.082q0,.1.287.287,0,.369-.513.369v.144a.773.773,0,0,1,.308.062q-.369,1.148-.964,11.013-.328.144-.369.308.123,0,.287.287-.1,3.015-.349,3.015h-.164v.144q0,.1.308.287l-.082.513v.451q0,.205-.287.205v.082l.226.287v.144q0,.144-1.107.308v.062q.656,0,.656.369,0,.205.369.308a10.418,10.418,0,0,0-.082,1.087v.308l-.287.349v.082q.226,0,.226.144A5.105,5.105,0,0,1,84.057-8a.054.054,0,0,0,.062.062q-.554,7.2-.882,7.2a.505.505,0,0,1-.287.082h-.287q-.8,0-1.395-2.646a.127.127,0,0,0,.144-.144v-.082q-.451,0-.451-.738,0-.062.082-.062.369-.062.369-.369h.062a3.317,3.317,0,0,1,.595.882l-.082.144h.226q.369-4.9.369-5.578l.226.144h.226q0-.144-.369-.144v-.882q0-.144.287-.144,0-.144-.226-.144v-.738q0-.144.226-.144v-.082a.622.622,0,0,1-.226-.062l.082-.308q0-3.814,1.087-13.945l.164-2.112A18.55,18.55,0,0,0,83.75-30.6.073.073,0,0,0,83.832-30.68Zm-10.356.226q1.025,0,1.025,1.169l.513,2.563q-.062,0-.062.082l-.738-.082h-.369v.144l.882.082h.226a16.884,16.884,0,0,1,.882,3.015q.1,0,.226.574a.5.5,0,0,0-.082.226q.246,0,.8,1.682v.226q.123,0,.513,1.025-.349.205-.369.308.738,0,1.189,2.338L80.161-9.68a.622.622,0,0,1-.226.062v.082q.349,0,.513,1.025a1.7,1.7,0,0,0-.574.226H79.71a13.2,13.2,0,0,0-.431-1.764.073.073,0,0,0,.082-.082,39.847,39.847,0,0,1-1.7-5.722A47.938,47.938,0,0,0,75.1-22.743h-.082v.062q-.062,7.834-.144,10.869l-.369-.082h-.144a.622.622,0,0,1-.062.226l.369.226a.4.4,0,0,1,.205-.082v1.989l-.144.205.144.082q-.062,2.666-.062,3.814v3.3l-.082.882A3.506,3.506,0,0,0,75.977-.226v.144L75.465,0H72.45l-.144-.082q.369-1.025.595-8.88h.205v-.144a.62.62,0,0,1-.205-.062q.062-1.477.062-2.215v-.513q.144,0,.144-.062-.062-.226-.144-.226.082-1.8.144-6.378.082-.226.164-.226a.832.832,0,0,1-.164-.451v-.882a1.663,1.663,0,0,1,.226-1.025q-.144,0-.144-.205.082-4.676.082-5.517.287-.1.287-.226-.226,0-.226-.144V-29.06q.021-.513.144-.513l-.062-.144v-.595Zm10.869.287v.082q.021.144.144.144v-.226ZM74.357-27.6l.144.082q.164,0,.164-.144l-.164-.082Q74.357-27.727,74.357-27.6Zm10.069,0v.226a.127.127,0,0,0,.144-.144Zm-.082.513q.021.164.144.164h.082v-.164Zm.431.226v.082h.164v-.226Q84.775-26.988,84.775-26.865ZM74.952-25.02v.144a.127.127,0,0,0,.144-.144Zm-.287,1.025v.144h.205a.127.127,0,0,0-.144-.144Zm-.964.513.369.062.062-.144a.127.127,0,0,0-.144-.144h-.062Q73.824-23.707,73.7-23.481Zm1.251.431v.082H75.1v-.226Q74.952-23.174,74.952-23.051Zm-.287.595a.622.622,0,0,1,.062.226h.226a.5.5,0,0,1-.082-.226Zm-1.251.144v.082H73.7v-.082Zm2.707.8v.082h.287v-.082Zm8.142,1.107v.287l.164.082.144-.226Zm-8,.082q.021.144.144.144l.082-.144Zm-2.646.062-.062.144.144.082h.226v-.144Zm10.726.451v.205h.144v-.205ZM73.619-18.642v.082q0,.1.226.205l.144-.205v-.082Zm10.069,0v.144h.144A.127.127,0,0,0,83.688-18.642Zm-9.475.287v.144H74.3v-.144Zm9.331.369v.082h.205v-.082ZM73.845-16v.144l.369.082a.073.073,0,0,1,.082-.082.5.5,0,0,1-.082-.226Zm9.536.062h.369a.127.127,0,0,0-.144-.144h-.062Q83.381-16.058,83.381-15.935Zm.513.738a.551.551,0,0,1,.308.144.622.622,0,0,1,.226-.062v-.226q0-.144-.164-.144Q83.934-15.34,83.893-15.2Zm-10.418.226.144.287.308-.144a.5.5,0,0,1-.082-.226Zm10.356.226v.062l.287.082.144-.226-.205-.144Q83.934-14.971,83.832-14.745Zm-5.517,0a.166.166,0,0,0,.164.144l.062-.144Zm-4.758.718q.021.164.144.164h.082a.145.145,0,0,0-.164-.164Zm.513.738a.853.853,0,0,0-.144.369.807.807,0,0,0,.431.144l.144-.205v-.082Q74.439-13.289,74.07-13.289Zm9.023.738v.144h.287v-.144Zm-8.736.287v.144h.226a.127.127,0,0,0-.144-.144Zm9.536.144a.5.5,0,0,1,.226.082l.082-.144v-.082h-.144Q83.893-12.243,83.893-12.12Zm-5.045-.062v.144h.062a.127.127,0,0,0,.144-.144Zm-4.922.943v.164h.144v-.164Zm8.8,1.559q.021.144.144.144h.082V-9.68Zm-9.393.8V-8.8h.144v-.226Q73.332-9,73.332-8.88Zm9.762-.082V-8.8h.082v-.164Zm-9.311.369a.622.622,0,0,1,.062.226h.226q0-.1-.226-.226ZM80.592-8a14.593,14.593,0,0,0,.451,1.62q-.144.021-.144.144v.062q.308,0,.513,1.333a.61.61,0,0,1-.308-.082.505.505,0,0,1-.287.082h-.062L80.017-7.4q.144,0,.144-.164-.123,0-.287-.287A2.6,2.6,0,0,1,80.592-8Zm2.953.431v.226h.144a.127.127,0,0,0,.144-.144v-.082Zm-3.24.677h.226v-.164h-.082A.166.166,0,0,0,80.3-6.891Zm-6.46,1.313v.144h.144v-.144Zm.369.144v.144h.144v-.144ZM96.607-30.782a6.721,6.721,0,0,1,4.491,1.907q.226,2.01.226,2.522a2.883,2.883,0,0,1-.595,1.989q-.369,0-.8-4.2a.127.127,0,0,0,.144-.144,2.088,2.088,0,0,1-.882-.533,5.113,5.113,0,0,0-.9-.144q-3.015,0-5.373,4.573-.328.9-.595.9l.062.287q-.39,1.7-.656,1.7v.062l.144.226a23.319,23.319,0,0,0-.431,4.942v.738q-.308,0-.308.164a.773.773,0,0,0,.308.062A42.455,42.455,0,0,0,94.023-1.477q1.538.144,1.846.144,3.384-.492,3.384-1.169.1,0,.738-.738-.431-5.722-.431-6.132.287-.123.287-.226-.369,0-.369-.144,0-.041-.082-.964l.164-.082v.082q.287-.1.287-.226l-.287-.062a.622.622,0,0,1-.226.062v-.062q-.144-1.928-.369-1.928-1.784-.328-1.784-.738a3.509,3.509,0,0,1,2.3-.738h.451a1.8,1.8,0,0,1,1.251.656,19.42,19.42,0,0,0-.369,3.855,26.333,26.333,0,0,1,.431,4.266V-4.43q0,1.846-.513,1.846A7.628,7.628,0,0,1,97.92-.513,3.268,3.268,0,0,1,96.156,0h-.738q-2.4,0-4.655-2.666-.656,0-1.477-9.885a.127.127,0,0,0,.144-.144q-.205-.082-.205-.451v-.738a13.9,13.9,0,0,0-.082-1.395l.082-.144a.61.61,0,0,1-.082-.308v-.431q.021-.164.144-.164l-.062-.513v-.431q.021-.164.144-.164a.505.505,0,0,0,.287.082v-.144a.127.127,0,0,0-.144-.144.634.634,0,0,1-.287.062,26.059,26.059,0,0,1,.943-6.275h.164l-.082-.369q0-.369.287-.369l-.062-.287a11.446,11.446,0,0,1,2.646-4.512H93.2q.513.185.513.308-.144.021-.144.144v.144H93.8q.185-.369.287-.369v-.082l-.595-.205v-.164l.164.082h.431l-.287-.287A4.174,4.174,0,0,1,96.607-30.782Zm.943.8q.041.164.164.164l.062-.164Zm2.379.82v.144h.062v-.144Zm-5.763.656v.082q.226,0,.226.144.533-.267.574-.431h-.574Q94.269-28.711,94.167-28.506Zm6.05-.062q.021.144.144.144h.082v-.144Zm-6.05.656-.082.144.144.082h.082v-.082A.127.127,0,0,0,94.167-27.911Zm-2.358,1.333v.144h.205v-.144Zm.656,1.107v.144h.144A.127.127,0,0,0,92.465-25.471Zm-1.025,1.025v.226H91.5a.127.127,0,0,0,.144-.144v-.082Zm.062,1.333v.082a.773.773,0,0,1,.308.062l.062-.144Zm-1.107,2.358v.226a.127.127,0,0,0,.144-.144v-.082Zm1.046,0-.164.226.164.082H91.5a.5.5,0,0,1,.082-.226Zm-1.846.964h.144v-.144Q89.594-19.913,89.594-19.79Zm.656,5.024a.505.505,0,0,1,.287.082l.082-.164v-.062h-.226Q90.25-14.889,90.25-14.766Zm-.738-.082-.226.369a.522.522,0,0,1,.308.164h.144q.1,0,.226-.226A.41.41,0,0,0,89.512-14.848Zm10.192.738v.164h.369q.144,0,.144-.164l-.226-.144h-.144Q99.7-14.232,99.7-14.109Zm-1.189.164h.369q0-.164-.144-.164h-.082A.166.166,0,0,0,98.515-13.945ZM89.8-13.8v.144h.164V-13.8Zm9.536.062.144.226v.082h-.226l-.513.062v.082q.226,0,.226.082l.144-.082h.144q.082,0,.308.595H99.7a3.755,3.755,0,0,0,.738-.144v-.082a.45.45,0,0,1-.451-.287v-.226a.4.4,0,0,1-.431-.369A.622.622,0,0,1,99.335-13.74Zm-9.6.451v.082q.062.205.431.205l.082-.144v-.144a.127.127,0,0,0-.144-.144h-.226Q89.737-13.412,89.737-13.289ZM100.3-11.525l-.082.164v.205h.369a.505.505,0,0,0,.082-.287Zm-10.192.595q0,.308.964.513a1.3,1.3,0,0,0-.9-.513Zm.062,1.784A.166.166,0,0,0,90.332-9v-.144ZM90.7-7.978v.144h.287v-.144Zm.287.595a1.029,1.029,0,0,0,.82.513h.062Q91.87-7.116,90.988-7.383Zm.595,3.1.144.082a.127.127,0,0,0,.144-.144l-.144-.082Q91.583-4.409,91.583-4.286Zm34.78-30.434.082.164v2.666q0,.431.082,1.415l-.164.082-1.087-1.087v-.246a5.614,5.614,0,0,1-1.579-.82,6.119,6.119,0,0,0-.841-.185,5.1,5.1,0,0,0-3.753,2.092q-.246,1.169-.574,1.169v.082q.021.164.164.164a12.4,12.4,0,0,0-.164,1.579q0,4.717,4.737,10.582.185,0,.185.328a.073.073,0,0,0-.082.082q.533,0,2.563,2.83a10.023,10.023,0,0,1,2.256,4.491V-8a9.908,9.908,0,0,1-.492,3.671q-.267-.082-.267-.164-.328.123-.328.246.513.082.513.164a7.057,7.057,0,0,1-3.835,3.24h-.41q0,.595-3.261.841h-.164q-3.384,0-4.163-2.42L115.7-3.4q0-1.477,1-1.846.246.062.246.677v.082q-.41,0-.41.164.021.164.164.164l.41-.082q.574,3.076.841,3.076a5.931,5.931,0,0,0,1.989.41h.759q2.03,0,4.163-2.4a7.585,7.585,0,0,0,.492-2.42q0-3.281-3.507-9.249a.65.65,0,0,0,.082-.328q-.513,0-1.579-2.42-.205,0-.82-1.066v-.082l.164-.267v-.246l-.082-.41h-.082l-.595.082q-2.912-4.245-2.912-7.075v-.246q.123,0,.246-.267v-.082q-.164,0-.164-.082a8.6,8.6,0,0,1,2.01-4.819l.164.082a.145.145,0,0,0,.164-.164.63.63,0,0,1-.082-.246,2.945,2.945,0,0,1,1.169-.923,4.049,4.049,0,0,1,2.748-1.087q1.107.082,1.907.082h.492a.692.692,0,0,0,.349-.082.65.65,0,0,0,.328.082A2.806,2.806,0,0,1,126.363-34.72Zm-2.5.574v.185h.164v-.185Zm-2.01.595v.082h.185v-.082Zm-2.646,1.825v.082q.021.164.164.164l.41-.082a.145.145,0,0,0-.164-.164Zm-.923.923v.082a.65.65,0,0,1,.328.082l.082-.164Zm-1.251,2.666v.246a.145.145,0,0,0,.164-.164v-.082Zm1.169,0-.164.246.164.082h.082a.63.63,0,0,1,.082-.246Zm.164,2.153v.164a.63.63,0,0,1,.246-.082v-.082Zm-.492,3.425.164.082a.145.145,0,0,0,.164-.164l-.164-.082Q117.872-22.7,117.872-22.559Zm.984,1.5v.328h.246q.123,0,.267-.246l-.267-.164A.519.519,0,0,1,118.857-21.062Zm.082.082h.267v.164h-.1A.145.145,0,0,1,118.939-20.979Zm1.087.246-.082.164v.082l.082.164a.63.63,0,0,1,.246-.082v-.246A.63.63,0,0,1,120.026-20.733Zm-.656,1.579h.082v.164h-.082Zm.492.246v.185a.63.63,0,0,1,.246.082v-.082q0-.185-.164-.185Zm1.333.759v.164q.021.164.164.164l.164-.246-.164-.082Zm.574.328v.082a.145.145,0,0,0,.164-.164v-.082Q121.769-17.965,121.769-17.821Zm-.492.246v.267h.082q.164,0,.164-.185v-.082Zm1.415.267v.082h.246v-.082Zm-1.087.492v.164h.164A.145.145,0,0,0,121.6-16.816Zm.923,1.333a.65.65,0,0,0,.328.082h.41l.1-.41a.163.163,0,0,0-.185-.185h-.328Q122.528-15.914,122.528-15.483Zm1.251.164h.328v-.164h-.164Q123.779-15.463,123.779-15.319Zm-1.087.246v.164h.164v-.164Zm1.333.328q.021.185.164.185h.328q0-.185-.164-.185Zm-.923.513.164.082V-14.4Q123.1-14.376,123.1-14.232Zm1.928,0v.164h.164a.145.145,0,0,0,.164-.164v-.082h-.082A.63.63,0,0,1,125.03-14.232Zm-.513.328v.164h.267q0-.164-.185-.164Zm-.738.328v.164h.164v-.164Zm1.743,1.333v.164h.164v-.164Zm-.841,2.01v.164h.267a.145.145,0,0,0-.164-.164Zm2.338.246q.021.164.164.164h.082v-.164Zm.164,1.251v.082h.164q.513-.287.513-.431l-.164-.082h-.082Q127.491-9.167,127.183-8.736Zm-1.907-.349v.1l.082.164A.63.63,0,0,1,125.6-8.9v-.185Zm.82.841.431.082.082-.164a.145.145,0,0,0-.164-.164h-.082Q126.24-8.49,126.1-8.244Zm1.436.492v.082h.246a.519.519,0,0,1-.082-.246Q127.532-7.875,127.532-7.752Zm-.349.677a.63.63,0,0,1,.082.246h.267a.546.546,0,0,1-.1-.246Zm-1.333.164v.164h.082a.145.145,0,0,0,.164-.164Zm-.328,1.333v.164a.145.145,0,0,0,.164-.164Zm-.082,2.584v.164a.145.145,0,0,0,.164-.164ZM123.1-.923h.164v-.164Q123.1-1.066,123.1-.923Zm14.437-30.044a7.015,7.015,0,0,1,2.01.738h.082v.144q-.308,0-.308.226l.308.226h.205v-.308l-.062-.144h.062q.882.144,1.046.144l.287-.144a3.663,3.663,0,0,1,.677,2.071q-.1,0-.226.226a.2.2,0,0,1,.226.226q-.1,1.846-.369,1.846-.451,0-.882-1.333.062,0,.062-.082-.205-.082-.656-1.251-.759-.82-1.128-.82h-.738l-.287-.287h-.082l.082.144-.144.082h-1.271q-.759,1.928-.964,1.928-.1,0-.226.205.164.041.164.164a34.65,34.65,0,0,0-1.333,4.594q-.328.964-.451.964-.308.041-.308.226v.062l.451.369v.533a.671.671,0,0,1-.082.369l.082.369q-.451,6.029-.451,7.485A27.485,27.485,0,0,0,135.1-1.784a2.277,2.277,0,0,0,1.846.964,7.635,7.635,0,0,0,2.522-.656.773.773,0,0,0,.308.062.054.054,0,0,1,.062-.062l-.062-.144V-1.7q2.153-1.271,2.153-2.235a7.848,7.848,0,0,0,.513-2.133h.144a10.589,10.589,0,0,1,.595,4.143V-.882l-.082.144a1.637,1.637,0,0,1-.738-.595v-.144a.073.073,0,0,1,.082-.082.794.794,0,0,0-.451-.451h-.062A5.6,5.6,0,0,1,137.7,0q-4.04,0-6.091-5.045A18.644,18.644,0,0,1,131.1-9.5q0-.472.226-6.3h.062a.054.054,0,0,0-.062-.062q.595-7.731,1.189-9.413a7.457,7.457,0,0,1,1.62-4q1.415-1.559,1.7-1.559Q137.19-30.967,137.539-30.967Zm-1.251.431v.082q.021.144.144.144l.369-.082a.127.127,0,0,0-.144-.144Zm1.62.308.164.062h.062a.622.622,0,0,1-.062-.226Q137.908-30.352,137.908-30.229Zm.164.513v.082l.369.062v-.144q-.144,0-.144-.082A.5.5,0,0,1,138.072-29.716Zm-2.6,0v.082a.773.773,0,0,1,.308.062l.062-.144Zm.595.738.144.082v-.226Q136.062-29.1,136.062-28.978Zm5.045.144a.073.073,0,0,1-.082.082.5.5,0,0,1,.082.226h.287a.5.5,0,0,1,.082-.226Zm-5.414.308v.144h.144v-.144Zm-1.333,1.189v.205a.127.127,0,0,0,.144-.144v-.062Zm-1.415.513v.082q0,.1.226.205a.127.127,0,0,0,.144-.144v-.144Zm.595.451h.144v-.164A.149.149,0,0,0,133.539-26.373Zm-.369,2.358a4.133,4.133,0,0,0,.451.082v-.144q0-.164-.144-.164Q133.17-24.117,133.17-24.015Zm-.287.964q.062.226.144.226a.5.5,0,0,1,.226-.082v-.144a.127.127,0,0,0-.144-.144Q132.883-23.112,132.883-23.051Zm.062.9V-22h.226a.127.127,0,0,0-.144-.144Zm-.656,1.846v.082q0,.1.226.205v-.062Q132.514-20.18,132.289-20.3Zm1.025.964-.062.144h.226Q133.478-19.339,133.314-19.339Zm-1.025,2.153v.144h.226v-.144Zm.369.144q.021.144.144.144h.082v-.144Zm-1.107,5.558v.082h.287v.144h-.062a.5.5,0,0,0-.226-.082q0,.144.226.144a.62.62,0,0,1,.205-.062V-11.4q0-.164-.205-.164A.5.5,0,0,1,131.55-11.484Zm1.025.287-.062.164v.062q.021.144.144.144a.127.127,0,0,0,.144-.144v-.144A.5.5,0,0,1,132.576-11.2Zm-.8,1.128v.205l.287.082V-9.7l-.144.205v.082h.144q.1,0,.226-.226v-.431q0-.164-.144-.164h-.226A.149.149,0,0,0,131.776-10.069Zm.656.513v.144a.5.5,0,0,1,.226.082v-.082a.127.127,0,0,0-.144-.144Zm.738.369v.144h.082v-.144Zm-.656,1.046.144.062h.226a.127.127,0,0,0,.144-.144l-.226-.144Q132.514-8.265,132.514-8.142Zm-.82.574q0,.123.287.308h.164l.205-.144q-.1-.308-.205-.308h-.164A.471.471,0,0,1,131.694-7.567Zm1.333.369v.164h.226q0-.164-.144-.164Zm9.331,2.892v.226h.226v-.226Zm.451.595v.164h.144v-.164Zm-8.675.9v.144h.308q0-.144-.164-.144Zm5.7,1.7.164.062h.205v-.062a.127.127,0,0,0-.144-.144H140Q139.835-1.23,139.835-1.107Zm-4.225.287v.226a.5.5,0,0,1,.226-.082V-.738A.5.5,0,0,1,135.611-.82ZM161.9-30.68v.082a9.009,9.009,0,0,1-1.764,1.169v.943q0,2.789.964,11.833h-.082q.185,0,.308,4.758l-.082.144a.61.61,0,0,1,.082.308v.656h-.677v.062q.738.1.738.308,0,3.3.144,9.105,2.01.574,2.133.574v.144q-2.133.513-2.338.513-1.025-.062-1.989-.062l-.082-.144a4.57,4.57,0,0,0,.738-2.871v-.513q-.287-4.163-.287-6.973h.144v-.082a.689.689,0,0,1-.287-.513v-.431a6.55,6.55,0,0,0-.308-2.646l.082-.431q0-.164-.144-.164h-.287l-.308.226a3.78,3.78,0,0,1-1.025-.226,9.846,9.846,0,0,1-4.245,1.333q-.349,0-2.5.287.144,1.477.595,8.08-.164.021-.164.144l.226.287q.123,3.753.451,3.753.431.164.431.369h.144a.127.127,0,0,0,.144-.144,1.545,1.545,0,0,0,1.025.431l.226.287q-.062,0-.062.082l-4.553-.144V-.226a3.154,3.154,0,0,0,.738-1.969,75.441,75.441,0,0,1-.882-8.531h.062q-.144,0-.656-10.787-.082,0-.082-.205h.308v-.164h-.308v-.144l-.062-.882a.634.634,0,0,1,.287-.062v-.082q-.369,0-.369-.943l-.144-1.395h.082q.369,0,.369.144a.505.505,0,0,1,.287-.082v-.287q0-.164-.369-.226a.853.853,0,0,1-.369.144l-.226-1.682a.5.5,0,0,1,.226-.082v-.205q-.328,0-.431-1.395a3.846,3.846,0,0,0-1.251-.451l-.226-.431a.073.073,0,0,0,.082-.082l.144.082h.062a.5.5,0,0,1,.082-.226q2.543.226,3.384.226l.062.144v.144q0,.472-.062,1.107a2.476,2.476,0,0,1,.062.513l-.144.287q.144.021.144.144v.369q0,.636.082,1.989l-.369.062h-.082v-.144h-.144l-.082.369v.144a.166.166,0,0,0,.164.144h.062l.369-.287h.082l.882,11.013q.062,0,.062.082l5.722-1.189a.5.5,0,0,0,.226.082,7.2,7.2,0,0,1,2.194-.595q.082-.984.082-1.456v-1.025q0-1.312-.144-2.871.431-.205.431-.287v-.082l-.513.082v-.677l.082-.144q-.226,0-.369-3.3.1,0,.226-.205-.226,0-.226-.164v-1.025q0-2.974-.882-3.732V-30.6Q160.712-30.68,161.9-30.68Zm-15.2,1.025v.082h.164v-.082Zm2.44.144q0,.144-.451.226,0,.144.226.144a.886.886,0,0,1,.431-.144Q149.35-29.388,149.145-29.511Zm.205,2.215h.451l-.144-.226Q149.35-27.419,149.35-27.3Zm-.287.882a.5.5,0,0,0,.513.287q.164,0,.226-.369l-.369-.226Q149.1-26.578,149.063-26.414Zm-.431-.082h.205v-.144h-.062Q148.632-26.619,148.632-26.5Zm10.336.144v.144q0,.1.226.226h.144a.127.127,0,0,0,.144-.144v-.082a.127.127,0,0,0-.144-.144Zm.082,1.251.144.082h.226V-25.1q0-.144-.164-.144h-.062Q159.05-25.225,159.05-25.1Zm-10.213.964q.021.144.144.144h.082a.127.127,0,0,0,.144-.144v-.082Zm10.5.205a.913.913,0,0,0,.8.513h.082Q160.219-23.666,159.337-23.933Zm-9.762,2.42v.226h.226v-.062q0-.164-.144-.164ZM159.932-21v.082q.021.144.144.144h.062V-21Zm-9.762.677q.021.144.144.144l.062-.144ZM149.145-19.3q.021.144.144.144h.144v-.082l-.082-.144A.509.509,0,0,1,149.145-19.3Zm.943.513v.144q.144,0,.144.082a.61.61,0,0,1,.308-.082v-.144Zm10.213.431v.144h.205v-.144Zm-11.013.451h.287a.127.127,0,0,0-.144-.144Q149.289-18.026,149.289-17.9Zm10.418-.144-.144.205v.144a4.742,4.742,0,0,0,.738.164Q160.3-17.985,159.707-18.047Zm.8.205v.144h.144q.164,0,.164-.144Zm-10.644.451a.149.149,0,0,0,.164.144v-.144Zm.308.226v.144h.144v-.144Zm9.454.144v.144q0,.1.226.226h.226q.144,0,.144-.164v-.144a.127.127,0,0,0-.144-.144h-.082Zm-10.131.205v.164h.164v-.164Zm.677.738V-16q0,.144.513.287l.062-.144V-16q0-.1-.205-.226A.853.853,0,0,1,150.171-16.078Zm-1.107.595v.062h.144a.127.127,0,0,0,.144-.144v-.062h-.144Q149.063-15.606,149.063-15.483Zm10.787,0v.062l.369.082.082-.144q0-.144-.164-.144h-.144Q159.85-15.606,159.85-15.483Zm-.062,1.025q.021.144.144.144h.062v-.144Zm.349.595-.062.144v.062h.226v-.062Q160.3-13.863,160.137-13.863Zm-10.787.144v.062h.226v-.062Zm10.356.943v.144a.127.127,0,0,0,.144-.144Zm.369,1.7.144.062h.082a.127.127,0,0,0,.144-.144l-.144-.082h-.082A.166.166,0,0,0,160.076-11.074ZM149.8-9.475v.144h.062a.622.622,0,0,1,.226-.062v.062l-.062.164h.062q.144,0,.144-.164a.127.127,0,0,0-.144-.144Zm0,.226v.082h.144v-.082Zm.943.144a.622.622,0,0,1-.062.226l.144.082h.062a.145.145,0,0,0,.164-.164q0-.144-.164-.144Zm9.105.882v.082h.144a.127.127,0,0,0,.144-.144l-.144-.082Q159.85-8.347,159.85-8.224Zm-9.823.082v.369q.287,0,.287.144v.062h-.144v.226h.062q.308-.1.308-.226V-8q0-.144-.164-.144Zm10.562.513a.853.853,0,0,0,.369.144l.062-.144a.127.127,0,0,0-.144-.144h-.144Q160.588-7.752,160.588-7.629Zm-9.905.144v.144h.205a.127.127,0,0,0-.144-.144Zm9.68,1.025-.062.144h.349v-.062Zm-9.618.369.369.082h.082v-.308h-.226Q150.868-6.316,150.745-6.091Zm-.8.656a.809.809,0,0,0,.513.226l.082-.369-.164-.082h-.205Q150.068-5.66,149.945-5.435Zm.882,3.527q0,.1.226.226h.205q.164,0,.164-.144v-.082q0-.185-.308-.226Q150.827-2.01,150.827-1.907Zm21.8-28.9q2.112,0,3.753,3.24v.082h-.144v.144h.082l.144-.082a20.433,20.433,0,0,1,1.846,5.537q.431,2.42.431,2.5l-.369-.082a.622.622,0,0,1-.062.226l.144.082a.505.505,0,0,1,.287-.082,18.311,18.311,0,0,1,.226,2.3q-.369.185-.369.287.431.205.431.287v.226a10.991,10.991,0,0,0,.082,1.107.5.5,0,0,1-.226.082v.062l.226.308v1.025q0,.226-.287.226v.062a.548.548,0,0,1,.287.144l-.082.369q0,.7-.144,2.153h-.062q-.144,0-.144-.369h-.738l-.533.062v.082l.308.062a.622.622,0,0,1,.226-.062q.144.595.287.595h.369l.144-.082a.073.073,0,0,0,.082.082q-.328,1.764-.738,1.764v.062q0,.123.226.226-.328,1.559-.451,1.559h-.226v.205q.226,0,.226.164a18.52,18.52,0,0,1-.738,3.445,7.049,7.049,0,0,1-2.728,2.215A4.6,4.6,0,0,1,172.113,0a3.489,3.489,0,0,1-3.548-2.071q-1-1.415-1.62-8.982h.082a.5.5,0,0,0,.226.082q-.144-.308-.308-.308-.144-2.563-.144-4.04a.5.5,0,0,1,.226-.082v-.226q-.226,0-.226-.144v-1.107a1.046,1.046,0,0,1,.513-1.025q0-.123-.431-.369a28.49,28.49,0,0,1,1.087-7.444,10.113,10.113,0,0,0,1.477.144h.082v-.062a6.156,6.156,0,0,0-1.395-.226q0,.062-.082.062l-.082-.144q.492-1.682.9-1.682h.062a.551.551,0,0,1-.144-.308,5.181,5.181,0,0,1,1.333-1.764q0-.226.574-.226l-.062-.144Q170.636-30.434,172.626-30.8Zm-.656,1.7a.5.5,0,0,1-.082-.226h-.144l-.082.287a.5.5,0,0,1,.082.226q-.779,1.025-1.046,1.025a.127.127,0,0,0-.144-.144h-.144v.513q0,.082.287.226a17.179,17.179,0,0,0-1.395,5.086q-.144,0-.144-.226-.144.021-.144.144v.082q.226,0,.226.082a49.711,49.711,0,0,0-.533,6.911q0,1.518.164,4.143h-.451a.509.509,0,0,1-.082.205.9.9,0,0,0,.595.226,20.707,20.707,0,0,1,.082,2.071h-.226a1.016,1.016,0,0,1,.369.738l.226,2.276H169.3a10.76,10.76,0,0,0,.513,2.871q.82,1.7,1.928,1.7h.226q2.03,0,3.24-2.358.349,0,.943-2.5a.5.5,0,0,1,.226-.082V-6.05h-.144a13.854,13.854,0,0,0,.595-3.24.62.62,0,0,1,.205-.062v-.082q-.205,0-.205-.144a1.491,1.491,0,0,1,.205-.882l-.144-.082a37.239,37.239,0,0,0,.369-5.147V-16a41.976,41.976,0,0,0-.8-7.813.127.127,0,0,0,.144-.144v-.062a6.585,6.585,0,0,1-.82-2.358q-1.169-3.261-2.789-3.261A2.113,2.113,0,0,0,171.969-29.1Zm-2.071.062a.991.991,0,0,0,.595.308l.205-.369-.287-.226A.5.5,0,0,0,169.9-29.039Zm-.882.964a4.2,4.2,0,0,0,.595.144h.062q.144,0,.144-.226-.062-.287-.431-.287Q169.18-28.444,169.016-28.075Zm-.595,1.333.144.062h.144v-.062q0-.164-.144-.164A.166.166,0,0,0,168.422-26.742Zm1.333.062v.082h.144q.1,0,.226-.226H169.9Q169.755-26.8,169.755-26.681Zm-.308,2.133v.082a.149.149,0,0,0,.164.144v-.062A.145.145,0,0,0,169.447-24.548Zm-.431.369v.164h.144v-.164Zm7.67.308-.082.144h.226A.127.127,0,0,0,176.686-23.871Zm-7.978.738v.144a.622.622,0,0,1,.226.062v-.062a.127.127,0,0,0-.144-.144Zm-.943.513.369.062h.062V-22.7a.127.127,0,0,0-.144-.144Q167.765-22.743,167.765-22.62Zm1.025,1.025v.226h.226a.5.5,0,0,1-.082-.226Zm-1.251.144v.164h.287q0-.164-.144-.164Zm-.287,1.189v.144a.127.127,0,0,0,.144-.144Zm.369.964v.144h.431q0-.062-.226-.226A.509.509,0,0,1,167.622-19.3Zm10.828.369v.144q.021.144.144.144v-.287ZM167.683-17.76v.144q.021.144.144.144h.144a.509.509,0,0,1,.082-.205l-.144-.082Zm10.09.082a.166.166,0,0,0,.164.144v-.144Zm-9.5.287v.082h.144v-.082Zm9.352.287v.082h.226V-17.1Zm-9.721,2.153.369.062h.062v-.062q-.062-.226-.144-.226Q167.909-15.073,167.909-14.95Zm9.577-.164v.082q.144,0,.144.082a.5.5,0,0,1,.226-.082v-.082q-.144,0-.144-.062A.622.622,0,0,1,177.486-15.114Zm.513.82a.853.853,0,0,0,.369.144q.226-.082.226-.144a.5.5,0,0,1-.082-.226h-.062Q178-14.479,178-14.294Zm-10.459.226a.505.505,0,0,1,.082.287q.349,0,.349-.144a.622.622,0,0,1-.062-.226Zm10.4.205v.082a.548.548,0,0,1,.287.144q.021-.144.144-.144-.1-.287-.226-.287Q178.04-14.068,177.937-13.863Zm.431.677q0,.1.226.226.144,0,.144-.164v-.062a.127.127,0,0,0-.144-.144h-.082Q178.368-13.31,178.368-13.187Zm-10.685.062v.164h.144Q167.827-13.125,167.683-13.125Zm.287,1.046q.082.205.451.205l.144-.205v-.082a.127.127,0,0,0-.144-.144H168.2Q168.094-12.3,167.97-12.079Zm10.336.513v.062q.041,0,.431.082l.082-.144q0-.1-.226-.226h-.082Q178.409-11.792,178.306-11.566Zm-1.189,0v.062h.451v-.062a.5.5,0,0,1-.226-.082A.5.5,0,0,1,177.117-11.566Zm-8.7.226v.144a.622.622,0,0,1,.226.062V-11.2a.127.127,0,0,0-.144-.144Zm9.577.062v.144h.308v-.205h-.082A.622.622,0,0,1,178-11.279ZM167.97-10.172h.164v-.144Q167.97-10.295,167.97-10.172Zm8.859,1.395q0,.123.205.226v-.062q0-.164-.144-.164Zm0,.451V-8.1h.144a.127.127,0,0,0,.144-.144l-.144-.082Zm-9.434.287v.164h.144v-.164Zm.513.369v.226h.226Q168.135-7.547,167.909-7.67Zm.964.964v.144h.144v-.144Zm-.964,2.133v.144a.622.622,0,0,1,.226-.062v-.082Zm.369.226v.082q.144,0,.144-.164v-.062Q168.278-4.471,168.278-4.348Zm7.731.82-.062.144a.62.62,0,0,1,.205.062v-.062A.127.127,0,0,0,176.01-3.527Zm.082.718v.082h.226V-2.81Zm-.82.451h.226v-.226Q175.394-2.584,175.271-2.358ZM187.924-30.8q2.112,0,3.753,3.24v.082h-.144v.144h.082l.144-.082a20.433,20.433,0,0,1,1.846,5.537q.431,2.42.431,2.5l-.369-.082a.622.622,0,0,1-.062.226l.144.082a.505.505,0,0,1,.287-.082,18.311,18.311,0,0,1,.226,2.3q-.369.185-.369.287.431.205.431.287v.226a10.991,10.991,0,0,0,.082,1.107.5.5,0,0,1-.226.082v.062l.226.308v1.025q0,.226-.287.226v.062a.548.548,0,0,1,.287.144l-.082.369q0,.7-.144,2.153h-.062q-.144,0-.144-.369h-.738l-.533.062v.082l.308.062a.622.622,0,0,1,.226-.062q.144.595.287.595h.369l.144-.082a.073.073,0,0,0,.082.082q-.328,1.764-.738,1.764v.062q0,.123.226.226-.328,1.559-.451,1.559h-.226v.205q.226,0,.226.164a18.52,18.52,0,0,1-.738,3.445,7.049,7.049,0,0,1-2.728,2.215A4.6,4.6,0,0,1,187.411,0a3.489,3.489,0,0,1-3.548-2.071q-1-1.415-1.62-8.982h.082a.5.5,0,0,0,.226.082q-.144-.308-.308-.308-.144-2.563-.144-4.04a.5.5,0,0,1,.226-.082v-.226q-.226,0-.226-.144v-1.107a1.046,1.046,0,0,1,.513-1.025q0-.123-.431-.369a28.49,28.49,0,0,1,1.087-7.444,10.113,10.113,0,0,0,1.477.144h.082v-.062a6.156,6.156,0,0,0-1.395-.226q0,.062-.082.062l-.082-.144q.492-1.682.9-1.682h.062a.551.551,0,0,1-.144-.308,5.181,5.181,0,0,1,1.333-1.764q0-.226.574-.226l-.062-.144Q185.934-30.434,187.924-30.8Zm-.656,1.7a.5.5,0,0,1-.082-.226h-.144l-.082.287a.5.5,0,0,1,.082.226q-.779,1.025-1.046,1.025a.127.127,0,0,0-.144-.144h-.144v.513q0,.082.287.226a17.179,17.179,0,0,0-1.395,5.086q-.144,0-.144-.226-.144.021-.144.144v.082q.226,0,.226.082a49.711,49.711,0,0,0-.533,6.911q0,1.518.164,4.143h-.451a.509.509,0,0,1-.082.205.9.9,0,0,0,.595.226,20.707,20.707,0,0,1,.082,2.071h-.226a1.016,1.016,0,0,1,.369.738l.226,2.276H184.6a10.76,10.76,0,0,0,.513,2.871q.82,1.7,1.928,1.7h.226q2.03,0,3.24-2.358.349,0,.943-2.5a.5.5,0,0,1,.226-.082V-6.05h-.144a13.854,13.854,0,0,0,.595-3.24.62.62,0,0,1,.205-.062v-.082q-.205,0-.205-.144a1.491,1.491,0,0,1,.205-.882l-.144-.082a37.239,37.239,0,0,0,.369-5.147V-16a41.976,41.976,0,0,0-.8-7.813.127.127,0,0,0,.144-.144v-.062a6.585,6.585,0,0,1-.82-2.358q-1.169-3.261-2.789-3.261A2.113,2.113,0,0,0,187.268-29.1Zm-2.071.062a.991.991,0,0,0,.595.308L186-29.1l-.287-.226A.5.5,0,0,0,185.2-29.039Zm-.882.964a4.2,4.2,0,0,0,.595.144h.062q.144,0,.144-.226-.062-.287-.431-.287Q184.478-28.444,184.314-28.075Zm-.595,1.333.144.062h.144v-.062q0-.164-.144-.164A.166.166,0,0,0,183.72-26.742Zm1.333.062v.082h.144q.1,0,.226-.226H185.2Q185.053-26.8,185.053-26.681Zm-.308,2.133v.082a.149.149,0,0,0,.164.144v-.062A.145.145,0,0,0,184.745-24.548Zm-.431.369v.164h.144v-.164Zm7.67.308-.082.144h.226A.127.127,0,0,0,191.984-23.871Zm-7.978.738v.144a.622.622,0,0,1,.226.062v-.062a.127.127,0,0,0-.144-.144Zm-.943.513.369.062h.062V-22.7a.127.127,0,0,0-.144-.144Q183.063-22.743,183.063-22.62Zm1.025,1.025v.226h.226a.5.5,0,0,1-.082-.226Zm-1.251.144v.164h.287q0-.164-.144-.164Zm-.287,1.189v.144a.127.127,0,0,0,.144-.144Zm.369.964v.144h.431q0-.062-.226-.226A.509.509,0,0,1,182.92-19.3Zm10.828.369v.144q.021.144.144.144v-.287ZM182.981-17.76v.144q.021.144.144.144h.144a.509.509,0,0,1,.082-.205l-.144-.082Zm10.09.082a.166.166,0,0,0,.164.144v-.144Zm-9.5.287v.082h.144v-.082Zm9.352.287v.082h.226V-17.1Zm-9.721,2.153.369.062h.062v-.062q-.062-.226-.144-.226Q183.207-15.073,183.207-14.95Zm9.577-.164v.082q.144,0,.144.082a.5.5,0,0,1,.226-.082v-.082q-.144,0-.144-.062A.622.622,0,0,1,192.784-15.114Zm.513.82a.853.853,0,0,0,.369.144q.226-.082.226-.144a.5.5,0,0,1-.082-.226h-.062Q193.3-14.479,193.3-14.294Zm-10.459.226a.505.505,0,0,1,.082.287q.349,0,.349-.144a.622.622,0,0,1-.062-.226Zm10.4.205v.082a.548.548,0,0,1,.287.144q.021-.144.144-.144-.1-.287-.226-.287Q193.338-14.068,193.235-13.863Zm.431.677q0,.1.226.226.144,0,.144-.164v-.062a.127.127,0,0,0-.144-.144h-.082Q193.666-13.31,193.666-13.187Zm-10.685.062v.164h.144Q183.125-13.125,182.981-13.125Zm.287,1.046q.082.205.451.205l.144-.205v-.082a.127.127,0,0,0-.144-.144h-.226Q183.392-12.3,183.268-12.079Zm10.336.513v.062q.041,0,.431.082l.082-.144q0-.1-.226-.226h-.082Q193.707-11.792,193.6-11.566Zm-1.189,0v.062h.451v-.062a.5.5,0,0,1-.226-.082A.5.5,0,0,1,192.415-11.566Zm-8.7.226v.144a.622.622,0,0,1,.226.062V-11.2a.127.127,0,0,0-.144-.144Zm9.577.062v.144h.308v-.205h-.082A.622.622,0,0,1,193.3-11.279Zm-10.028,1.107h.164v-.144Q183.268-10.295,183.268-10.172Zm8.859,1.395q0,.123.205.226v-.062q0-.164-.144-.164Zm0,.451V-8.1h.144a.127.127,0,0,0,.144-.144l-.144-.082Zm-9.434.287v.164h.144v-.164Zm.513.369v.226h.226Q183.433-7.547,183.207-7.67Zm.964.964v.144h.144v-.144Zm-.964,2.133v.144a.622.622,0,0,1,.226-.062v-.082Zm.369.226v.082q.144,0,.144-.164v-.062Q183.576-4.471,183.576-4.348Zm7.731.82-.062.144a.62.62,0,0,1,.205.062v-.062A.127.127,0,0,0,191.308-3.527Zm.082.718v.082h.226V-2.81Zm-.82.451h.226v-.226Q190.692-2.584,190.569-2.358ZM197.623-30.8h.882a3.348,3.348,0,0,1,1.764.595v.226a1.193,1.193,0,0,0-1.025.513q0,1.189-.082,5.619-.656.082-.656.205,0,.226.287.226a.853.853,0,0,1,.369-.144v3.773q.226,4.43.226,6.419v1.025l-.062.369a.166.166,0,0,1,.144.164v.8a2.478,2.478,0,0,1-.082.677q.144,1.5.144,3.466l.082.369q-.1,0-.226.287h.226v.226q0,.226-.369.226v.144q.451,0,.451.144v.738l-.164.226q.185,0,.308.513a.5.5,0,0,1-.226.082,4.89,4.89,0,0,1,.595,2.153q.205.738.738.738a6.357,6.357,0,0,0,1.025.062q3.117-.185,3.117-1.025a4.084,4.084,0,0,1,.738-2.379h.144a7.165,7.165,0,0,1,.287,1.928q0,1.62-.513,1.62a19.041,19.041,0,0,1-4.43.82h-.882q-2.153-.164-2.153-.451.1,0,.226-.205,0-.164-.144-.164h-.082q-.1,0-.226.226.164.021.164.144h-.082q-.513,0-.513-.882V-3.917l.226-.287v-.082a.724.724,0,0,1-.308-.513v-.82h.226v-.144q-.226,0-.226-.144v-.677q0-.205.082-.205a.5.5,0,0,0-.082-.226q-.062-2.051-.062-3.4v-.8q0-.082.062-.082a5.75,5.75,0,0,1-.144-1.189h.369v-.062l-.144-.226-.144.062H197.4V-14.7h.144v-.226H197.4q0-2.215.144-9.146a.61.61,0,0,0,.082-.308l.513.082v.144q-.226,0-.226.144v.164a.6.6,0,0,0,.513-.369h.082V-24.3q-.882-.328-.882-.451h.062a1.736,1.736,0,0,1,.533.164.505.505,0,0,1,.287-.082v-.082q-.82-.205-.82-.369,0-.123.164-2.358l-.369-3.1v-.082Q197.5-30.8,197.623-30.8Zm1.107.82-.082.144.144.062h.082a.127.127,0,0,0,.144-.144Zm0,.513v.062h.226v-.062ZM198.5-26.8v.144a.622.622,0,0,1,.226.062V-26.8Zm-.226.882v.062h.226v-.062Zm.082,3.1h.226v-.144H198.5Q198.361-22.948,198.361-22.825Zm.369,2.133q.021.164.144.164h.082v-.164Zm-.738,1.866v.062q.021.144.144.144v-.062A.127.127,0,0,0,197.992-18.826Zm.144.574v.164h.369v-.082Zm-.369.308v.144h.226v-.144Zm.082,1.169a.509.509,0,0,1,.205.082l.082-.144v-.082h-.144Q197.849-16.9,197.849-16.775Zm.062.369v.164q.144,0,.144-.164Zm-.144.677q.021.144.144.144l.082-.144Zm.451.226v.062h.144v-.226A.166.166,0,0,0,198.218-15.5Zm.287,2.789-.226.308.226.144h.144q.1,0,.226-.226v-.062A.79.79,0,0,1,198.5-12.715Zm0,3.261v.144a.5.5,0,0,1,.226.082l.144-.226q-.144,0-.144-.082A.5.5,0,0,1,198.5-9.454Zm-.882.656.062.164a.5.5,0,0,1,.226-.082v-.144h-.062A.622.622,0,0,1,197.623-8.8Zm1.025,1.7h.369a.127.127,0,0,0-.144-.144h-.082Q198.649-7.219,198.649-7.1Zm-.8.308v.144h.144v-.144Zm.8.513v.144h.144A.127.127,0,0,0,198.649-6.275Zm-.369,1.62v.082l.513.062h.082q.1,0,.226-.226v-.287h-.451Q198.546-5.024,198.279-4.655Zm.226.451v.144a.127.127,0,0,0,.144-.144Zm.287.595v.144h.082a.127.127,0,0,0,.144-.144Zm.533.738v.144a.509.509,0,0,1,.205-.082v-.062Zm-1.046.738v.062h.144v-.062Zm.677,1.025v.082l.369.062h.369l.062-.369a.127.127,0,0,0-.144-.144h-.082A.605.605,0,0,0,198.956-1.107Zm1.169.226h.308v-.144h-.164Q200.125-1,200.125-.882Zm-.964.226v.144h.164V-.656Zm1.189.287v.144h.082V-.369Z" transform="translate(1479.271 648.126)"/>
  </g>
</svg>
