<svg xmlns="http://www.w3.org/2000/svg" xmlns:xlink="http://www.w3.org/1999/xlink" viewBox="0 0 79.8 24"><defs><style>.cls-1{fill:none;}.cls-2{clip-path:url(#clip-path);}.cls-3{fill:#fff;}</style><clipPath id="clip-path"><rect class="cls-1" width="79.8" height="24"/></clipPath></defs><title>Asset 1</title><g id="Layer_2" data-name="Layer 2"><g id="Layer_1-2" data-name="Layer 1"><g class="cls-2"><path class="cls-3" d="M14.06,10.1a2.31,2.31,0,0,0,.57-1.68,2.37,2.37,0,0,0-.51-1.73,2,2,0,0,0-1.48-.5H8.76v4.49h3.88a1.93,1.93,0,0,0,1.42-.58m1.18,5.14a2.63,2.63,0,0,0-.6-1.86A2.18,2.18,0,0,0,13,12.73H8.76v5.08H13a2.13,2.13,0,0,0,1.68-.67,2.76,2.76,0,0,0,.6-1.9m-.17-3.88v.05A3,3,0,0,1,17,12.83a5.43,5.43,0,0,1,.64,2.77,5.46,5.46,0,0,1-.28,1.79,3.68,3.68,0,0,1-.89,1.44,4.49,4.49,0,0,1-1.56,1,6.66,6.66,0,0,1-2.26.35H6.39V3.86H13a4.16,4.16,0,0,1,2.92,1A3.89,3.89,0,0,1,17,7.9,4.15,4.15,0,0,1,16.5,10a3.39,3.39,0,0,1-1.43,1.35M24,0H0V24H24Z"/><path class="cls-3" d="M62.53,12a7.73,7.73,0,0,0,.34,2.28,6,6,0,0,0,1,2,5,5,0,0,0,1.79,1.4,6.08,6.08,0,0,0,2.63.52,5.37,5.37,0,0,0,2-.33A4.4,4.4,0,0,0,71.74,17a4.33,4.33,0,0,0,1-1.36,5.37,5.37,0,0,0,.46-1.66h3.24a6.79,6.79,0,0,1-.73,2.67A6.65,6.65,0,0,1,74,18.69a7.63,7.63,0,0,1-2.5,1.36,9.93,9.93,0,0,1-3.16.48,10.2,10.2,0,0,1-3.82-.68A8.32,8.32,0,0,1,61.63,18a8.13,8.13,0,0,1-1.8-2.71A8.93,8.93,0,0,1,59.21,12a8.82,8.82,0,0,1,.62-3.28A8.08,8.08,0,0,1,61.63,6a8.49,8.49,0,0,1,2.86-1.84,10,10,0,0,1,3.82-.69,11.63,11.63,0,0,1,3,.38A8.55,8.55,0,0,1,73.8,4.94a5.92,5.92,0,0,1,1.74,1.75A5.36,5.36,0,0,1,76.36,9H73a5.3,5.3,0,0,0-.58-1.3,3.76,3.76,0,0,0-1-1A4.49,4.49,0,0,0,70.13,6a6.27,6.27,0,0,0-1.82-.24,6.08,6.08,0,0,0-2.63.52,4.93,4.93,0,0,0-1.79,1.41,5.87,5.87,0,0,0-1,2A7.73,7.73,0,0,0,62.53,12M79.8,0h-24V24h24Z"/><path class="cls-3" d="M41.86,10.1a2.31,2.31,0,0,0,.57-1.68,2.37,2.37,0,0,0-.51-1.73,2,2,0,0,0-1.48-.5H36.56v4.49h3.88a1.93,1.93,0,0,0,1.42-.58M43,15.24a2.63,2.63,0,0,0-.6-1.86,2.18,2.18,0,0,0-1.68-.65h-4.2v5.08h4.2a2.13,2.13,0,0,0,1.68-.67,2.76,2.76,0,0,0,.6-1.9m-.17-3.88v.05a3,3,0,0,1,1.9,1.42,5.43,5.43,0,0,1,.64,2.77,5.46,5.46,0,0,1-.28,1.79,3.68,3.68,0,0,1-.89,1.44,4.49,4.49,0,0,1-1.56,1,6.66,6.66,0,0,1-2.26.35H34.19V3.86h6.59a4.16,4.16,0,0,1,2.92,1,3.89,3.89,0,0,1,1.11,3A4.15,4.15,0,0,1,44.3,10a3.39,3.39,0,0,1-1.43,1.35M51.8,0h-24V24h24Z"/></g></g></g></svg>