<svg xmlns="http://www.w3.org/2000/svg" viewBox="0 0 690.47 233.75"><defs><style>.cls-1{fill:#fff;}</style></defs><title>Asset 1</title><g id="Layer_2" data-name="Layer 2"><g id="Layer_1-2" data-name="Layer 1"><path class="cls-1" d="M74.21,89.24a6.24,6.24,0,0,1,.69,3c.22,0,.22.22.22.68a5.86,5.86,0,0,1-.91,2.28,4.92,4.92,0,0,1-2,2.27,15.5,15.5,0,0,1-2.73,1.14A99.5,99.5,0,0,1,58.51,102a89.83,89.83,0,0,1-11.61,1.82,13.38,13.38,0,0,0-3,.22,3.68,3.68,0,0,0-2.51,1.14c-.45.69-1.14,1.37-1.59,2A16.67,16.67,0,0,0,38.7,110a95.93,95.93,0,0,0-5,21.86,111.48,111.48,0,0,0,.46,23,31.13,31.13,0,0,0,19.35,2.28c6.83-1.6,12.52-4.79,16.62-9.79a2.68,2.68,0,0,1,2.73,2.05,6.36,6.36,0,0,1,0,4.09,4.91,4.91,0,0,1-2,3.19c-1.14.68-2.28,1.37-3.19,2-3,1.59-6.15,3.41-9.56,5.24a40.09,40.09,0,0,1-10,3.41,27.91,27.91,0,0,1-6.14.68,39.28,39.28,0,0,1-10-1.36,43.73,43.73,0,0,1-14.57-8A51.24,51.24,0,0,1,6.83,145.92a49.15,49.15,0,0,1-5.46-15.25A60.26,60.26,0,0,1,0,118.15c0-1.82.23-3.42.23-5.24A69.89,69.89,0,0,1,4.1,96.75a44.77,44.77,0,0,1,18-21.85,35,35,0,0,1,18.9-5A47.63,47.63,0,0,1,52.13,71a18.44,18.44,0,0,1,3.87.91,19.84,19.84,0,0,1,3.42,1.13A23.25,23.25,0,0,1,69,79.22,20.21,20.21,0,0,1,74.21,89.24Zm-9.33-5A14.94,14.94,0,0,0,59.19,81a19.44,19.44,0,0,0-7.06-1.36c-1.82,0-3.19,0-3.64.45-.23,0-.68.91-1.14,2.28a11.29,11.29,0,0,0-.45,2.73,5.23,5.23,0,0,1-.69,2c-.23.91-.68,2.5-1.59,5.23a14.29,14.29,0,0,0-.68,3.42c0,.23.22.45.22.68H48a84.76,84.76,0,0,0,10.7-3.41c5-2,7.74-3.42,8.2-3.87a4.63,4.63,0,0,0,.68-1.82c0-.46,0-.69-.23-.69A6.26,6.26,0,0,0,64.88,84.23Z"/><path class="cls-1" d="M80.71,112A48.74,48.74,0,0,1,96.87,82.86c9.11-8,19.58-10.7,31.65-8l2.73.68a11,11,0,0,0,2.73-.23,3.22,3.22,0,0,0,1.82-1.59L137.17,71a13.28,13.28,0,0,1,7.05-2,14.49,14.49,0,0,1,4.33.68,54,54,0,0,1,11.61,4.55,38.46,38.46,0,0,1,5.23,3,8.93,8.93,0,0,1,4.1,4.56,12,12,0,0,1,2,6.82,34.17,34.17,0,0,1,.46,6.83c-.23,10.48-.46,21-.69,31.65,0,10.47-.22,20.94-.68,31.64v3.19a5.39,5.39,0,0,1-1.14,3,6.48,6.48,0,0,1-3.87,3,13.78,13.78,0,0,1-3,.45c-.45,0-1.14-.23-1.82-.23A22.24,22.24,0,0,1,147.18,161,34.55,34.55,0,0,1,139,147.51a104.81,104.81,0,0,1-7.51,12.07,19.71,19.71,0,0,1-11.16,7.74,20.35,20.35,0,0,1-14.8-2.28,42.38,42.38,0,0,1-11.83-10,98.35,98.35,0,0,1-7.06-10.93,50.16,50.16,0,0,1-4.1-11.61,68.31,68.31,0,0,1-1.82-9.79c0-1.82-.23-3.41-.23-5.23S80.71,113.82,80.71,112Zm34.6,40.52a3.55,3.55,0,0,1,1.6,1.6,2.88,2.88,0,0,0,1.59.91c1.82,0,4.55-1.82,7.74-5.47A43.93,43.93,0,0,0,134,138.18a12.49,12.49,0,0,0,1.59-5.46V132c0-2-.22-6.61-.91-13.66-.23-4.56-.45-8.88-.45-13,0-4.55-.23-7.51-.23-8.88.68-5.46.91-8.65.45-9.79-.22-1.36-1.82-2.27-4.78-3.18-2-.91-3.41-1.6-4.32-1.6h-.23a4.29,4.29,0,0,0-2.28.91,16.83,16.83,0,0,0-5.46,8c-.68,3-1.82,7.29-3.19,13.2a42.49,42.49,0,0,0-.91,7.52c-.22,3.18-.45,6.6-.68,10.47v3.64c0,4.55.23,9.33.46,13.89A61.36,61.36,0,0,0,115.31,152.52Z"/><path class="cls-1" d="M221.4,143.87a17.55,17.55,0,0,0-1.6-9.79,30.93,30.93,0,0,0-5.46-8.65,49,49,0,0,0-6.83-6.83c-2.28-2.27-4.78-4.55-7.06-7a38.34,38.34,0,0,1-5.46-8.43,22.94,22.94,0,0,1-2.05-9.33,14.81,14.81,0,0,1,.68-4.55c.69-1.6,1.37-3,1.83-4.33A26.12,26.12,0,0,1,206.6,73.3a20.91,20.91,0,0,1,11.15-3.18,25.56,25.56,0,0,1,4.1.22,19.37,19.37,0,0,1,12.3,9.79c3.18,5.24,3.41,10.25,1.13,15,0,.22,0,.45-.45.91-.23.22-.46.45-.91.91a3.08,3.08,0,0,1-3.65.23,13.32,13.32,0,0,1-2.5-3.42,9,9,0,0,1-.91-4.1,11.46,11.46,0,0,0-.45-4.1,7.23,7.23,0,0,0-3.87-5,7.73,7.73,0,0,0-6.38-.69,30.66,30.66,0,0,0,2.05,12.75A69.46,69.46,0,0,0,224.58,104a76.21,76.21,0,0,0,7.74,9.79,91.45,91.45,0,0,1,8.65,9.79,52.57,52.57,0,0,1,8.2,13,17,17,0,0,1,2.28,8.65,17.51,17.51,0,0,1-.91,5.69,20.48,20.48,0,0,1-3.19,5.69c-1.37,1.59-3.19,3.19-5,5a42.76,42.76,0,0,1-18.67,8.65,38,38,0,0,1-7.28.68,40.79,40.79,0,0,1-12.75-2.27,38.83,38.83,0,0,1-15.93-12.52,33.91,33.91,0,0,1-6.38-19.35c0-.91.23-1.83.23-2.74a5.26,5.26,0,0,1,1.14-2.27,3.75,3.75,0,0,1,3.41-1.14,6.93,6.93,0,0,1,3.64,1.82,7.65,7.65,0,0,1,2.05,3.19c.46,1.14.69,2.5,1.14,3.87a45.06,45.06,0,0,1,.91,5.46,25.25,25.25,0,0,0,2.05,5.24,11.7,11.7,0,0,0,6.83,5.23,12.05,12.05,0,0,0,8.42-.91,16.28,16.28,0,0,0,6.6-4.1A12.66,12.66,0,0,0,221.4,143.87Z"/><path class="cls-1" d="M286.4,220.82c-6.6-1.37-12.07-3.87-16.39-8-4.1-4.33-6.83-7.06-7.74-8.2a9.78,9.78,0,0,0-1.37-2.27,4,4,0,0,1,0-2.28c.69-2.28,1.37-3.41,2.28-3.87s1.82-.45,3.19.46c.91.22,2.05.45,3.41.91a23.32,23.32,0,0,1,3.87,1.14,13.69,13.69,0,0,0,7.06-.92,20,20,0,0,0,6.37-5.23,94.21,94.21,0,0,0,8.2-12.29c3.18-5.47,5-9.34,5.23-11.16.23-.91.46-2,.69-3.41a50,50,0,0,0-6.83-1.14,50.25,50.25,0,0,1-6.6-2.28,39.32,39.32,0,0,1-6.15-4.55c-1.6-1.82-3.19-3.42-5-5.24a39,39,0,0,1-3.64-4.09,40.35,40.35,0,0,0-3-3.19,18.55,18.55,0,0,0-2.28-3c-1.36-1.37-2.5-3.87-3.87-7.74-.91-4.1-2.05-8.42-3.18-13.43-1.37-7.51-2.28-15-3.19-22.31-.68-7.51-1.14-12.29-1.37-14.12a26.09,26.09,0,0,1,.46-3.64,28.68,28.68,0,0,0,.23-4.32,20.84,20.84,0,0,1,2.27-7.51,5,5,0,0,1,4.55-2.51c1.83,0,4.79.68,9.11,2.28a31.82,31.82,0,0,1,9.56,4.32,31.15,31.15,0,0,1,7.51,6.6,23.73,23.73,0,0,1,5.92,6.83c.46.69.69,2.73.91,6.15.46,3.19.46,8.88.46,16.62q0,14.34.68,21.17c.46,4.32,1.14,6.6,2.05,7.06.46.22,1.59-.23,3.42-1.14A12.94,12.94,0,0,0,307.8,133a7.76,7.76,0,0,0,2.27-3.65,40.85,40.85,0,0,0,2.51-6.37c1.82-4.55,3-8,3.87-10.7.91-3,2.5-8.88,4.78-17.53a67.08,67.08,0,0,0,2.5-8.88c.69-2.73,1.14-4.09,1.6-4.32a7.77,7.77,0,0,1,.68-3,26.09,26.09,0,0,0,1.14-3.87c.91-2.28,1.36-3.64,1.59-4.1.46-.45,1.14-.45,2.51-.45a9.31,9.31,0,0,1,5.46,2.95c2.28,1.6,3.64,3.87,4.55,7.06a33.21,33.21,0,0,1,2.73,5,53.19,53.19,0,0,1,3.42,5.69c1.14,1.37,2.73,5.24,4.78,11.38.91,2.28,1.14,5.24,1.14,8.88a111,111,0,0,1-3.19,23.9c-.46,2.28-.68,4.33-.91,6.38-.23,1.82-.46,3-.46,3q0,.67-1.36,6.83c-.91,4.09-1.82,8.42-3,13.2-.68,3.19-1.37,6.15-2.28,9.11a31.94,31.94,0,0,1-2.27,7.05,106.88,106.88,0,0,1-5.47,13.66,43.46,43.46,0,0,1-5.92,10.47,28.74,28.74,0,0,1-6.14,6.61,62.45,62.45,0,0,1-9.79,6.14,53.78,53.78,0,0,1-9.79,3C300.29,220.59,294.82,220.82,286.4,220.82Z"/><path class="cls-1" d="M370.86,83.55a28.79,28.79,0,0,1,10.47-7.29,41.91,41.91,0,0,1,13-3.41,27.14,27.14,0,0,1,4.32-.23,53.11,53.11,0,0,1,8.42.68,23.49,23.49,0,0,1,11.84,4.56,12.91,12.91,0,0,1,3.42,3.64,7.18,7.18,0,0,1,1.59,4.78,5.87,5.87,0,0,1-1.82,4.55A4.28,4.28,0,0,1,417.52,92a5.79,5.79,0,0,1-2.27-1.82,8.61,8.61,0,0,0-2.05-2.05,5.83,5.83,0,0,0-2.28-1.59,2.41,2.41,0,0,0-2.73.22A7.39,7.39,0,0,0,407.05,89c0,.91-.22,1.59-.22,2.28a123.56,123.56,0,0,1-4.1,29.13,68.83,68.83,0,0,0-.91,29.83,16.3,16.3,0,0,0,.45,3,10.83,10.83,0,0,0,2.05,2.73,4.48,4.48,0,0,0,3.42,1.14,14.07,14.07,0,0,0,3.64-1.14,23.9,23.9,0,0,1,2.73-2.28,13.08,13.08,0,0,0,2.28-3c1.59-2.27,3.18-4.32,4.78-6.6s3.18-4.33,4.78-6.6a2.18,2.18,0,0,1,2.5,2.5,6.28,6.28,0,0,1,.23,2.05,9.32,9.32,0,0,1-.23,2.51,81.9,81.9,0,0,1-4.55,8.87,27.8,27.8,0,0,1-6.38,7.52,28.52,28.52,0,0,1-8.65,5,21.82,21.82,0,0,1-7.51,1.37h-2.05a60.14,60.14,0,0,1-8.19-3.19c-2.28-1.59-4.78-3.41-7.06-5.23a65.25,65.25,0,0,1-18-26.64,59.27,59.27,0,0,1-2.28-31.41c.68-2,1.37-3.87,2.05-5.69a42.6,42.6,0,0,1,2.28-5.7,9.44,9.44,0,0,0,.91-2.73A25.09,25.09,0,0,1,370.86,83.55Z"/><path class="cls-1" d="M465.56,164.82a17.39,17.39,0,0,1-3.64-.46,11,11,0,0,0-3.19-.91,22.18,22.18,0,0,1-8.2-5,39.4,39.4,0,0,1-6.37-8.19,60,60,0,0,1-6.38-19.58,79.74,79.74,0,0,1-.68-9.79,54.67,54.67,0,0,1,.68-8.88,176.55,176.55,0,0,1,5-18.44,35,35,0,0,1,9.11-14.11,21.24,21.24,0,0,1,8.65-5.69c3.41-1.14,6.83-2.28,10-3.19a21.47,21.47,0,0,1,6.83-1.14,31.76,31.76,0,0,1,6.37.69c5.69.91,10,2.27,13,4.32A20.34,20.34,0,0,1,504,81.73a35.5,35.5,0,0,1,4.1,9.56,78.51,78.51,0,0,1,4.78,27.31c0,2.28,0,4.56-.23,7.06a50,50,0,0,1-13.43,31.19A20.38,20.38,0,0,1,494,161.4a22.89,22.89,0,0,1-6.37,3,25.19,25.19,0,0,1-5.92,1.37c-1.82,0-3.87.22-5.92.22a41.14,41.14,0,0,1-4.78-.45Zm24.36-16.39a35.15,35.15,0,0,0,10.47-11.16,46,46,0,0,0,5.46-15,16.91,16.91,0,0,0,.46-4.78A55.29,55.29,0,0,0,504,102.21c-1.82-7.74-5.46-13-10.93-16.16a5.16,5.16,0,0,0-3.64-1.37h-.68a5,5,0,0,0-3,.91c-.46.46-.91,1.14-1.37,1.6a4.66,4.66,0,0,0-.91,1.82,63.36,63.36,0,0,0-6.6,28.68v.23a64.84,64.84,0,0,0,6.37,28l1.37,2.05a2.94,2.94,0,0,0,2.28.91c1.13,0,1.82-.23,2.27-.23A1,1,0,0,0,489.92,148.43Z"/><path class="cls-1" d="M549.56,164.82a17.39,17.39,0,0,1-3.64-.46,10.84,10.84,0,0,0-3.19-.91,22.18,22.18,0,0,1-8.2-5,39.4,39.4,0,0,1-6.37-8.19,59.8,59.8,0,0,1-6.37-19.58,78,78,0,0,1-.69-9.79,53.53,53.53,0,0,1,.69-8.88,174.27,174.27,0,0,1,5-18.44,35.26,35.26,0,0,1,9.11-14.11,21.24,21.24,0,0,1,8.65-5.69c3.42-1.14,6.83-2.28,10-3.19a21.52,21.52,0,0,1,6.83-1.14,31.68,31.68,0,0,1,6.37.69c5.69.91,10,2.27,13,4.32A20.34,20.34,0,0,1,588,81.73a35.5,35.5,0,0,1,4.1,9.56,78.28,78.28,0,0,1,4.78,27.31c0,2.28,0,4.56-.23,7.06a50,50,0,0,1-13.43,31.19A20.38,20.38,0,0,1,578,161.4a22.76,22.76,0,0,1-6.37,3,25.19,25.19,0,0,1-5.92,1.37c-1.82,0-3.87.22-5.92.22a41.14,41.14,0,0,1-4.78-.45Zm24.36-16.39a35.15,35.15,0,0,0,10.47-11.16,46,46,0,0,0,5.46-15,16.91,16.91,0,0,0,.46-4.78A55.29,55.29,0,0,0,588,102.21c-1.82-7.74-5.46-13-10.93-16.16a5.16,5.16,0,0,0-3.64-1.37h-.68a5,5,0,0,0-3,.91c-.46.46-.91,1.14-1.37,1.6a4.66,4.66,0,0,0-.91,1.82,63.36,63.36,0,0,0-6.6,28.68v.23a64.7,64.7,0,0,0,6.38,28l1.36,2.05a2.94,2.94,0,0,0,2.28.91c1.14,0,1.82-.23,2.27-.23A1,1,0,0,0,573.92,148.43Z"/><path class="cls-1" d="M647.45,37.56V95.61c3-5,5.92-9.79,9.1-14.8s6.38-9.78,9.11-14.56a14,14,0,0,1,2.05-2.74,5.85,5.85,0,0,1,2.5-1.82c2.73-.45,4.55.91,5.46,3.64a13.68,13.68,0,0,1,.46,8A77.93,77.93,0,0,1,671.8,87a80.67,80.67,0,0,1-6.82,13.2c-.23.46-.69,1.14-1.14,2a4.59,4.59,0,0,0-.69,2.51,7.53,7.53,0,0,0,.69,3.41,14.79,14.79,0,0,1,1.82,3.19c4.1,5,8.19,12.29,12.52,21.63q6.83,13.65,10.93,22.53a6.7,6.7,0,0,1,1.36,3.87v.91a9.07,9.07,0,0,1-.68,3.19,4.81,4.81,0,0,1-3.64,1.37,9,9,0,0,1-4.1-.91,9.31,9.31,0,0,1-3.19-2.74c-.68-1.36-1.36-2.5-2.05-3.64-3-5.46-6.37-12.52-10.47-21.4s-7.51-16.16-10.47-21.62c-4.1,0-7.06,2-8.88,6.6a60.37,60.37,0,0,0-3,12.29c-.23,3.64-.45,7.06-.45,10.7a87.29,87.29,0,0,1-.69,10.93c-.22,1.14-.45,2.5-.68,3.87a13.13,13.13,0,0,1-1.37,3.87c-1.59,2.5-4.09,4.09-7.51,5-.91,0-2.05.22-3.18.22a13.56,13.56,0,0,1-6.15-1.36,22.89,22.89,0,0,1-10.47-8.2,53.47,53.47,0,0,1-5.92-12.06,63.29,63.29,0,0,1-1.6-13V130c0-3.42.23-6.83.23-10.25.69-15.93,1.37-31.87,2-47.58.68-15.93,1.37-31.64,1.82-47.12a52.86,52.86,0,0,0,0-12.06c0-4.1.69-7.29,2.28-9.56A7.12,7.12,0,0,1,616,.68,10.78,10.78,0,0,1,619.9,0a11,11,0,0,1,2.73.23c4.56.68,8.88,3,13,6.6s7.06,7.74,8.42,12.29a3.23,3.23,0,0,0,.46,1.37,5.21,5.21,0,0,1,.22,2.05,18.85,18.85,0,0,1,1.37,7.28A54.92,54.92,0,0,0,647.45,37.56Z"/><path class="cls-1" d="M251.33,29.81h.86c2.26,0,3.82.4,4.67,1.2l-.13.2v.06h.33l-.07-.13h.07a7,7,0,0,1,1.13,1.54,3.6,3.6,0,0,1,1.2,2.73,20.77,20.77,0,0,1,.33,2.19.46.46,0,0,1-.27.15V38c.22,0,.33.14.33.41v.39c0,.06-.07.13-.2.2a1.49,1.49,0,0,0,.27.41s0,.05-.07.05l.07.34v1.27l-.27.26c.18.19.27.32.27.41a6.63,6.63,0,0,1-1.46,4.66.49.49,0,0,0-.2.06l.05.15a5.41,5.41,0,0,1-1.79,1.53h-.2c0,.24-.89.54-2.67.93a1.1,1.1,0,0,1,.21.46s-.06,0-.06.07a34,34,0,0,1,2.46,4.66,3.38,3.38,0,0,0,2.05,1.26c.83,0,1.72-.6,2.69-1.79H261v.13q-.5,3.27-2.4,3.27a2.52,2.52,0,0,0-.6.06,3.36,3.36,0,0,1-3.4-2.39,49.89,49.89,0,0,0-1.92-4.66v-.21h-.34c0-.08,0-.12-.07-.12-.53,0-.86.93-1,2.79,0,2.61.25,3.92.74,3.92,0,.14.3.25.8.33a1.67,1.67,0,0,1,.27.41,25.75,25.75,0,0,1-3.2.33c0-.05,0-.07-.07-.07l.67-1.39c-.05-1-.08-1.63-.08-2q-.24-23.4-.59-23.4l-.33-.79s.07,0,.07-.06C250.34,29.83,250.94,29.81,251.33,29.81Zm-.87,12.65v.15h.13v-.15Zm.2-6.38v.18a.71.71,0,0,1,.2,0v-.07A.53.53,0,0,1,250.66,36.08Zm0,13.39a1.48,1.48,0,0,0,.54.13.82.82,0,0,0,.05-.28l-.13,0h-.07C250.79,49.29,250.66,49.36,250.66,49.47Zm.26-2.61V47h.13v-.13Zm.13-16c0,.89-.06,1.55-.06,2v1.66c0,1.33.11,3.76.34,7.27q-.14,4.2-.13,6.07c0,.22,0,.66.05,1.33a35,35,0,0,0,4.4-1.41c0,.09.09.13.26.13v.08l-.13.2v.06h.13c.08,0,.14-.07.21-.21v-.13l-.06-.46a3.8,3.8,0,0,0,1.72-2.28,1.44,1.44,0,0,1,.61-1.38s.06,0,.06-.08v0c-.26,0-.39-.07-.39-.2,0-.76.05-1.34.05-1.74v-.34h.08l.33.08v-.08c-.31-.11-.46-.58-.46-1.4a51.85,51.85,0,0,0-.87-5.79q-1.2-3.41-2.94-3.41h-.33C253.38,30.73,252.43,30.76,251.05,30.81Zm3.2,21.38v.13h.28v-.13Zm2.48-19.64v.05q0,.09.18.21c.1,0,.15-.05.15-.13v-.13Zm.51.39h.15v-.13C257.29,32.82,257.24,32.86,257.24,32.94Zm.21,14.18h.13c.1,0,.15,0,.15-.13h-.15C257.49,47,257.45,47.05,257.45,47.12Zm.4-9.65a.44.44,0,0,1,.26.07l.08-.13v-.07H258C257.9,37.35,257.85,37.39,257.85,37.47Zm.8-.93.13.06a.12.12,0,0,0,.13-.13l-.13-.06C258.69,36.42,258.65,36.47,258.65,36.54Zm.13,7.53c0,.09.06.13.13.13l.07-.13Zm.33,11.86v.2c.09,0,.13,0,.13-.13Zm.21-12.65h.26v-.15h-.13A.14.14,0,0,0,259.32,43.28Zm.13-4.41V39h.07v-.13Zm.07-1.07h.13v.13C259.56,37.93,259.52,37.89,259.52,37.8Z"/><path class="cls-1" d="M271.12,29.9c3.72,0,5.57.2,5.57.59V31c-.1,1.78-.32,2.75-.66,2.9a2.15,2.15,0,0,1-.34-1.26V31.16h-.07c-3.44,0-5.36.05-5.75.05a.51.51,0,0,1-.21.08c0-.06-.06-.13-.2-.21v.21h-1.13c-.13,0-.31,1-.52,2.9a24.91,24.91,0,0,0-.2,3.39c0,.45.06.72.06.79h-.47v.13h.47c0,1,.07,1.66.07,2.13v.06q-.54.08-.54.27c.41,0,.61.38.61,1.13q0,2.31.6,2.31a11.85,11.85,0,0,0,1.46.21c.55-.84.93-1.26,1.13-1.26h.18c.28,0,.53.66.74,2v.79c0,.72-.07,1.08-.2,1.08s-.07-.15-.21-.15a.59.59,0,0,1-.33.15c-.44-.21-.67-.46-.67-.74l.34.07c.06,0,.13-.07.2-.2s-.18-.21-.54-.33a.53.53,0,0,1-.18.07c0-.15-.29-.24-.87-.28H268.2v3.85l-.39.07v.13l.39.06v3.38c-.22.2-.33.31-.33.34a2,2,0,0,0,.33.33v2.18l.08.67q7.71-.72,7.8-.8a3.4,3.4,0,0,0,.34-1.46q.27-.39.33-.39h.13a1,1,0,0,1,.53.85c-.14,1.11-.41,1.67-.79,1.67a32.7,32.7,0,0,1-7.55.92c-1.28,0-2.1-.26-2.46-.79a4.75,4.75,0,0,1-.66-2.65v-.33c0-.4.09-2.12.27-5.18v-2.9h.13v-.21a.4.4,0,0,1-.2-.07q-.07-5.07-.08-7.14c0-.72,0-2.15.08-4.31a.57.57,0,0,1-.08-.28c.21,0,.33-.14.34-.26h-.13l-.13.08-.08-.15v-.26l-.05-.67c.09,0,.13,0,.13-.13v-.05a1.21,1.21,0,0,1-.26-.87h.18c0-.09,0-.13-.12-.13a.12.12,0,0,1-.13.13,4,4,0,0,0-.47-1.13v-.07A38.75,38.75,0,0,1,271.12,29.9ZM266,53.23c0,.15.26.3.79.46a.91.91,0,0,0-.74-.46Zm.26-21.74a.44.44,0,0,0,.46.26h.07a.48.48,0,0,1,.13-.26c0-.1-.13-.19-.33-.28C266.41,31.3,266.3,31.39,266.28,31.49Zm0,9.86v.08h.2v-.21h-.07C266.32,41.23,266.28,41.28,266.28,41.35Zm.07-3.36.13,0c.09,0,.13,0,.13-.13l-.13-.07A.15.15,0,0,0,266.35,38Zm.13,1v.13h.26c0-.09,0-.13-.13-.13Zm.06-8.34h.4c0-.1,0-.15-.13-.15h-.12Q266.54,30.57,266.54,30.7Zm0,12.24V43h.15v-.08Zm0,12.93V56h.2v-.13Zm.15-15.78-.08.13.13.08.07-.13Zm0-7.62v.47c0,.09.05.14.12.14h.06c.09,0,.22-.16.41-.48,0,0-.08,0-.08-.05l-.13.05h-.2v-.13Zm.05,3.46v.19h.07a.12.12,0,0,0,.13-.13l-.13-.06ZM266.87,48v.06H267V48Zm.07-1.2v.13l.13-.06c.09,0,.13.06.13.13s-.05,0-.05.06h.13a.76.76,0,0,1,.05-.19l-.13-.07Zm0,.2v.06h.13V47Zm.08-7.36v.13h.13v-.13Zm.05-9.47v.13h.08a.12.12,0,0,0,.13-.13Zm0,18c0,.05.11.16.34.34-.07,0-.13.06-.21.18a.07.07,0,0,1,.08.07c.19-.08.31-.17.33-.25v-.15l-.07-.32h-.34A.13.13,0,0,0,267.07,48.12Zm0,2.26c0,.11.14.2.41.26l.13-.21-.2-.26ZM267.28,37v0h.2v0Zm0,2.84V40h.13v-.13Zm.46,7.42c0,.09.06.13.13.13h.07c.09,0,.13,0,.13-.13a.12.12,0,0,0-.13-.13h-.07C267.78,47.14,267.74,47.18,267.74,47.25Zm0,1.26v.2h.2C267.94,48.65,267.88,48.58,267.74,48.51Zm.2-17.3a.86.86,0,0,0-.13.34h.13a.12.12,0,0,0,.13-.13v-.08A.12.12,0,0,0,267.94,31.21Zm.52,14v.07h.28V45.2ZM270.38,30l-.18.26h.26c.06,0,.13-.07.2-.2Zm-.12,14.5v.13h.12v-.13Zm.53-.79v.07h.13c.09,0,.13,0,.13-.13l-.13-.07C270.83,43.62,270.79,43.66,270.79,43.74Zm.52,2.13a.15.15,0,0,0,.15.13v-.13Z"/><path class="cls-1" d="M287.17,29.66a6.18,6.18,0,0,1,1.81.67h.08v.13c-.19,0-.28.06-.28.2l.28.2h.18v-.27l-.05-.13h.05c.53.08.85.13.94.13l.26-.13a3.26,3.26,0,0,1,.61,1.87c-.06,0-.13.06-.2.2a.18.18,0,0,1,.2.2c-.06,1.11-.17,1.67-.33,1.67s-.54-.4-.79-1.21c0,0,.05,0,.05-.07s-.32-.43-.59-1.13c-.46-.49-.8-.74-1-.74h-.66l-.26-.26h-.08l.08.13-.13.08h-1.15q-.69,1.74-.87,1.74c-.06,0-.13.06-.2.18.1,0,.15.07.15.15A29.06,29.06,0,0,0,284,37.41c-.19.58-.33.87-.4.87s-.28.09-.28.2v.06l.41.33v.48a.63.63,0,0,1-.08.34l.08.33c-.28,3.63-.41,5.88-.41,6.75A24.84,24.84,0,0,0,285,56a2,2,0,0,0,1.66.87,6.75,6.75,0,0,0,2.28-.59.64.64,0,0,0,.28.06s0-.06.05-.06l-.05-.13v-.07c1.29-.77,1.94-1.44,1.94-2a7.17,7.17,0,0,0,.46-1.92h.13a9.45,9.45,0,0,1,.54,3.73v.95l-.08.13a1.51,1.51,0,0,1-.66-.54v-.13s0-.07.07-.07a.7.7,0,0,0-.41-.41h-.05a5,5,0,0,1-3.81,1.81c-2.43,0-4.26-1.51-5.5-4.55a17.22,17.22,0,0,1-.46-4c0-.28.07-2.18.2-5.68h.06a.05.05,0,0,0-.06-.06q.54-7,1.08-8.49a6.67,6.67,0,0,1,1.46-3.6q1.27-1.41,1.53-1.41C286.45,29.7,287,29.66,287.17,29.66Zm-5.4,17.57v.08H282v.13H282a.43.43,0,0,0-.2-.08c0,.09.07.13.2.13a.76.76,0,0,1,.19-.05v-.13c0-.1-.07-.15-.19-.15A.4.4,0,0,1,281.77,47.23Zm.13,3.54c0,.07.08.16.26.27h.14l.19-.12c-.06-.19-.12-.28-.19-.28h-.14A.48.48,0,0,1,281.9,50.77Zm.07-2.26v.19l.26.07v.07l-.13.19v.07h.13c.06,0,.13-.07.2-.2v-.39c0-.1,0-.15-.13-.15h-.2C282,48.38,282,48.42,282,48.51Zm.46-9.23v.07c0,.07.07.13.21.19v-.06C282.64,39.42,282.57,39.35,282.43,39.28Zm0,2.81v.13h.21v-.13Zm.13,6.88v.13a.51.51,0,0,1,.21.08V49.1a.12.12,0,0,0-.13-.13Zm.13-1.48-.05.15v.06c0,.08.05.13.13.13a.12.12,0,0,0,.13-.13v-.13A.51.51,0,0,1,282.69,47.49Zm-.05,2.76.13,0h.2c.09,0,.13,0,.13-.13l-.2-.12C282.72,50.11,282.64,50.17,282.64,50.25Zm.13-8c0,.09.05.13.13.13H283v-.13Zm.2-5.42c0,.14.08.2.13.2a.59.59,0,0,1,.2-.07V36.8c0-.09,0-.13-.13-.13S283,36.76,283,36.8Zm.06-3.4v.07c0,.06.06.12.2.19a.12.12,0,0,0,.13-.13V33.4Zm0,4.22v.13h.2c0-.09,0-.13-.13-.13Zm.07,13.48v.15h.2c0-.1,0-.15-.13-.15Zm.13-15.17.41.08v-.13c0-.1-.05-.15-.13-.15S283.23,35.87,283.23,35.93Zm0,13.38v.13h.07v-.13Zm.13-9.16-.06.13h.21C283.51,40.19,283.46,40.15,283.36,40.15Zm.2-6.35h.13v-.14A.13.13,0,0,0,283.56,33.8Zm.54,21.26v.13h.28c0-.09-.05-.13-.15-.13Zm.2-22.12v.18c.09,0,.13,0,.13-.13v-.05Zm1-2.15v.07a.67.67,0,0,1,.28.06l.05-.13Zm.13,26.06v.21a.48.48,0,0,1,.2-.08v0A.48.48,0,0,1,285.43,56.85Zm.07-25V32h.13v-.13Zm.34-.4.13.07v-.2C285.88,31.34,285.84,31.38,285.84,31.46Zm.2-1.41v.07c0,.09.06.13.13.13l.33-.07c0-.09,0-.13-.13-.13Zm1.46.28.15.05h.06a.49.49,0,0,1-.06-.2Q287.5,30.21,287.5,30.33Zm.15.46v.07l.33.06v-.13c-.08,0-.13,0-.13-.07A.53.53,0,0,1,287.65,30.79Zm1.59,25.8.15.06h.18v-.06a.12.12,0,0,0-.13-.13h-.05C289.29,56.48,289.24,56.52,289.24,56.59Zm1.15-25a.07.07,0,0,1-.08.08.48.48,0,0,1,.08.2h.26a.43.43,0,0,1,.07-.2Zm1.13,22.13v.2h.2v-.2Zm.4.54v.14h.13v-.14Z"/><path class="cls-1" d="M295.39,29.92l.26.07,5.16.19.07.13c-.1.29-.51.61-1.25.94-.26.22-.42,1-.47,2.44a8.91,8.91,0,0,1,.08,1.34v.13c-.3,0-.48.08-.54.25.36.18.54.29.54.34v5.69a.63.63,0,0,0-.21-.07v.07c0,.07.09.13.26.19l.13,7.82q-.09,0-.18.21l.18.26v1h-.26c0,.09.09.13.26.13V52l-.18.26c.12,0,.18,0,.18.13v.13a14.76,14.76,0,0,0,.46,3.64,2.07,2.07,0,0,1,1.34.59v.08L301,57h-.08l-.13-.07q0,.55-2.25.66a5.72,5.72,0,0,1-1.52-.26v-.07c0-.1.35-.25,1-.46,0-.59,0-1,0-1.33V45.55q0-.15.18-.15v0c-.12,0-.18-.05-.18-.13V44.14a.77.77,0,0,0,.18-.46q-.09,0-.18-.18c-.05-.79-.07-1.43-.07-1.93a.48.48,0,0,1,.07-.26,101.65,101.65,0,0,0-.87-10.13,2.85,2.85,0,0,0-1.39-.39,2.38,2.38,0,0,1-.33-.8Zm2.9,16v.06h.15v-.06Zm.08,3.44h.07a.56.56,0,0,1,.26-.07v.07l-.07.13h.14v-.13a.12.12,0,0,0-.14-.14h-.13C298.41,49.2,298.37,49.25,298.37,49.32Zm0,.06v.07h.13v-.07Zm0,1v0h.13v0Zm.13,2.44a.69.69,0,0,0,.46.2l.07-.13v-.13c0-.08,0-.12-.13-.12C298.63,52.66,298.5,52.72,298.5,52.82Zm.07-2.31v.07l.26.26-.13.2v.06h.07c.07,0,.17-.09.32-.26,0-.31-.11-.46-.19-.46h-.2C298.61,50.39,298.57,50.43,298.57,50.51Zm.26-13v.07c0,.09.06.13.13.13H299v-.28A.43.43,0,0,1,298.83,37.47Zm.2,6.67c0,.1.06.15.13.15l.08-.15Z"/><path class="cls-1" d="M308,29.81c0,.27.11.41.33.41l.26.05v-.05a.92.92,0,0,1-.13-.41h.08A9,9,0,0,1,315,32.07l-.2.27.33-.07h.05a4,4,0,0,1,1.08,2,15.16,15.16,0,0,1,.53,3.51q-.33.09-.33.21v.07c.26.11.39.55.39,1.31v.74c0,1.73-.07,2.59-.21,2.59a.51.51,0,0,0,.08.21,8,8,0,0,1-1.33,4A6.22,6.22,0,0,1,312,49V49c0-.08,0-.12-.13-.12h-.28V49l.13-.07c.1,0,.15.06.15.13a2.2,2.2,0,0,0-.66.28,12,12,0,0,1-1.34.26l-.33-.06q0,.15-.33.33c0,.44,0,.66-.08.67s0,0,.08,0l-.08.8v1.13a.71.71,0,0,1-.05.33l.05.28c0,1.06-.05,1.9-.05,2.51a10.33,10.33,0,0,0,1.79,1.08l.19.26q0,.51-1.8.66c-1.72-.07-2.59-.23-2.59-.46s.36-.55,1.08-.59a4.38,4.38,0,0,0,.26-1.15h.13V55c-.13,0-.19,0-.19-.13,0-1-.07-1.65-.07-2.07a.12.12,0,0,0,.13-.13.74.74,0,0,1-.21-.39q-.58-13.55-.59-18.75v-.39h.46c.14,0,.21-.09.21-.28a.48.48,0,0,1-.08-.18h-.26l-.33,0V31.6c.27,0,.41-.06.41-.2v-.2a2,2,0,0,1-.95-.47l-.33-.05s0,.05-.05.05a2.07,2.07,0,0,1-.21-.59C306,30,306.7,29.9,308,29.81Zm-.74,3.59v.13h.13V33.4Zm0,1.13v.13h.13v-.13Zm.28,4.19v.13h.18a.12.12,0,0,0-.13-.13Zm.05-4.19c0,.08.06.13.13.13h.08v-.13Zm0,5.71v.08h.13v-.08Zm.08,3v.13h.2v-.13Zm.05-5.51c0,.08.08.13.15.13H308v-.13Zm.15,5.77v.07c0,.09.06.13.13.13h.33c.09,0,.13,0,.13-.13V43.5c0-.06-.07-.13-.2-.21S307.9,43.4,307.9,43.5Zm.06,2.25a.48.48,0,0,1,.2.08l.07-.13v-.13h-.07C308.1,45.57,308,45.63,308,45.75ZM308,30.81c.06.17.13.26.2.26h.19c.07,0,.14-.07.2-.21v-.05s-.07-.11-.2-.21Zm0,10V41h.26a.57.57,0,0,1-.06-.21Zm.06-6.23v.13h.07c.09,0,.13,0,.13-.13Zm0,1.79v.13h.07c.09,0,.13,0,.13-.13ZM311,30.68c0,.12-.62.28-1.87.46,0,.06-.17.13-.51.2v.52l-.28.28v.06a.52.52,0,0,1,.28.14l-.08.13v1.19c0,.05,0,.07-.07.07l.07.13V36l-.07.13c.1,0,.15.06.15.14v2.32c-.23,0-.34.05-.34.14s.06.13.13.13.06-.13.13-.13a5.26,5.26,0,0,1,.13,1.52v1.13h-.2v.13c.18,0,.28.16.28.48,0,1.09.06,2.72.2,4.9q-.15,0-.15.15v.13a.71.71,0,0,1,.21.46v.13l-.13.21c.08,0,.17.17.25.53.09,0,.13,0,.13.06l-.13.28.21.12h.2l.21-.12a.58.58,0,0,1-.08-.34l.33-.07c0,.13.05.2.13.2h.08c.08,0,.13-.08.13-.26A7.36,7.36,0,0,0,314,47a5.57,5.57,0,0,0,1.13-3.74h.05a3.73,3.73,0,0,0,.61.21c0-.08-.22-.25-.66-.54-.25-6.07-.62-9.34-1.13-9.82-.63-1.47-1.56-2.2-2.79-2.2h-.08C311.08,30.76,311,30.68,311,30.68Zm-2.72,2.38c0,.09.06.13.13.13h.06a.12.12,0,0,0-.13-.13Zm0,16.43v.19l.13.07h.06a.47.47,0,0,1-.13-.26Zm.06,2.79-.06.13v.06h.06c.09,0,.13,0,.13-.13Zm.33.13-.05.13.13.08.05-.15Zm.13-21.86v.05h.15v-.05Zm.08-.54c0,.09.05.13.13.13h.12V30Zm5.25,3.05v.13h.13A.12.12,0,0,0,314.08,33.06Zm.13.41.07.13a.44.44,0,0,1,.19-.07v-.06Zm.66,13.1v.13h.21a.12.12,0,0,0-.13-.13Zm.54-.87v.13h.26V45.7Zm.06-7.31c0,.09,0,.13.13.13h.07a.12.12,0,0,0-.13-.13Zm.61,3.52v.2l.26.06.07-.13v-.13Zm.33-1.54c0,.1.06.15.13.15h0a.13.13,0,0,0,.15-.15l-.15,0A.62.62,0,0,1,316.41,40.37Z"/><path class="cls-1" d="M326.37,29.9q5.56,0,5.57.59V31c-.1,1.78-.32,2.75-.67,2.9a2.23,2.23,0,0,1-.33-1.26V31.16h-.08c-3.44,0-5.35.05-5.75.05a.48.48,0,0,1-.2.08q0-.09-.21-.21v.21h-1.12c-.14,0-.31,1-.52,2.9a23.24,23.24,0,0,0-.21,3.39c0,.45.06.72.06.79h-.46v.13h.46c0,1,.07,1.66.07,2.13v.06c-.35.05-.53.14-.53.27.4,0,.61.38.61,1.13,0,1.54.19,2.31.59,2.31a12.44,12.44,0,0,0,1.46.21c.56-.84.93-1.26,1.13-1.26h.18c.29,0,.53.66.74,2v.79c0,.72-.06,1.08-.2,1.08s-.07-.15-.2-.15a.64.64,0,0,1-.34.15c-.44-.21-.66-.46-.66-.74l.33.07c.06,0,.13-.07.2-.2s-.17-.21-.53-.33a.64.64,0,0,1-.19.07c0-.15-.29-.24-.87-.28h-1.25v3.85l-.39.07v.13l.39.06v3.38c-.23.2-.34.31-.34.34a1.91,1.91,0,0,0,.34.33v2.18l.07.67q7.71-.72,7.81-.8a3.43,3.43,0,0,0,.33-1.46q.27-.39.33-.39h.13a1,1,0,0,1,.54.85c-.15,1.11-.42,1.67-.8,1.67a32.62,32.62,0,0,1-7.54.92c-1.29,0-2.11-.26-2.47-.79a4.75,4.75,0,0,1-.66-2.65v-.33c0-.4.09-2.12.28-5.18v-2.9h.13v-.21a.46.46,0,0,1-.21-.07q-.08-5.07-.07-7.14c0-.72,0-2.15.07-4.31a.55.55,0,0,1-.07-.28c.21,0,.32-.14.33-.26h-.13l-.13.08-.07-.15v-.26l-.06-.67c.09,0,.13,0,.13-.13v-.05a1.21,1.21,0,0,1-.26-.87h.19c0-.09,0-.13-.13-.13s0,.13-.13.13a4.27,4.27,0,0,0-.46-1.13v-.07A38.57,38.57,0,0,1,326.37,29.9Zm-5.11,23.33c0,.15.27.3.8.46a.92.92,0,0,0-.74-.46Zm.26-21.74a.45.45,0,0,0,.46.26h.08a.42.42,0,0,1,.13-.26c0-.1-.14-.19-.34-.28C321.66,31.3,321.55,31.39,321.52,31.49Zm0,9.86v.08h.21v-.21h-.08C321.56,41.23,321.52,41.28,321.52,41.35ZM321.6,38l.13,0c.08,0,.12,0,.12-.13l-.12-.07A.14.14,0,0,0,321.6,38Zm.13,1v.13H322c0-.09,0-.13-.13-.13Zm0-8.34h.41c0-.1-.05-.15-.13-.15h-.13Q321.78,30.57,321.78,30.7Zm0,12.24V43h.15v-.08Zm0,12.93V56h.2v-.13Zm.15-15.78-.08.13.13.08.08-.13Zm0-7.62v.47c0,.09.05.14.13.14h.05c.09,0,.23-.16.41-.48,0,0-.07,0-.07-.05l-.13.05h-.21v-.13Zm.05,3.46v.19h.08a.12.12,0,0,0,.13-.13l-.13-.06ZM322.11,48v.06h.15V48Zm.08-1.2v.13l.13-.06c.08,0,.13.06.13.13a.05.05,0,0,0-.06.06h.13a.55.55,0,0,1,.06-.19l-.13-.07Zm0,.2v.06h.13V47Zm.07-7.36v.13h.13v-.13Zm.06-9.47v.13h.07c.09,0,.13,0,.13-.13Zm0,18c0,.05.11.16.33.34-.06,0-.13.06-.2.18a.06.06,0,0,1,.07.07c.2-.08.31-.17.33-.25v-.15l-.07-.32h-.33C322.36,48,322.32,48.05,322.32,48.12Zm0,2.26c0,.11.13.2.4.26l.13-.21-.2-.26Zm.2-13.39v0h.2v0Zm0,2.84V40h.13v-.13Zm.46,7.42c0,.09.06.13.13.13h.08a.12.12,0,0,0,.13-.13.12.12,0,0,0-.13-.13h-.08C323,47.14,323,47.18,323,47.25Zm0,1.26v.2h.21C323.19,48.65,323.12,48.58,323,48.51Zm.21-17.3a.73.73,0,0,0-.13.34h.13a.12.12,0,0,0,.13-.13v-.08A.12.12,0,0,0,323.19,31.21Zm.51,14v.07H324V45.2ZM325.63,30l-.19.26h.26c.06,0,.13-.07.21-.2Zm-.13,14.5v.13h.13v-.13Zm.54-.79v.07h.13c.08,0,.12,0,.12-.13l-.12-.07C326.08,43.62,326,43.66,326,43.74Zm.51,2.13c0,.08.08.13.15.13v-.13Z"/><path class="cls-1" d="M345.15,29.74l.08.12V32c0,.24,0,.61.07,1.13l-.15.07-.87-.87v-.2a4.68,4.68,0,0,1-1.26-.67c-.38-.08-.6-.13-.66-.13a4.12,4.12,0,0,0-3,1.67c-.13.62-.29.92-.46.92V34a.13.13,0,0,0,.13.13,9.81,9.81,0,0,0-.13,1.27q0,3.8,3.81,8.49c.09,0,.13.09.13.26-.05,0-.07,0-.07.08q.44,0,2.07,2.25a8.14,8.14,0,0,1,1.81,3.61v1.07a7.53,7.53,0,0,1-.41,2.95c-.13,0-.2-.08-.2-.13-.17.06-.26.13-.26.2.26,0,.39.08.39.13a5.69,5.69,0,0,1-3.07,2.61h-.33q0,.47-2.61.66H340c-1.81,0-2.92-.64-3.33-1.94l-.08-.79c0-.79.27-1.29.8-1.48.14,0,.2.21.2.53V54c-.22,0-.33,0-.33.13a.13.13,0,0,0,.13.13l.33-.06q.47,2.46.69,2.46A4.7,4.7,0,0,0,340,57h.61A4.69,4.69,0,0,0,344,55.06a6.08,6.08,0,0,0,.41-1.94q0-2.65-2.82-7.42a.47.47,0,0,0,.08-.26c-.29,0-.71-.65-1.28-1.94q-.16,0-.66-.87v-.08l.13-.18v-.2l-.06-.34h-.07l-.47.06c-1.56-2.27-2.35-4.16-2.35-5.68V36c.08,0,.15-.07.21-.19v-.07c-.09,0-.13,0-.13-.08a6.81,6.81,0,0,1,1.61-3.86l.13.05a.12.12,0,0,0,.13-.13.49.49,0,0,1-.06-.2,2.45,2.45,0,0,1,.93-.72,3.27,3.27,0,0,1,2.2-.87c.6,0,1.11,0,1.53,0h.41a.66.66,0,0,0,.28,0,.53.53,0,0,0,.26,0A2.22,2.22,0,0,1,345.15,29.74ZM337.68,35v.2a.12.12,0,0,0,.13-.13V35Zm.66,4.47.13.08a.12.12,0,0,0,.13-.13l-.13-.08C338.39,39.37,338.34,39.41,338.34,39.48ZM338.6,35l-.13.2.13.07h.08a.47.47,0,0,1,.07-.2Zm.08-2.13v.06a.46.46,0,0,1,.26.07l.07-.13Zm.07,3.87v.13a.55.55,0,0,1,.19-.06v-.07Zm.39,3.94V41h.2c.06,0,.13-.06.21-.2l-.21-.13A.49.49,0,0,1,339.14,40.69Zm.07.07h.21v.13h-.08A.12.12,0,0,1,339.21,40.76Zm.21-8.62v.07c0,.09.05.13.13.13l.33-.07c0-.09,0-.13-.13-.13Zm.13,10.08h.07v.15h-.07Zm.4.2v.13a.51.51,0,0,1,.19.08v-.08a.12.12,0,0,0-.13-.13Zm.13-1.46-.07.13v.08l.07.13a.51.51,0,0,1,.21-.08V41A.57.57,0,0,1,340.08,41ZM341,43v.12a.14.14,0,0,0,.15.13l.13-.2-.13-.05Zm.07.46v.2h.08a.12.12,0,0,0,.13-.13V43.5Zm.26.59v.15h.15A.13.13,0,0,0,341.34,44.09Zm.15-.8v.08c.08,0,.13,0,.13-.15v-.06C341.53,43.18,341.49,43.22,341.49,43.29Zm.05-12.63v.07h.13v-.07Zm.54,14.5a.49.49,0,0,0,.28.08h.33l.06-.34a.12.12,0,0,0-.13-.13h-.26A.34.34,0,0,0,342.08,45.16Zm.13-1.46v.06h.2V43.7Zm0,1.8v.14h.15V45.5Zm.33.66.15.08V46C342.59,46,342.54,46.09,342.54,46.16Zm0,10.69h.15v-.13C342.59,56.74,342.54,56.78,342.54,56.85Zm.54-11.56h.28v-.13h-.13C343.13,45.17,343.08,45.22,343.08,45.29Zm0,1.41v.15h.15V46.7Zm.07-16.5v.13h.13V30.2Zm.13,15.57c0,.09.06.13.13.13h.28a.12.12,0,0,0-.13-.13Zm.41.67v.13h.2c0-.09-.05-.13-.14-.13Zm.13,2.94v.13h.2c0-.09,0-.13-.13-.13Zm.28-3.22v.15h.13c.08,0,.13-.05.13-.15v0h-.08Zm.18,4.14v.08l.08.13a.49.49,0,0,1,.2-.06V50.3Zm.15,4.89v.13a.12.12,0,0,0,.13-.13Zm.05-7.42v.13h.13v-.13Zm0,5.35v.13a.12.12,0,0,0,.13-.13Zm.28-1.08v.13h.06A.12.12,0,0,0,345,52ZM345,51l.35.07.05-.12c0-.09,0-.13-.12-.13h-.08C345.09,50.79,345,50.85,345,51Zm.74-1.39c0,.09.05.13.13.13h.07v-.13Zm.13,1v.06H346c.26-.15.39-.26.39-.34l-.13,0h-.07S346,50.36,345.82,50.58Zm0,1.33a.46.46,0,0,1,.07.21h.2a.46.46,0,0,1-.07-.21Zm.27-.53v.07h.21a.43.43,0,0,1-.08-.2C346.14,51.26,346.09,51.3,346.09,51.38Z"/><path class="cls-1" d="M375.26,29.92c.62,0,.92.29.92.87v1.26h-.13c-.37-.67-.79-1-1.25-1-.21,0-1.16.15-2.85.46l-.15-.05a1.73,1.73,0,0,1-.72.12h-.41q.48,18.48,1.33,23.68c.05,0,.1.32.13,1,0,.17-.07.25-.13.25l.08.13c0,.52-.6.85-1.8,1-.24-.15-.44-.61-.59-1.38h.06c-.18,0-.31-1.34-.39-4l.18-6.62c.1,0,.15-.05.15-.13s-.15-.07-.15-.21c0-1.15-.05-2.35-.05-3.58h.26v-.08h-.39v-.65l-.08-.33c.18,0,.26,0,.26-.15v-.05c-.21,0-.31-.29-.31-.87L369,36.23l.13-.08a.07.07,0,0,0,.08.08l.13-.21c-.22,0-.34,0-.34-.05s0-.39-.07-.94c.07,0,.14-.09.2-.26-.06,0-.13-.07-.2-.21v-.33c0-.17,0-.26.07-.26l-.07-.46v-.67c0-.23,0-.61.07-1.13a6.09,6.09,0,0,1-1.12-.13,4.06,4.06,0,0,1-.67.06h-.33l.07-.33c0-.09-.05-.13-.15-.13h-.18c-.11,0-.18.09-.2.28v.18c-1.4,0-2.29.32-2.67.94,0,.07-.06.13-.18.19h-.08c.05-1.46.14-2.18.26-2.18h2.54c.06.08.28.13.66.13,0-.09.06-.13.13-.13l.39.07c0-.1.05-.15.13-.15h1.07Q369.23,30.51,375.26,29.92Zm-10.82,1.54v.12l.07.13a.68.68,0,0,1,.2-.07v-.06c0-.08,0-.12-.14-.12Zm4.46-.08c0,.09.05.13.12.13l.47-.13a.12.12,0,0,0-.13-.13h-.08A.53.53,0,0,1,368.9,31.38Zm.33,2.52V34c0,.07.08.16.26.26h.2c.06,0,.12-.06.19-.19V34c0-.06-.07-.13-.19-.2h-.2A.56.56,0,0,1,369.23,33.9Zm.31-.72v0h.34v0a.12.12,0,0,0-.13-.13h-.06C369.59,33.06,369.54,33.1,369.54,33.18Zm.15,1.85v.33l-.07.13.2.15c.06,0,.22-.18.46-.54A2,2,0,0,1,369.69,35Zm-.07,7.64v.12h.07c.09,0,.13,0,.13-.12Zm.07-4.19v.13h.19v-.13Zm.19,10.88v.08h.27v.12h-.07a.68.68,0,0,0-.2-.07c0,.1.06.15.14.15h.06c.06,0,.13-.07.2-.2s-.07-.13-.2-.13A.8.8,0,0,1,369.88,49.36Zm0,1.13v.13H370v-.13Zm.07-8.23.13.07v-.2C370,42.14,370,42.18,370,42.26Zm.07-9.49h.19v-.13h-.06C370.07,32.65,370,32.69,370,32.77ZM370,53l.26.2h.13c.09,0,.13-.06.13-.2a.48.48,0,0,1-.05-.2h-.08C370.15,52.77,370,52.84,370,53Zm.06-2.33v.2l.26.08V51l-.13.21v.07h.13c.07,0,.14-.07.2-.2v-.41c0-.09,0-.13-.13-.13h-.2C370.12,50.5,370.08,50.54,370.08,50.62Zm.07-9.75v.07l.06.13.41-.07a.12.12,0,0,0-.13-.13Zm.06,1.54v.05h.13v-.05Zm0,1.05a1.06,1.06,0,0,0,.53.2v-.27c0-.09,0-.13-.12-.13C370.34,43.28,370.21,43.35,370.21,43.46Zm.07-4v.13h.13v-.13Zm.39,11.6v.15a.49.49,0,0,1,.2.06v-.06c0-.1,0-.15-.13-.15Zm.15-1.44-.08.13v0l.08.13.18-.05v-.21A.44.44,0,0,1,370.82,49.64Zm-.08,2.72.13,0h.28v-.13c0-.08,0-.13-.15-.13S370.74,52.28,370.74,52.36Zm.08,3.85.18.12h.21c.08,0,.13,0,.13-.12v-.08c0-.06-.07-.13-.19-.2S370.83,56.11,370.82,56.21Zm.39-3v.13h.2c0-.09,0-.13-.13-.13Zm.33,2.38.33.08.08-.13v-.13h-.21C371.68,55.41,371.61,55.47,371.54,55.59Zm.07-24.54v.13h.19c.1,0,.15-.05.15-.13Z"/><path class="cls-1" d="M384.07,29.81q1.9,0,3.39,2.92v.08h-.13v.13h.07l.13-.08a18.61,18.61,0,0,1,1.67,5c.25,1.45.38,2.2.38,2.25l-.33-.07a.64.64,0,0,1-.05.2l.12.08a.47.47,0,0,1,.26-.08,16,16,0,0,1,.21,2.07c-.23.11-.34.2-.34.26.26.13.39.21.39.26V43c0,.22,0,.55.08,1a.51.51,0,0,1-.21.08v0l.21.28v.93c0,.13-.09.2-.26.2v0a.56.56,0,0,1,.26.13l-.08.34c0,.42,0,1.06-.13,1.94h0c-.09,0-.13-.11-.13-.33h-.67l-.48,0v.08l.28.05a.45.45,0,0,1,.2-.05c.09.35.17.53.26.53h.33l.13-.07c0,.05,0,.07.08.07-.2,1.06-.42,1.59-.67,1.59V50c0,.07.07.14.21.2a4.06,4.06,0,0,1-.41,1.41h-.21v.18q.21,0,.21.15a16.28,16.28,0,0,1-.67,3.11,6.36,6.36,0,0,1-2.46,2,4.2,4.2,0,0,1-2.05.53,3.14,3.14,0,0,1-3.2-1.87c-.61-.85-1.09-3.55-1.46-8.1H379a.53.53,0,0,0,.2.08c-.08-.19-.17-.28-.27-.28-.09-1.54-.13-2.76-.13-3.64a.43.43,0,0,1,.2-.08v-.2c-.13,0-.2,0-.2-.13v-1a.94.94,0,0,1,.46-.93q0-.11-.39-.33a25.8,25.8,0,0,1,1-6.71,10.23,10.23,0,0,0,1.33.13h.08v-.06a5.18,5.18,0,0,0-1.26-.2s0,0-.07,0l-.08-.13c.3-1,.57-1.51.82-1.51h.05a.56.56,0,0,1-.13-.28,4.65,4.65,0,0,1,1.2-1.59c0-.14.18-.21.52-.21l-.05-.13C382.28,30.25,382.88,30,384.07,29.81Zm-4.85,9.51v.13a.12.12,0,0,0,.13-.13Zm.13,11v.15h.13v-.15Zm.13-12.1v.15h.26c0-.1,0-.15-.13-.15Zm0,6.66a.47.47,0,0,1,.08.26c.21,0,.31,0,.31-.13a.64.64,0,0,1-.05-.2Zm.08-4.71v.13H380s-.07-.11-.21-.21A.48.48,0,0,1,379.56,40.19Zm.05,1.38v.13c0,.09.06.13.13.13h.13a.48.48,0,0,1,.08-.18l-.13-.08Zm0,4.18v.15h.13C379.74,45.8,379.7,45.75,379.61,45.75Zm.08-8.56.33.06h.06v-.13A.12.12,0,0,0,380,37C379.77,37.05,379.69,37.12,379.69,37.19Zm.13,6.92.33,0h.06v0c0-.14-.09-.21-.13-.21S379.82,44,379.82,44.11Zm0,6.56v.21h.2C380,50.82,380,50.75,379.82,50.67Zm0,2.8v.13a.49.49,0,0,1,.2-.06v-.07Zm.05-6.77c.05.12.19.18.41.18l.13-.18v-.08a.12.12,0,0,0-.13-.13h-.2C380,46.49,380,46.56,379.87,46.7Zm0,1.72H380v-.13C379.92,48.3,379.87,48.34,379.87,48.42Zm.28-6.51V42h.13v-.07Zm0,11.76v.08c.09,0,.13,0,.13-.15v-.06C380.19,53.55,380.15,53.6,380.15,53.67Zm3.33-22.33a.4.4,0,0,1-.07-.2h-.13l-.08.26a.48.48,0,0,1,.08.2c-.47.62-.79.93-.95.93,0-.09,0-.13-.13-.13h-.13v.46s.09.12.26.2a15.58,15.58,0,0,0-1.26,4.59c-.08,0-.12-.07-.12-.2s-.13,0-.13.13v.07c.13,0,.2,0,.2.08a44.85,44.85,0,0,0-.48,6.23c0,.91,0,2.16.15,3.74h-.41a.74.74,0,0,1-.07.18.76.76,0,0,0,.53.2,18.35,18.35,0,0,1,.08,1.87h-.21a.93.93,0,0,1,.34.67l.2,2.05h-.08a9.46,9.46,0,0,0,.47,2.59c.49,1,1.07,1.54,1.74,1.54h.2a3.28,3.28,0,0,0,2.92-2.13c.21,0,.5-.75.85-2.26a.46.46,0,0,1,.21-.07v-.2h-.13a12.29,12.29,0,0,0,.53-2.93.76.76,0,0,1,.19-.05v-.08c-.13,0-.19,0-.19-.13a1.39,1.39,0,0,1,.19-.79l-.13-.08a33.77,33.77,0,0,0,.33-4.64v-.28a37.79,37.79,0,0,0-.72-7,.12.12,0,0,0,.13-.13v-.06a5.93,5.93,0,0,1-.74-2.13q-1.05-2.94-2.52-2.94A1.93,1.93,0,0,0,383.48,31.34Zm-3.2,2.13.13.06h.13v-.06c0-.1-.05-.15-.13-.15S380.28,33.4,380.28,33.47Zm0,13.89v.13a.49.49,0,0,1,.2.06v-.06a.12.12,0,0,0-.13-.13Zm.26-10.63v.13a.64.64,0,0,1,.2,0v0c0-.09,0-.13-.13-.13Zm.07,1.38v.21h.21a.51.51,0,0,1-.08-.21Zm.08,13.43v.13h.13v-.13Zm.13-19.27a3.1,3.1,0,0,0,.53.13h.06c.08,0,.13-.07.13-.2s-.17-.26-.39-.26S380.91,32.05,380.82,32.27Zm0,3.51v.15H381v-.15Zm.38-.33v.07a.14.14,0,0,0,.15.13v0A.13.13,0,0,0,381.2,35.45Zm.28-1.92v.07h.13c.06,0,.13-.07.2-.2h-.2C381.52,33.41,381.48,33.45,381.48,33.53Zm.13-2.13a.93.93,0,0,0,.54.28l.18-.34-.26-.2A.46.46,0,0,0,381.61,31.4Zm4.85,24.07h.2v-.21C386.6,55.26,386.53,55.33,386.46,55.47Zm.66-1.06-.05.13a.52.52,0,0,1,.18.06v-.06C387.25,54.45,387.21,54.41,387.12,54.41Zm.08.65v.07h.2v-.07Zm.53-19-.07.13h.2C387.86,36.1,387.82,36.06,387.73,36.06Zm.13,13.62c0,.07.06.14.19.2v-.06a.12.12,0,0,0-.13-.14Zm0,.4v.21H388a.12.12,0,0,0,.13-.13l-.13-.08Zm.26-2.92v.06h.41v-.06a.4.4,0,0,1-.2-.07A.46.46,0,0,1,388.12,47.16Zm.34-3.2V44c.08,0,.12,0,.12.08a.51.51,0,0,1,.21-.08V44c-.09,0-.13,0-.13-.06A.58.58,0,0,1,388.46,44Zm.12-1.79v.07h.21v-.07Zm.13-.52c0,.08.08.13.15.13v-.13Zm.15,3.44v.07a.56.56,0,0,1,.26.13.13.13,0,0,1,.13-.13c-.06-.17-.13-.26-.2-.26S388.92,45,388.86,45.09Zm.06-.39a.74.74,0,0,0,.33.13c.14,0,.2-.09.2-.13a.43.43,0,0,1-.07-.2h-.06C389.05,44.52,388.92,44.59,388.92,44.7Zm0,2.72v.13h.28v-.19h-.08A.53.53,0,0,1,388.92,47.42Zm.28-.26v.06l.38.07.08-.13c0-.06-.07-.13-.21-.2h-.07C389.32,47,389.26,47,389.2,47.16Zm.05-1.46c0,.06.07.13.2.2s.13,0,.13-.15v0c0-.09,0-.13-.13-.13h-.07C389.29,45.58,389.25,45.62,389.25,45.7Zm.07-5.18v.13c0,.09.06.13.13.13v-.26Z"/><path class="cls-1" d="M425.56,29.81a2.46,2.46,0,0,1,1.92,1c-1.2.48-1.8.79-1.8.92s0,.28-.12.28a1.36,1.36,0,0,0-.67-.2h-.06c0,.16.27.27.8.33v.2a5.66,5.66,0,0,1-.87-.27v.07c0,.1.18.19.54.26v.13h-.13v.28a.3.3,0,0,0,.33-.34l.13.06c-.51,3.75-.88,6-1.13,6.92a.79.79,0,0,1-.41.2v.06c.19.13.28.24.28.33-.36,2-1,4.94-1.94,8.91a1,1,0,0,0-.39-.12c0,.06.13.19.39.38a29.65,29.65,0,0,1-.8,3.26h-.05a.48.48,0,0,1,.05.2q-.74,4.72-1.72,4.72h-.07c-.78,0-1.38-1.28-1.8-3.85,0,0-.36-1.34-1-3.86a.6.6,0,0,1,.27-.06v-.07c-.22-.11-.33-.2-.33-.26-.14-.52-.25-1-.33-1.46h-.08c-.12.53-.34.79-.66.79v.13h.13c-.47,1.25-.82,1.87-1.06,1.87l.08.26a34.68,34.68,0,0,0-2.13,5.33c-.43.92-.93,1.38-1.48,1.38s-.86-.93-1-2.79l-.6-3.85c.09,0,.13-.05.13-.15-.16,0-.38-1.36-.66-4.1a82.83,82.83,0,0,1-1.21-8.64.46.46,0,0,1,.21-.07c0-.09-.09-.13-.26-.13q-.52-6.8-1-6.79-.31,0-.54-.93V30l1.21-.13a5.51,5.51,0,0,1,1.92.67v.05a.56.56,0,0,1-.33.54h-.47v.06a4.92,4.92,0,0,0,.13,1.27.69.69,0,0,1-.33.06v.28a.4.4,0,0,1,.46.46,4.17,4.17,0,0,0,.13.79c-.06,0-.14.09-.26.26a1.13,1.13,0,0,1,.47,1,.67.67,0,0,0-.06.28c.14,0,.31.66.52,2h-.2v.07c.22,0,.44.87.66,2.59h-.05l-.34-.05-.13.26.19.13h.15l.18-.13a22.69,22.69,0,0,1,.82,4.18,6.91,6.91,0,0,1,.12,1.12.63.63,0,0,0-.07.21c.09,0,.13,0,.13.13v.15c0,.09-.11.16-.33.18v.07c.27,0,.4.18.4.54l.06.39c-.09,0-.13,0-.13.13s.18.18.2.53h-.07q.48,4.35.87,6.65.14-.15,3.66-8.24a2,2,0,0,1-.66-.92c.06-.19.13-.28.2-.28H416a17.32,17.32,0,0,1,1.8.28v.13a6,6,0,0,1-.47,1.26v.13c0,1.11.71,3.81,2.13,8.12a14.65,14.65,0,0,0,.8-3s.08-.07.13-.2l-.08-.13c.05-.11.52-2,1.41-5.59h.05c0,.09.08.13.15.13H422c0-.11-.09-.17-.26-.18.92-3.88,1.43-5.87,1.53-6s.08-.07.13-.2a.49.49,0,0,1-.2-.06c.13-1.33.26-2,.39-2l-.06-.26a57.72,57.72,0,0,0,1-6v-.39c-.49,0-.74-.4-.74-1.2A5.45,5.45,0,0,1,425.56,29.81ZM407.82,31.2v.14h.25v-.2H408A.58.58,0,0,1,407.82,31.2Zm.25,3.86v.21l.13,0h.08a.47.47,0,0,1-.13-.26Zm.34,3h.13V38C408.45,38,408.41,38,408.41,38.11Zm.28-4.64c0,.09.05.13.12.13v-.13Zm.25,2.52v.13h.13V36Zm0,5.38v.07h.26v-.07Zm.13-1.26v.26h.13c.1,0,.15,0,.15-.13l-.2-.13Zm.21,5.18-.08.13c0,.1.06.15.15.15s.12-.07.19-.2Zm.07.46v.15c0,.09.06.13.13.13v-.28Zm.06-2h.13c.08,0,.13-.05.13-.15h-.13A.14.14,0,0,0,409.41,43.78Zm.07,4,.19.13h.07a.12.12,0,0,0,.13-.13c0-.14-.08-.21-.13-.21S409.48,47.75,409.48,47.83Zm.06-1.41v.07h.13v-.07Zm.2-.92v.12h.13V45.5Zm.41-2.39c0,.06.08.12.26.18a.46.46,0,0,1,.07-.18l-.15-.07A.62.62,0,0,1,410.15,43.11Zm.05,4.31a2.66,2.66,0,0,0,.41.13c.22,0,.35-.09.39-.26a.53.53,0,0,1-.06-.2h-.41Q410.44,47.09,410.2,47.42Zm.28-2.33v.15h.13c.08,0,.13-.05.13-.15Zm0,.87v.13h.13V46Zm0,1.87v.05h.13v-.05Zm.33.59v.07h.13v-.2C410.86,48.3,410.81,48.34,410.81,48.42Zm.19,4.2v.13h.07a.12.12,0,0,0,.13-.13Zm.27-3.61v.07h.19V49Zm.6,6.79-.08.13V56a.46.46,0,0,1,.21-.07A.12.12,0,0,0,411.87,55.8Zm1.66-2.54v.15h.06v-.15Zm.93-2.18v.21h.27v-.21Zm.33-.66v.12c.09,0,.13,0,.13-.12Zm1.07-4.72H416v-.13C415.91,45.58,415.86,45.62,415.86,45.7Zm.39.54v0c0,.09.06.13.13.13h.15v-.06q0-.12-.15-.12Zm.41.51v.13h.13v-.13Zm.26-1v.13h.27c0-.09-.05-.13-.14-.13Zm.53,4.25v.13h.21c0-.08-.05-.13-.15-.13Zm3.8-.4v.07c0,.06.06.13.18.2v-.07C421.43,49.69,421.37,49.62,421.25,49.55Zm0,2.79v.13h.05c.09,0,.13,0,.13-.13Zm.46-5.72v.13c0,.06.07.13.2.21h.26v-.21a.12.12,0,0,0-.13-.13Zm.46-1.33c0,.09.06.13.13.13h.07c.09,0,.13,0,.13-.13v0Zm.8-.79a.47.47,0,0,1,.2.07.4.4,0,0,1,.07-.2h-.15A.12.12,0,0,0,423,44.5Zm.4-2.72v0h.13v0Zm.13-2.87V39c0,.09.06.13.13.13V39C423.63,39,423.59,38.91,423.5,38.91Zm.33-.46c0,.08.06.13.13.13v-.13Zm.21-1.26v.13c.08,0,.13,0,.13.07a.44.44,0,0,1,.26-.07v-.13Zm0-1.41c0,.1.06.15.13.15l.08-.15Zm0,2.87v.13h.13v-.13Zm.67-8.64a.66.66,0,0,0-.13.34h.13a.12.12,0,0,0,.13-.13v-.08A.12.12,0,0,0,424.76,30Zm.59.93V31h.21v-.07Zm.21-.8v.13h.2v-.13Zm.86.13.08.13a.44.44,0,0,1,.18,0l-.05-.13A.76.76,0,0,1,426.42,30.27Z"/><path class="cls-1" d="M436.25,29.92a6.84,6.84,0,0,1,4,1.28v.13h-.87a31.83,31.83,0,0,0,.66,5.9.66.66,0,0,0-.4.33l.53.33A47.38,47.38,0,0,1,441.47,45s-.05,0-.05.07.19.69.25,2.07a25.83,25.83,0,0,1,1,5.83v1.15c.24,0,.47.89.69,2.68q0,.33.72.33c0,.09.16.13.48.13v.13a7.64,7.64,0,0,1-1.68.2h-.8q-1.92,0-2.27-9.58a4,4,0,0,0-1.48-.33,30,30,0,0,1-3.56.33h-.33c-.18.09-.28.2-.28.33H434s-.07,0-.07-.05a.48.48,0,0,1-.18.05c0,.09.06.13.18.13-.2.83-.42,1.32-.67,1.48V50c.14,0,.21,0,.21.13v.2c0,.1-.33.17-1,.2,0,.09.05.13.13.13h.2l.13-.07c.08.41.21.61.41.61a4.26,4.26,0,0,1-.28,1.61.43.43,0,0,0,.08.2c-.12.94-.23,1.41-.34,1.41h-.13v.26a.46.46,0,0,1,.21.07,8.55,8.55,0,0,0-.21,1.54,6.22,6.22,0,0,1,.39,1.2l-.13.07c-.63-.05-1.16-.07-1.61-.07v-.19h-.2l.07.13v.06h-.4c-.09,0-.13,0-.13-.13a4.81,4.81,0,0,0,.74-2.2h.13v-.08l-.13-.2q1.6-15.54,3.07-19.7c0-.09.11-.2.35-.33-.14,0-.21-.05-.21-.13l.06-.33.48,0v-.33q-.33,0-.33-.21a11.12,11.12,0,0,0,.46-2.33c0-.06-.15-.22-.46-.48a2.28,2.28,0,0,1-.21-.87A3,3,0,0,1,436.25,29.92Zm-4.36,23a.46.46,0,0,1,.07.21h.21v-.21ZM432,51v.07h.21V51A.51.51,0,0,1,432,51Zm0,.87V52h.21V51.9Zm.06.61-.06.13.13.07h.08v-.07C432.17,52.55,432.12,52.51,432,52.51Zm.2-2.56V50c.14,0,.2,0,.2,0a.76.76,0,0,1,.21,0V50c-.14,0-.21,0-.21-.07A.4.4,0,0,1,432.22,50Zm.33-3.22c0,.09.08.13.15.13h.06c.1,0,.15,0,.15-.13s-.15,0-.15,0A.52.52,0,0,1,432.55,46.73Zm.21-1.81v.15a.13.13,0,0,0,.15-.15Zm.07-.53v.14H433v-.14Zm.26,3.29-.13.2c0,.06.09.13.28.2,0-.09.05-.14.13-.14A.39.39,0,0,0,433.09,47.68Zm0-.21.2.13h.13a.12.12,0,0,0,.13-.13v-.2h-.06C433.17,47.3,433,47.36,433,47.47Zm0,2.76v.13h.25v-.07l-.05-.13A.47.47,0,0,1,433,50.23Zm.33-7.45a.48.48,0,0,1-.08.2l.15.07h.06a.12.12,0,0,0,.13-.13l-.19-.14Zm0,5.69c0,.08.08.17.26.28l.07-.33-.13-.08h-.07C433.41,48.36,433.37,48.4,433.37,48.47Zm.07-5.21v.13a.13.13,0,0,0,.13.13v-.26Zm.13,2.07.21.13h.05c.09,0,.13,0,.13-.13s-.08-.21-.13-.21S433.57,45.27,433.57,45.33Zm3.28-13.67q-.54,1.83-1.21,4.83h-.07l-.46-.13v0c0,.05.15.19.46.41-.16,1.38-.38,2.07-.67,2.07V39a.55.55,0,0,1,.28.07l-.68,4.14-.13.08.07.33a13.18,13.18,0,0,1-.41,3.22.45.45,0,0,1-.2,0v.08c0,.06.11.15.33.28.39,0,1.86-.1,4.42-.28l.15.07a4.9,4.9,0,0,1,.8-.15l-2.61-15.2Zm-2.28,8.79v0c0,.1.06.15.13.15l.07-.15-.13,0ZM434.7,38q0,.15.15.15h0V38Zm.07-2.74.34.06.07-.13-.15-.05h-.13C434.82,35.17,434.77,35.21,434.77,35.28Zm2.08,12.06v.13c0,.09,0,.13.13.13l.14-.2Zm1-12,.19.15c.07,0,.14-.07.2-.21l-.13-.07H438A.13.13,0,0,0,437.86,35.34ZM438,47.47v.13h.26a.48.48,0,0,1,.08-.2h-.13A.46.46,0,0,1,438,47.47Zm.13-10.37a.13.13,0,0,0,.13.13h.08V37.1Zm.28-1.56v.08h.18v-.08Zm.26.08c0,.08,0,.13.13.13s.15,0,.15-.13-.05-.13-.15-.13S438.66,35.54,438.66,35.62Zm.07.46v.07h.21V36h-.08A.13.13,0,0,0,438.73,36.08Zm.21,1.94v.08l.33.07v-.35h-.15C439.06,37.82,439,37.89,438.94,38Zm.18,3.09.15.08c.09,0,.13,0,.13-.15l-.13-.06C439.17,41,439.12,41,439.12,41.11Zm.74,4a.73.73,0,0,0-.13.34h.13c.09,0,.13,0,.13-.13v-.06C440,45.17,440,45.12,439.86,45.12Zm.08-7.15v.13h.12C440.06,38,440,38,439.94,38Zm0,9c0,.07.08.16.25.28h.54v-.08a2.48,2.48,0,0,0-.74-.2Zm.12-5.7v.13c0,.1.06.15.13.15a.13.13,0,0,0,.15-.15c0-.09,0-.13-.15-.13Zm.47,1.28.35.07.05-.15-.13,0h-.12C440.58,42.4,440.53,42.44,440.53,42.52Zm.07,2.88h.2v-.13h-.07C440.64,45.29,440.6,45.33,440.6,45.4Zm.08-2.55v.07h.12v-.07Z"/><path class="cls-1" d="M450.25,29.81h.87c2.25,0,3.81.4,4.66,1.2l-.13.2v.06H456l-.07-.13H456a7,7,0,0,1,1.13,1.54,3.6,3.6,0,0,1,1.2,2.73,20.77,20.77,0,0,1,.33,2.19.46.46,0,0,1-.27.15V38c.22,0,.33.14.33.41v.39c0,.06-.07.13-.2.2a1.49,1.49,0,0,0,.27.41s0,.05-.07.05l.07.34v1.27l-.27.26c.18.19.27.32.27.41a6.63,6.63,0,0,1-1.46,4.66.49.49,0,0,0-.2.06l.05.15a5.41,5.41,0,0,1-1.79,1.53h-.2c0,.24-.89.54-2.67.93a1.1,1.1,0,0,1,.21.46s-.06,0-.06.07a34,34,0,0,1,2.46,4.66,3.38,3.38,0,0,0,2.05,1.26c.83,0,1.72-.6,2.69-1.79h0v.13q-.5,3.27-2.4,3.27a2.52,2.52,0,0,0-.6.06,3.36,3.36,0,0,1-3.4-2.39,49.89,49.89,0,0,0-1.92-4.66v-.21h-.34c0-.08,0-.12-.07-.12-.53,0-.86.93-1,2.79,0,2.61.25,3.92.74,3.92,0,.14.3.25.8.33a1.67,1.67,0,0,1,.27.41,25.75,25.75,0,0,1-3.2.33c0-.05,0-.07-.07-.07l.67-1.39c-.05-1-.08-1.63-.08-2q-.24-23.4-.59-23.4l-.33-.79c.05,0,.07,0,.07-.06C449.27,29.83,449.86,29.81,450.25,29.81Zm-.87,12.65v.15h.13v-.15Zm.2-6.38v.18a.71.71,0,0,1,.2,0v-.07A.53.53,0,0,1,449.58,36.08Zm0,13.39a1.48,1.48,0,0,0,.54.13.82.82,0,0,0,.05-.28l-.13,0H450C449.71,49.29,449.58,49.36,449.58,49.47Zm.26-2.61V47H450v-.13Zm.13-16c0,.89-.06,1.55-.06,2v1.66c0,1.33.11,3.76.34,7.27q-.13,4.2-.13,6.07c0,.22,0,.66.05,1.33a35,35,0,0,0,4.4-1.41c0,.09.09.13.26.13v.08l-.13.2v.06h.13c.08,0,.14-.07.21-.21v-.13L455,47.4a3.8,3.8,0,0,0,1.72-2.28,1.44,1.44,0,0,1,.61-1.38s.06,0,.06-.08v0c-.26,0-.39-.07-.39-.2,0-.76,0-1.34,0-1.74v-.34h.08l.33.08v-.08c-.31-.11-.46-.58-.46-1.4a51.85,51.85,0,0,0-.87-5.79q-1.2-3.41-2.94-3.41h-.33C452.31,30.73,451.35,30.76,450,30.81Zm3.2,21.38v.13h.28v-.13Zm2.48-19.64v.05q0,.09.18.21c.1,0,.15-.05.15-.13v-.13Zm.52.39h.14v-.13C456.21,32.82,456.17,32.86,456.17,32.94Zm.2,14.18h.13c.1,0,.15,0,.15-.13h-.15C456.41,47,456.37,47.05,456.37,47.12Zm.41-9.65a.43.43,0,0,1,.25.07l.08-.13v-.07h-.21A.12.12,0,0,0,456.78,37.47Zm.79-.93.13.06a.12.12,0,0,0,.13-.13l-.13-.06C457.61,36.42,457.57,36.47,457.57,36.54Zm.13,7.53c0,.09.06.13.13.13l.07-.13ZM458,55.93v.2c.09,0,.13,0,.13-.13Zm.21-12.65h.26v-.15h-.13A.14.14,0,0,0,458.24,43.28Zm.13-4.41V39h.07v-.13Zm.07-1.07h.13v.13C458.48,37.93,458.44,37.89,458.44,37.8Z"/><path class="cls-1" d="M476.56,29.92a1.21,1.21,0,0,1,.92.54c-.23,0-.46.72-.67,2.18v.07h-.07a.92.92,0,0,0-.59-.2h-.06a1,1,0,0,0-.87.46v.13a.82.82,0,0,0,.67.46h.54a.37.37,0,0,0,.26-.33h.12q.44,1.83.6,21.9c.11.84.37,1.26.79,1.26.36.2.54.4.54.61a6.2,6.2,0,0,1-2.59.59q-.93-.08-.93-.33v-.39l.08-.15.13.08h.05l.21-.13h.07s.06,0,.06,0l.13,0,.27.2a1,1,0,0,1,.26-.48,1.8,1.8,0,0,1-.66-.52V53.54c.3-.17.46-.28.46-.33l-.13-.06h-.06l-.2.13h-.07V51.56c0-1.17.09-1.79.27-1.87-.07,0-.14-.06-.2-.2V48.1c0-.75.06-1.13.13-1.13l-.07-.12V45.12c0-.13,0-.2.07-.2l-.07-.33V39c0-.09.06-.13.2-.13v-.28a.67.67,0,0,0-.26-.46V38c0-.09.06-.13.13-.13l.41.07.26-.53a.92.92,0,0,0-.87-.6c0-.18-.05-.74-.13-1.66q-.7.66-3.19,7.49c-.18.31-.36.46-.53.46a.71.71,0,0,0-.06.34H472v.13c0,.07-.09.16-.26.27A2,2,0,0,1,470.3,43c.67-.11,1-.36,1-.74h-.66l-.52.46a28.93,28.93,0,0,1-3.39-6.29.78.78,0,0,0,.13-.41,1.25,1.25,0,0,1-.74-.66A1.15,1.15,0,0,0,466,35h-.05v.61q0,2.1.79,9.87c.18,3.14.26,5.84.26,8.11,0,.66,0,1.68-.13,3.05.53.29.8.6.8.92-2.26-.15-3.39-.28-3.39-.4a3.31,3.31,0,0,1,.72-.32l.15.06a.55.55,0,0,1,.19-.06V56.8a.56.56,0,0,0-.46-.34,37.7,37.7,0,0,0,.2-4.18q0-6.59-.33-15.39l.13-5.51a1.49,1.49,0,0,0-.6-1,5.23,5.23,0,0,1,1.8-.39h.13c.1,0,.18.16.26.47a6.39,6.39,0,0,0-.13,1.46c0,1.81,1.19,4.64,3.46,8.49,0,.13-.1.2-.28.2v.06c.32,0,.65.33,1,1a2,2,0,0,1,.61.4Q475,33.24,475,31.12A1.46,1.46,0,0,1,476.56,29.92ZM466.33,52.41a1.92,1.92,0,0,0-.26.59,2.15,2.15,0,0,1,.39.28,1.11,1.11,0,0,0,.48-.46A2.92,2.92,0,0,0,466.33,52.41Zm.13,1.26a1.08,1.08,0,0,0-.13.54.47.47,0,0,1,.27.13h.19v-.59A.57.57,0,0,1,466.46,53.67ZM466.94,36c0,.09.05.13.13.13h.05V36Zm.39,1.34.07.33.46-.07c-.07-.26-.14-.39-.2-.39A.89.89,0,0,1,467.33,37.36Zm8.82,19.83v.14h.13v-.14Zm.33-6.16v.2c.09,0,.13,0,.13-.15Zm.21-6.31v.13h.05c.1,0,.15-.05.15-.13Zm.25,10.69v.13h.13v-.13Z"/><path class="cls-1" d="M505.46,29.81q1.26.15,1.26.33c-.44.22-.67,1.07-.67,2.54v.51c0,.85,0,2.12.08,3.8l-.13.07-.15-.07a.72.72,0,0,0-.46.4l.46.13a.43.43,0,0,1,.2-.07l.08.13v.74l.05.46c-.06,0-.12.07-.18.2.12,0,.18.05.18.13v2.72a.66.66,0,0,1-.05.28.53.53,0,0,1,.05.26c.05,1.21.08,1.94.08,2.2-.05,0-.08,0-.08.06l-.13-.06a.13.13,0,0,0-.13.13h.26v2.79l-.13.21c0,.08.06.13.13.13a30.32,30.32,0,0,1-.92,7.38,2.9,2.9,0,0,1-1.06,1.33l-.33-.08v.13H504v.13a8.57,8.57,0,0,1-3.53.87,19.22,19.22,0,0,1-3.8-.74,7.85,7.85,0,0,1-.18-1.31v-.07c0-.28.09-.41.18-.41h.21c.06,0,.26.29.61.87a2.66,2.66,0,0,0,1.26.61.66.66,0,0,0,.59.39h.92a2.49,2.49,0,0,0,2.54-1.54,8.11,8.11,0,0,0,1.59-3.64c.18,0,.28,0,.28-.13s-.1-.15-.28-.15a48.6,48.6,0,0,0,.41-5.77,13.06,13.06,0,0,1-3.06.87c0-.1-.05-.15-.14-.15l-.19.15H501l.08-.33v-.15l-.33-.06c-.28.09-.41.24-.41.46a2.9,2.9,0,0,1-1.54-.66c-.52,0-1.18-1-2-2.87a19.55,19.55,0,0,1-.79-6.1v-.34c.12,0,.18,0,.18-.13s-.12-.06-.18-.2V34.4c0-1,.06-1.54.18-1.54a.74.74,0,0,1-.13-.33c.05-.8.08-1.31.08-1.52a4.78,4.78,0,0,1-.87-.87v-.07h1c.44,0,1.11,0,2,.07v.13c-.18,0-.47.27-.86.8h-.13v.13a.47.47,0,0,1,.2.07.06.06,0,0,1-.07.07c-.05.82-.08,1.42-.08,1.8v.92c0,.09-.09.13-.26.13.22.14.34.47.34,1-.07,0-.13.07-.21.21a.76.76,0,0,0,.21.05c0,.44,0,1.49.12,3.13h-.05a30.45,30.45,0,0,1,.33,3.33c-.22.05-.33.09-.33.13s.13.18.39.33A3.25,3.25,0,0,0,498,43c-.22.06-.34.12-.34.2v.13c0,.08.1.13.28.13v.07l-.13.21v0a2.19,2.19,0,0,1,.46,0,3.62,3.62,0,0,0,1.39,1.59v.13a.51.51,0,0,0,.21-.08,4.7,4.7,0,0,0,1.38.28,6.42,6.42,0,0,0,1.74-.33.13.13,0,0,0,.13.13h.13c0-.2.38-.49,1.13-.87a1.57,1.57,0,0,0,.46-1.13.53.53,0,0,1,.2-.06v-.07c-.17,0-.25-.07-.25-.21v-.51c0-.14,0-.21.05-.21l-.05-.33c-.05-2.33-.08-3.71-.08-4.12.22-.07.33-.13.33-.21s-.11-.2-.33-.2V31.14a10.18,10.18,0,0,1-1.18-1.2v-.06C504.5,29.83,505.14,29.81,505.46,29.81Zm-8.84,25.53v.13h.13C496.75,55.38,496.71,55.34,496.62,55.34Zm.2-14.69-.07.13v0h.2v0C497,40.69,496.91,40.65,496.82,40.65Zm0-4.13.13.08c.09,0,.13-.05.13-.15v-.06H497C496.87,36.41,496.82,36.45,496.82,36.52ZM496.88,56l.13.06.07-.13v-.06H497C496.92,55.88,496.88,55.93,496.88,56ZM497,33v.2H497a.64.64,0,0,1,.2,0c0-.1,0-.15-.13-.15Zm.21,5.07v0h.13v0Zm.26,18.48v.13h.12v-.13Zm.2-14.5h.13v.13h-.13Zm.79,2.92V45h.39V45l-.13-.21C498.5,44.83,498.41,44.9,498.41,45Zm4.39,11.43v.07h.13v-.07Zm.53-10.77v.08h.13v-.08Zm.8,9.77v.08h.33v-.21h-.2C504.17,55.27,504.13,55.32,504.13,55.39Zm.13-10.3-.06.15c0,.08.06.13.13.13s.13-.07.19-.21Zm-.06,8v.21h.19a.57.57,0,0,1-.06-.21Zm.26-.66-.07.15v.05h.2v-.05C504.59,52.52,504.55,52.47,504.46,52.47Zm.06,3.07v.13h.07c.09,0,.13,0,.13-.13Zm.33-16.22c0,.11.16.19.48.26l.06-.13v-.21h-.21Zm0,1.51.15.08a.12.12,0,0,0,.13-.13L505,40.7C504.9,40.72,504.85,40.76,504.85,40.83Zm.07,3.8-.07.12V45l.33.07.08-.13v-.2Zm0,4.71-.07.15h.2C505.05,49.39,505,49.34,504.92,49.34Zm.47-7.3c0,.08.05.13.13.13l.07-.13Zm0,11.71v.13h.13A.12.12,0,0,0,505.39,53.75Zm.07-18a.49.49,0,0,1,.06.2h.27c.09,0,.13,0,.13-.15v-.13c0-.08-.06-.13-.2-.13Zm.21-2.79V33q0,.15.12.15l.06-.15-.13-.05Zm0,4.84v.08h.12v-.08Zm0,1.13V39c.08,0,.12,0,.12-.13Zm.25,4.13v.07c0,.09.06.13.13.13h.08C506.13,43.18,506.06,43.11,505.92,43Z"/><path class="cls-1" d="M517.7,29.81c1.27,0,2.39,1,3.38,2.92v.08H521v.13H521l.13-.08a18.71,18.71,0,0,1,1.66,5q.39,2.18.39,2.25l-.33-.07a.49.49,0,0,1-.06.2l.13.08a.45.45,0,0,1,.26-.08,17.51,17.51,0,0,1,.2,2.07c-.22.11-.33.2-.33.26.26.13.39.21.39.26V43a9.29,9.29,0,0,0,.07,1,.43.43,0,0,1-.2.08v0l.2.28v.93c0,.13-.08.2-.26.2v0a.56.56,0,0,1,.26.13l-.07.34c0,.42-.05,1.06-.13,1.94h-.06c-.08,0-.13-.11-.13-.33h-.66l-.48,0v.08l.27.05a.52.52,0,0,1,.21-.05c.08.35.17.53.26.53h.33l.13-.07c0,.05,0,.07.07.07Q523,50,522.62,50V50c0,.07.06.14.2.2-.2.94-.33,1.41-.41,1.41h-.2v.18c.13,0,.2.05.2.15a17.72,17.72,0,0,1-.66,3.11,6.51,6.51,0,0,1-2.46,2,4.24,4.24,0,0,1-2.06.53,3.15,3.15,0,0,1-3.2-1.87q-.9-1.28-1.46-8.1h.08a.43.43,0,0,0,.2.08c-.09-.19-.18-.28-.28-.28-.08-1.54-.13-2.76-.13-3.64a.51.51,0,0,1,.21-.08v-.2c-.14,0-.21,0-.21-.13v-1a1,1,0,0,1,.47-.93q0-.11-.39-.33a25.38,25.38,0,0,1,1-6.71,10.07,10.07,0,0,0,1.33.13h.07v-.06a5.17,5.17,0,0,0-1.25-.2s0,0-.08,0l-.07-.13c.29-1,.56-1.51.81-1.51h.06a.49.49,0,0,1-.13-.28,4.65,4.65,0,0,1,1.2-1.59c0-.14.17-.21.52-.21l-.06-.13Q515.9,30.14,517.7,29.81Zm-4.85,9.51v.13a.12.12,0,0,0,.13-.13Zm.13,11v.15h.13v-.15Zm.13-12.1v.15h.26c0-.1,0-.15-.13-.15Zm0,6.66a.46.46,0,0,1,.07.26c.21,0,.32,0,.32-.13a.49.49,0,0,1-.06-.2Zm.07-4.71v.13h.39s-.07-.11-.2-.21A.51.51,0,0,1,513.18,40.19Zm.06,1.38v.13c0,.09,0,.13.13.13h.13a.42.42,0,0,1,.07-.18l-.13-.08Zm0,4.18v.15h.13C513.37,45.8,513.32,45.75,513.24,45.75Zm.07-8.56.34.06h.05v-.13c0-.09,0-.13-.13-.13S513.31,37.12,513.31,37.19Zm.13,6.92.33,0h.06v0c0-.14-.08-.21-.13-.21S513.44,44,513.44,44.11Zm0,6.56v.21h.21Q513.65,50.79,513.44,50.67Zm0,2.8v.13a.57.57,0,0,1,.21-.06v-.07Zm.06-6.77c0,.12.18.18.4.18l.13-.18v-.08a.12.12,0,0,0-.13-.13h-.2C513.64,46.49,513.57,46.56,513.5,46.7Zm0,1.72h.15v-.13C513.55,48.3,513.5,48.34,513.5,48.42Zm.27-6.51V42h.13v-.07Zm0,11.76v.08c.09,0,.13,0,.13-.15v-.06A.13.13,0,0,0,513.77,53.67Zm3.33-22.33a.4.4,0,0,1-.07-.2h-.13l-.07.26a.43.43,0,0,1,.07.2c-.47.62-.78.93-.94.93a.12.12,0,0,0-.13-.13h-.13v.46s.08.12.26.2a15.58,15.58,0,0,0-1.26,4.59c-.09,0-.13-.07-.13-.2s-.13,0-.13.13v.07c.14,0,.2,0,.2.08a44.85,44.85,0,0,0-.48,6.23c0,.91.05,2.16.15,3.74h-.41a.46.46,0,0,1-.07.18.79.79,0,0,0,.54.2c0,.47.07,1.1.07,1.87h-.2a.92.92,0,0,1,.33.67l.2,2.05h-.07a9.94,9.94,0,0,0,.46,2.59c.5,1,1.08,1.54,1.74,1.54h.2A3.28,3.28,0,0,0,520,54.67c.21,0,.49-.75.85-2.26a.4.4,0,0,1,.2-.07v-.2H521a12.78,12.78,0,0,0,.54-2.93l.18-.05v-.08c-.12,0-.18,0-.18-.13a1.33,1.33,0,0,1,.18-.79l-.13-.08a32.31,32.31,0,0,0,.34-4.64v-.28a37.79,37.79,0,0,0-.72-7c.08,0,.12,0,.12-.13v-.06a6.16,6.16,0,0,1-.74-2.13c-.7-2-1.54-2.94-2.51-2.94A1.91,1.91,0,0,0,517.1,31.34Zm-3.2,2.13.13.06h.13v-.06c0-.1,0-.15-.13-.15S513.9,33.4,513.9,33.47Zm0,13.89v.13a.57.57,0,0,1,.21.06v-.06a.12.12,0,0,0-.13-.13Zm.26-10.63v.13a.76.76,0,0,1,.21,0v0a.12.12,0,0,0-.13-.13Zm.08,1.38v.21h.2a.46.46,0,0,1-.07-.21Zm.07,13.43v.13h.13v-.13Zm.13-19.27a3.34,3.34,0,0,0,.54.13h0c.09,0,.13-.07.13-.2s-.16-.26-.39-.26S514.54,32.05,514.44,32.27Zm0,3.51v.15h.13v-.15Zm.39-.33v.07a.13.13,0,0,0,.15.13v0A.13.13,0,0,0,514.83,35.45Zm.28-1.92v.07h.13c.06,0,.13-.07.2-.2h-.2C515.15,33.41,515.11,33.45,515.11,33.53Zm.13-2.13a.91.91,0,0,0,.53.28l.19-.34-.26-.2A.44.44,0,0,0,515.24,31.4Zm4.84,24.07h.21v-.21C520.22,55.26,520.16,55.33,520.08,55.47Zm.67-1.06-.06.13a.55.55,0,0,1,.19.06v-.06A.12.12,0,0,0,520.75,54.41Zm.07.65v.07H521v-.07Zm.54-19-.08.13h.21A.12.12,0,0,0,521.36,36.06Zm.13,13.62c0,.07.06.14.18.2v-.06c0-.09,0-.14-.13-.14Zm0,.4v.21h.13a.12.12,0,0,0,.13-.13l-.13-.08Zm.26-2.92v.06h.4v-.06a.32.32,0,0,0-.4,0Zm.33-3.2V44c.09,0,.13,0,.13.08a.48.48,0,0,1,.2-.08V44c-.08,0-.13,0-.13-.06A.49.49,0,0,1,522.08,44Zm.13-1.79v.07h.2v-.07Zm.13-.52a.15.15,0,0,0,.15.13v-.13Zm.15,3.44v.07a.56.56,0,0,1,.26.13c0-.08,0-.13.13-.13-.07-.17-.13-.26-.21-.26S522.55,45,522.49,45.09Zm0-.39a.73.73,0,0,0,.34.13c.13,0,.2-.09.2-.13a.48.48,0,0,1-.08-.2h0C522.68,44.52,522.54,44.59,522.54,44.7Zm0,2.72v.13h.28v-.19h-.07A.57.57,0,0,1,522.54,47.42Zm.28-.26v.06l.39.07.07-.13c0-.06-.07-.13-.2-.2H523C522.94,47,522.88,47,522.82,47.16Zm.06-1.46c0,.06.06.13.2.2s.13,0,.13-.15v0c0-.09,0-.13-.13-.13H523A.12.12,0,0,0,522.88,45.7Zm.07-5.18v.13c0,.09,0,.13.13.13v-.26Z"/><path class="cls-1" d="M541.47,29.81v.07a3.71,3.71,0,0,1-1.12.93v.26c0,.13,0,.2-.08.2l.08.33c0,.2,0,.87.07,2-.27.11-.41.2-.41.28.31.08.47.17.47.26l.46,7.66-.06.14a.55.55,0,0,1,.06.26v.13c0,.09-.06.13-.19.13v.08c.13,0,.19,0,.19.13v.07c0,.31,0,.79.07,1.46l-.13.07a.53.53,0,0,0-.2-.07l-.08.13c.28,0,.41,0,.41.13,0,2.35-.09,3.53-.26,3.53a.43.43,0,0,1-.2.08v.07a.69.69,0,0,1,.33.06q-.55,5.09-1.53,6.4a5.06,5.06,0,0,1-5,3h-.61q-3,0-4-3.46a15.06,15.06,0,0,1-.94-4.73.54.54,0,0,1,.28-.08v-.13q0-.12-.15-.12l-.13.07-.06-.15-.33-7.32a.69.69,0,0,1,.33-.06q0-.15-.33-.15V41c0-.09.06-.13.18-.13v-.2c-.17,0-.25-.05-.25-.13,0-.79,0-2-.13-3.61l.13,0h.25c.07,0,.16.17.28.53H529a3.68,3.68,0,0,0,.67-.15v0a.44.44,0,0,1-.41-.28.46.46,0,0,0,.07-.18l-.12-.08a9.89,9.89,0,0,0-1,.08v-.28a.53.53,0,0,1,.05-.26,24.75,24.75,0,0,1-.26-3.74c-.32-1.24-.76-1.87-1.33-1.87v-.13a2.11,2.11,0,0,1,1.41-.53c.22,0,1.19.13,2.92.41v0c-.07.21-.37.39-.87.54l-.13.2v.07h.13a4.16,4.16,0,0,0-.33,1.34v.39l-.34.27c.27.1.41.19.41.26q.13,1.11.26,12.93a42.14,42.14,0,0,0,.94,6.86l-.13-.07c-.27,0-.4.1-.4.2v.08a1.26,1.26,0,0,1,.46.18l.07-.26h.13c.61,2.49,1.67,3.74,3.2,3.74.91,0,1.94-.62,3.07-1.87h.26v-.07l-.07-.33a5.15,5.15,0,0,0,1-2.54s.11,0,.33,0q0-.12-.33-.21a36.59,36.59,0,0,0,.27-4.25c.36-.08.54-.17.54-.28l-.28-.26-.13.06a.12.12,0,0,1-.13-.13v-.54c0-.31.06-.46.13-.46l-.07-.13-.19-13.13a3.81,3.81,0,0,0-.66-2.54v-.18h-.15v-.15C540,29.9,541.19,29.81,541.47,29.81Zm-14.18.54c0,.06.06.12.2.2h.13l.2-.15c-.07-.17-.14-.26-.2-.26h-.13C527.43,30.14,527.36,30.21,527.29,30.35Zm.92,2.71h.28c0-.08,0-.12-.13-.12S528.21,33,528.21,33.06Zm.15-1.85v.06h.13v-.06Zm.06-.61v.13h.2a.12.12,0,0,0-.13-.13Zm.12,14.06c0,.09.08.13.15.13l.06-.13Zm.08-10.58v.06c0,.08,0,.13.13.13h.07a.12.12,0,0,0,.13-.13.46.46,0,0,1-.07-.21h-.13A.14.14,0,0,0,528.62,34.08Zm0,2.39v.07a.55.55,0,0,1,.26.06v-.19h-.06A.49.49,0,0,1,528.62,36.47Zm.07-2.87v.07c0,.07.09.13.26.21a.51.51,0,0,1,.21-.08v-.13l-.13-.2A.73.73,0,0,1,528.69,33.6Zm.06,5.33a.49.49,0,0,1-.06.2c.09,0,.13,0,.13.08.18-.08.26-.15.26-.21l-.13-.07Zm-.06,2.94v.07L529,42l.08-.13-.21-.13A.13.13,0,0,0,528.69,41.87Zm0,3.79v.08h.19c0-.07.11-.18.33-.34v-.07H529C529,45.33,528.85,45.44,528.69,45.66Zm0,1.33a.57.57,0,0,1,.06.21h.2a.46.46,0,0,1-.07-.21Zm.13-6.86v.2H529c.09,0,.13,0,.13-.12Zm.13-4v.12h.33c.09,0,.13,0,.13-.12l-.2-.13h-.13C529,36,529,36.06,529,36.14Zm0,10.32v.07h.21a.43.43,0,0,1-.08-.2C529,46.34,529,46.38,529,46.46ZM529,34.6v.15q0,.09.18.18h.07l.08-.26-.15-.07Zm.05,14.8v.13h.13V49.4Zm.13-17.93v.08c0,.06.07.12.2.18s.13,0,.13-.13v-.2Zm.2,3.2h.28c0-.08-.05-.13-.15-.13S529.41,34.6,529.41,34.67Zm0,3.8v.33h.28c.09,0,.13,0,.13-.13v-.13l-.33-.07Zm0,4.73v.13h.13V43.2Zm.13,7v.21h.21Q529.75,50.31,529.54,50.19Zm.15,0a1.15,1.15,0,0,0,.46.21l.08-.13v-.13a.13.13,0,0,0-.15-.15h-.2C529.81,50,529.75,50.06,529.69,50.19Zm.06-.59v.13h.2a.12.12,0,0,0-.13-.13Zm.13-2v.13h.2a.12.12,0,0,0-.13-.13Zm0,5v.13H530V52.6Zm8.21,2.07c0,.09.13.15.39.19s.33-.12.33-.19v-.28h-.46C538.27,54.39,538.19,54.49,538.09,54.67Zm.18.46v.06h.21v-.06Zm.61-23.53v.08c0,.08.06.13.13.13h.13a.45.45,0,0,1,.13-.26h0Zm.06,8.61.2.12h.13a.53.53,0,0,1,.08-.2l-.13-.05h-.13C539,40.09,538.94,40.13,538.94,40.21Zm0,12.59a.13.13,0,0,0,.15.13h0c0-.09,0-.13-.13-.13Zm.33-16.66q.12.27.21.27l.33-.07v-.13c0-.11-.09-.18-.26-.2Zm0,8.6v.13h.28v-.13Zm0,5.66v.07h.15V50.4Zm.08-11.73h.26v-.13h-.13C539.39,38.55,539.35,38.6,539.35,38.67Zm0,13.85c0,.09,0,.13.13.13h.13v-.18h-.06A.48.48,0,0,1,539.35,52.52Zm.13-19.46v.15h.13v-.15Zm0,6.15v0h.13v0Zm0,1.79a.59.59,0,0,1,.2.07l.07-.13v-.07h-.14C539.52,40.88,539.48,40.93,539.48,41Zm.2.61c0,.06.07.12.2.19h.21a.12.12,0,0,0,.13-.13v-.06c0-.11-.1-.18-.28-.2S539.68,41.54,539.68,41.61Zm.2-5.27-.07.13h.2C540,36.38,540,36.34,539.88,36.34Zm.13,3-.13.21a.49.49,0,0,1,.06.2c-.09,0-.13.06-.13.13h.2c.07,0,.13-.07.21-.2v-.13Q540.22,39.45,540,39.33Zm-.07,10.07v.07h.28V49.4Zm0,1a.4.4,0,0,1,.07.2.46.46,0,0,1,.21-.07V50.4Zm.07-1.93v.06h.21v-.06ZM540,50c0,.1.06.15.13.15h.08c0-.1-.05-.15-.13-.15Zm.26.74v.07h.15v-.07Zm.08-3.33v.13h.25V47.4Z"/><path class="cls-1" d="M573.14,29.81v.07a3.74,3.74,0,0,1-1.13.93v.26c0,.13,0,.2-.08.2l.08.33c0,.2,0,.87.07,2-.27.11-.41.2-.41.28.31.08.47.17.47.26l.46,7.66-.06.14a.55.55,0,0,1,.06.26v.13c0,.09-.06.13-.19.13v.08c.13,0,.19,0,.19.13v.07c0,.31,0,.79.07,1.46l-.13.07a.53.53,0,0,0-.2-.07l-.07.13c.27,0,.4,0,.4.13,0,2.35-.08,3.53-.26,3.53a.43.43,0,0,1-.2.08v.07a.69.69,0,0,1,.33.06Q572,53.29,571,54.6a5.06,5.06,0,0,1-5,3h-.61q-3,0-4-3.46a15.06,15.06,0,0,1-.94-4.73.57.57,0,0,1,.28-.08v-.13q0-.12-.15-.12l-.13.07-.06-.15L560,41.67a.72.72,0,0,1,.33-.06q0-.15-.33-.15V41c0-.09.06-.13.19-.13v-.2c-.18,0-.26-.05-.26-.13,0-.79-.05-2-.13-3.61l.13,0h.26c.06,0,.15.17.27.53h.13a3.68,3.68,0,0,0,.67-.15v0a.45.45,0,0,1-.41-.28.56.56,0,0,0,.08-.18l-.13-.08a9.89,9.89,0,0,0-1,.08v-.28a.67.67,0,0,1,0-.26,24.75,24.75,0,0,1-.26-3.74c-.32-1.24-.76-1.87-1.33-1.87v-.13a2.11,2.11,0,0,1,1.41-.53c.22,0,1.19.13,2.92.41v0q-.11.32-.87.54l-.13.2v.07h.13a4.16,4.16,0,0,0-.33,1.34v.39l-.33.27c.27.1.4.19.4.26q.13,1.11.26,12.93a43.32,43.32,0,0,0,.94,6.86l-.12-.07c-.28,0-.41.1-.41.2v.08a1.26,1.26,0,0,1,.46.18l.07-.26h.13q.91,3.73,3.2,3.74c.92,0,1.94-.62,3.07-1.87h.26v-.07l-.07-.33a5.06,5.06,0,0,0,1-2.54s.11,0,.33,0q0-.12-.33-.21a36.73,36.73,0,0,0,.28-4.25c.35-.08.53-.17.53-.28l-.27-.26-.13.06a.12.12,0,0,1-.13-.13v-.54c0-.31.05-.46.13-.46l-.08-.13-.18-13.13a3.81,3.81,0,0,0-.67-2.54v-.18h-.15v-.15C571.67,29.9,572.85,29.81,573.14,29.81ZM559,30.35c0,.06.07.12.2.2h.13l.2-.15c-.07-.17-.14-.26-.2-.26h-.13C559.09,30.14,559,30.21,559,30.35Zm.92,2.71h.28c0-.08,0-.12-.13-.12S559.87,33,559.87,33.06Zm.15-1.85v.06h.13v-.06Zm.06-.61v.13h.2a.12.12,0,0,0-.13-.13Zm.13,14.06c0,.09.07.13.14.13l.06-.13Zm.07-10.58v.06a.13.13,0,0,0,.13.13h.07a.12.12,0,0,0,.13-.13.46.46,0,0,1-.07-.21h-.13A.14.14,0,0,0,560.28,34.08Zm0,2.39v.07a.55.55,0,0,1,.26.06v-.19h-.06A.49.49,0,0,1,560.28,36.47Zm.07-2.87v.07c0,.07.09.13.26.21a.51.51,0,0,1,.21-.08v-.13l-.13-.2A.73.73,0,0,1,560.35,33.6Zm.06,5.33a.49.49,0,0,1-.06.2c.09,0,.13,0,.13.08.18-.08.26-.15.26-.21l-.13-.07Zm-.06,2.94v.07l.26.06.08-.13-.21-.13A.13.13,0,0,0,560.35,41.87Zm0,3.79v.08h.19c0-.07.11-.18.33-.34v-.07h-.18C560.62,45.33,560.51,45.44,560.35,45.66Zm0,1.33a.57.57,0,0,1,.06.21h.2a.46.46,0,0,1-.07-.21Zm.13-6.86v.2h.13c.09,0,.13,0,.13-.12Zm.13-4v.12H561c.08,0,.13,0,.13-.12l-.21-.13h-.13C560.66,36,560.61,36.06,560.61,36.14Zm0,10.32v.07h.21a.43.43,0,0,1-.08-.2C560.66,46.34,560.61,46.38,560.61,46.46Zm.08-11.86v.15q0,.09.18.18H561l.07-.26-.15-.07Zm0,14.8v.13h.13V49.4Zm.13-17.93v.08q0,.09.21.18a.12.12,0,0,0,.13-.13v-.2Zm.21,3.2h.27a.12.12,0,0,0-.14-.13C561.12,34.56,561.08,34.6,561.08,34.67Zm0,3.8v.33h.27c.09,0,.13,0,.13-.13v-.13l-.33-.07Zm0,4.73v.13h.13V43.2Zm.13,7v.21h.2C561.41,50.34,561.34,50.27,561.21,50.19Zm.14,0a1.17,1.17,0,0,0,.47.21l.07-.13v-.13a.13.13,0,0,0-.15-.15h-.2C561.48,50,561.41,50.06,561.35,50.19Zm.06-.59v.13h.2a.12.12,0,0,0-.13-.13Zm.13-2v.13h.2a.12.12,0,0,0-.13-.13Zm0,5v.13h.15V52.6Zm8.21,2.07c0,.09.13.15.39.19s.33-.12.33-.19v-.28H570C569.94,54.39,569.85,54.49,569.75,54.67Zm.19.46v.06h.2v-.06Zm.61-23.53v.08c0,.08.05.13.13.13h.13a.43.43,0,0,1,.12-.26h0Zm.05,8.61.21.12h.12a.53.53,0,0,1,.08-.2l-.13-.05h-.13C570.65,40.09,570.6,40.13,570.6,40.21Zm0,12.59a.13.13,0,0,0,.15.13h.06a.12.12,0,0,0-.13-.13Zm.33-16.66q.12.27.21.27l.33-.07v-.13c0-.11-.09-.18-.26-.2Zm0,8.6v.13h.28v-.13Zm0,5.66v.07h.15V50.4ZM571,38.67h.26v-.13h-.13C571.05,38.55,571,38.6,571,38.67Zm0,13.85c0,.09,0,.13.13.13h.13v-.18h-.06A.45.45,0,0,1,571,52.52Zm.13-19.46v.15h.13v-.15Zm0,6.15v0h.13v0Zm0,1.79a.59.59,0,0,1,.2.07l.08-.13v-.07h-.15C571.18,40.88,571.14,40.93,571.14,41Zm.2.61c0,.06.07.12.2.19h.21a.12.12,0,0,0,.13-.13v-.06c0-.11-.09-.18-.28-.2S571.34,41.54,571.34,41.61Zm.2-5.27-.07.13h.2C571.67,36.38,571.63,36.34,571.54,36.34Zm.13,3-.13.21a.49.49,0,0,1,.06.2c-.09,0-.13.06-.13.13h.2c.07,0,.13-.07.21-.2v-.13Q571.88,39.45,571.67,39.33ZM571.6,49.4v.07h.28V49.4Zm0,1a.4.4,0,0,1,.07.2.46.46,0,0,1,.21-.07V50.4Zm.07-1.93v.06h.21v-.06Zm0,1.52c0,.1.06.15.13.15h.08c0-.1,0-.15-.13-.15Zm.26.74v.07h.15v-.07ZM572,47.4v.13h.26V47.4Z"/><path class="cls-1" d="M579.17,29.81c0,.27.12.41.34.41l.26.05v-.05a.81.81,0,0,1-.13-.41h.07a9,9,0,0,1,6.38,2.26l-.2.27.33-.07h.06a3.94,3.94,0,0,1,1.07,2,15.57,15.57,0,0,1,.54,3.51c-.22.06-.34.13-.34.21v.07c.26.11.39.55.39,1.31v.74c0,1.73-.06,2.59-.2,2.59a.46.46,0,0,0,.07.21,8,8,0,0,1-1.33,4A6.19,6.19,0,0,1,583.1,49V49c0-.08-.05-.12-.13-.12h-.28V49l.13-.07c.1,0,.15.06.15.13a2.21,2.21,0,0,0-.67.28,12,12,0,0,1-1.33.26l-.33-.06c0,.1-.12.21-.34.33,0,.44,0,.66-.07.67s0,0,.07,0l-.07.8v1.13a.69.69,0,0,1-.06.33l.06.28c0,1.06-.06,1.9-.06,2.51a10.22,10.22,0,0,0,1.8,1.08l.18.26c0,.34-.6.56-1.79.66-1.73-.07-2.59-.23-2.59-.46s.36-.55,1.07-.59a4,4,0,0,0,.26-1.15h.13V55c-.12,0-.19,0-.19-.13,0-1-.07-1.65-.07-2.07.09,0,.13,0,.13-.13a.71.71,0,0,1-.2-.39q-.6-13.55-.6-18.75v-.39h.47c.13,0,.2-.09.2-.28a.42.42,0,0,1-.07-.18h-.26l-.34,0V31.6c.28,0,.41-.06.41-.2v-.2a1.94,1.94,0,0,1-.94-.47l-.33-.05s0,.05-.06.05a2.48,2.48,0,0,1-.2-.59C577.18,30,577.84,29.9,579.17,29.81Zm-.74,3.59v.13h.13V33.4Zm0,1.13v.13h.13v-.13Zm.28,4.19v.13h.19a.12.12,0,0,0-.13-.13Zm.06-4.19c0,.08.05.13.13.13H579v-.13Zm0,5.71v.08h.13v-.08Zm.07,3v.13h.2v-.13Zm.06-5.51a.15.15,0,0,0,.14.13h.06v-.13ZM579,43.5v.07c0,.09.06.13.13.13h.34a.12.12,0,0,0,.13-.13V43.5q0-.09-.21-.21Q579,43.35,579,43.5Zm.06,2.25a.43.43,0,0,1,.2.08l.08-.13v-.13h-.08C579.24,45.57,579.17,45.63,579.1,45.75Zm.07-14.94c.07.17.13.26.21.26h.18q.12,0,.21-.21v-.05s-.07-.11-.21-.21Zm0,10V41h.26a.76.76,0,0,1,0-.21Zm.06-6.23v.13h.07c.09,0,.13,0,.13-.13Zm0,1.79v.13h.07c.09,0,.13,0,.13-.13Zm2.87-5.71c0,.12-.63.28-1.87.46,0,.06-.17.13-.52.2v.52l-.28.28v.06a.49.49,0,0,1,.28.14l-.07.13v1.19c0,.05,0,.07-.08.07l.08.13V36l-.08.13c.1,0,.15.06.15.14v2.32c-.22,0-.33.05-.33.14s0,.13.13.13,0-.13.13-.13a5.67,5.67,0,0,1,.13,1.52v1.13h-.21v.13c.19,0,.28.16.28.48,0,1.09.07,2.72.2,4.9-.09,0-.14.08-.14.15v.13a.74.74,0,0,1,.2.46v.13L580,48c.09,0,.17.17.26.53.09,0,.13,0,.13.06l-.13.28.2.12h.21l.2-.12a.59.59,0,0,1-.07-.34l.33-.07c0,.13,0,.2.13.2h.07c.09,0,.13-.08.13-.26A7.36,7.36,0,0,0,585.09,47a5.52,5.52,0,0,0,1.13-3.74h.06a3.42,3.42,0,0,0,.61.21c0-.08-.22-.25-.67-.54q-.36-9.1-1.13-9.82c-.63-1.47-1.56-2.2-2.79-2.2h-.07C582.23,30.76,582.18,30.68,582.1,30.68Zm-2.72,2.38c0,.09,0,.13.13.13h0a.12.12,0,0,0-.13-.13Zm0,16.43v.19l.13.07h0a.56.56,0,0,1-.13-.26Zm0,2.79,0,.13v.06h0c.09,0,.13,0,.13-.13Zm.34.13-.06.13.13.08.06-.15Zm.13-21.86v.05H580v-.05ZM580,30c0,.09.06.13.13.13h.13V30Zm5.25,3.05v.13h.13A.12.12,0,0,0,585.22,33.06Zm.13.41.08.13a.42.42,0,0,1,.18-.07v-.06Zm.67,13.1v.13h.2c0-.09,0-.13-.13-.13Zm.53-.87v.13h.26V45.7Zm.06-7.31c0,.09.06.13.13.13h.07a.12.12,0,0,0-.13-.13Zm.61,3.52v.2l.26.06.07-.13v-.13Zm.33-1.54c0,.1.06.15.13.15h.06a.13.13,0,0,0,.15-.15l-.15,0A.76.76,0,0,1,587.55,40.37Z"/><path class="cls-1" d="M176.1,8.69a1.26,1.26,0,0,1,1.44,1.41q.12,4.19.24,5.52a9.16,9.16,0,0,0-.12,1.56v1.16q0,.24-.39.24v.27l.39.51q-.51,11.33-1.17,16.58l.12.24q0,1.05-.51,1v.12q0,.27.39.27l-.12.62q0,.15.12.15l-.12.51c-.08,2.17-.12,3.76-.12,4.75a1.5,1.5,0,0,1-.66.12v.15q.51.06.51.36v4.51l-.39.51v.15q.39,0,.39.36,0,8,1.05,8A1.47,1.47,0,0,1,178.67,59v.12a.93.93,0,0,1-.39.12c-2.67.18-4.29.27-4.87.27-2-.18-3.08-.4-3.08-.66l1.8-1.52q.69-17,.89-17l-.12-.24q.24-4.16.24-6.19a.8.8,0,0,0,.15-.39h.63q.27,0,.27-.24V33l-.9-.51v-.39q0-.27.24-.27l.66.15v-.15q0-.21-.78-.9v-.77c0-.6,0-1.54.12-2.81-3.28.26-5.17.39-5.65.39v-.27a11.23,11.23,0,0,1,5.41-1.29.93.93,0,0,0,.39.12v-.12l-.15-.51q.63-16.19,1.05-16.19A2.13,2.13,0,0,1,176.1,8.69ZM173,48.28v.24h.39q0-.24-.27-.24Zm.27-1.94q0,.27.24.27h.15v-.27Zm0,4.9v.24a.21.21,0,0,0,.24-.24Zm.51-16-.12.26v.12l.63.15.12-.27v-.11Zm-.12,2.06v.27H174v-.27Zm0,3v.27q.24,0,.24-.27Zm.12,3.46V44h.12a.24.24,0,0,0,.27-.27Zm.39-13.23v.26h.39c0-.18-.09-.26-.27-.26Zm.12,7.85a.92.92,0,0,1-.12.36h.39v-.12Q174.58,38.39,174.31,38.39Zm-.12,14v.39h.39v-.12a.24.24,0,0,0-.27-.27Zm.12-4.1a.24.24,0,0,0,.27.24l.24-.39-.24-.11C174.4,48.06,174.31,48.15,174.31,48.28Zm.12-15.8v.12h.27v-.12Zm0,10.78.27.12h.12q.27,0,.27-.24l-.27-.14h-.12C174.52,43,174.43,43.12,174.43,43.26Zm.15-11.83v.27h.51v-.27Zm.63-4v.27h.38a.24.24,0,0,0-.26-.27Zm.12-9.12c0,.12.12.24.38.36h.54a.21.21,0,0,0,.24-.24v-.27a.21.21,0,0,0-.24-.23h-.15C175.58,18,175.33,18.12,175.33,18.34Zm.14,33-.14.27h.53v-.15A.93.93,0,0,1,175.47,51.36Zm.12-29.94v.12q0,.27.78.51l.24-.39-.36-.51A1.37,1.37,0,0,1,175.59,21.42Zm0,12.07q0,.27.27.27h.39v-.27q-.27,0-.27-.12A.93.93,0,0,1,175.59,33.49Zm.27-10.9v.12h.39v-.39h-.15A.24.24,0,0,0,175.86,22.59Zm0,4.48q0,.21.51.39v-.39Zm.24,1.79q.06.27.27.27l.12-.27Z"/><path class="cls-1" d="M199,8.78q5.82,0,7.29,15.42a.11.11,0,0,0-.12.12,1.4,1.4,0,0,0-.72-.24l-.12.24v.12q0,.18.36.36a1.31,1.31,0,0,1,.6-.24v.12c.16,2.19.24,3.74.24,4.66h-.12a.11.11,0,0,0,.12.12c.08,2,.12,3.49.12,4.42v.24c0,.68,0,1.75-.12,3.23a.88.88,0,0,1-.48.24v.12q0,.18.48.36a42.8,42.8,0,0,1-3,15q-3.31,6.35-7.77,6.34-5.69,0-9.2-8.13a37.18,37.18,0,0,1-1.8-11.59V36a1.36,1.36,0,0,1,.36-.83l-.24-.36q0-5.45,3.23-15.18,3-7.38,7.29-9.8a10.14,10.14,0,0,1,1.2-.48c0,.16.09.24.23.24Q197,8.78,199,8.78ZM184.89,40.22q0,.24.24.24l.12-.24Zm.48,1.55v.12h.12a.64.64,0,0,0,.72-.48h-.12Q185.37,41.47,185.37,41.77Zm.84-4.18v.24a.21.21,0,0,0,.24-.24Zm.48,11.11c0,.16.09.24.23.24V48.7Zm1.19-9.08v1.67a25,25,0,0,0,.24,4.07.92.92,0,0,1-.36.12c.3.31.62,1.71,1,4.18l-.84.24V50l1.08.71q1.9,7.07,6.33,7.06h.6c2.17,0,4.32-1.52,6.45-4.54,0,.07,0,.11.12.11v-.11a.92.92,0,0,1-.12-.36q.72-.33.72-.48l-.12-.72a1.19,1.19,0,0,1,1.2-1v-.11h-.6V50.5c.56-2.12,1-3.79,1.19-5a.12.12,0,1,0,0-.24,61.51,61.51,0,0,0,.6-8.37c-.08-1.51-.12-2.55-.12-3.11q.48,0,.48-.36c-.48,0-.72-1.35-.72-4.06a83.34,83.34,0,0,0-1.43-10h.36v-.24c-.44,0-.76-.76-1-2.27-1.33-3.75-2.81-5.62-4.42-5.62q-5.11,0-9.33,16.5A61.82,61.82,0,0,0,187.88,39.62Zm.12-18v.24h.12v-.24Zm1.43-2.27a1,1,0,0,1,.48.12l.12-.24v-.12h-.36Q189.43,19.09,189.43,19.3Zm.72.48v.12l.48.12.12-.24-.36-.24Q190.15,19.57,190.15,19.78Zm6.22-8.73q0,.24.24.24h.12v-.24Zm2.75-1.67-.12.24.23.12h.24C199.47,9.62,199.35,9.5,199.12,9.38Zm1.19,1.91v.24h.24v-.24Zm2.63,4.18v.12q0,.24.24.24l.12-.24-.24-.12Zm.12-1.43v.12q0,.24.24.24v-.12A.21.21,0,0,0,203.06,14Zm.48,1-.12.24.48.12.12-.24Zm-.12,2.39.24.12.12-.24v-.12h-.12Q203.42,17.18,203.42,17.39Zm.12.6v.23h.24V18Zm.71,1.31v.24h.24V19.3Zm1,11v.24h.12a.21.21,0,0,0,.24-.24Zm.24,3.82v.36h.24v-.36Zm.48,1.08q0,.24.24.24h.12a.21.21,0,0,0-.24-.24Zm.12-1.68v.24h.36a.21.21,0,0,0-.24-.24Z"/><path class="cls-1" d="M223.8,8.51H224a5.61,5.61,0,0,1,3.59,1.29l-.12.24c0,.1.37.27,1.13.5a10.5,10.5,0,0,1,2.57,7.3c-.1.33-.27.5-.51.5q0,.18.36.39c-.12,1-.33,1.53-.62,1.53l.11.5q-2.48,9.09-3,9.09l.12.24a69.93,69.93,0,0,0-3.32,8.18L221.11,46q-.39,0-.39.27.27,0,.27.24a60.76,60.76,0,0,0-1.91,8.58,14.88,14.88,0,0,1,4.06-.51A8.63,8.63,0,0,1,229,57h.51q2.57,0,5.11-3.47.18,0,.39.39c0,1.87-1.07,3.58-3.2,5.11a7.5,7.5,0,0,1-.78.12q-1,0-5.35-2.66c-1.55-.34-2.41-.51-2.57-.51q-2.23,0-5.85,3.32a.93.93,0,0,0-.39.12C215.62,58.8,215,57.31,215,55q0-5,3.7-13.66h.24l-.12-.24,1.29-3.58a1.43,1.43,0,0,1,.74.27A7.8,7.8,0,0,1,222,37.5l-.63-.63v-.15l.12-.24a1.74,1.74,0,0,0-.78-.12V36c0-.1.3-.31.9-.65q-.21,0-.51-.51L224.94,24l.65.12-.38-.51c.69-2.21,1.12-3.31,1.28-3.31h.24c.36.67.66,1,.9,1a7.76,7.76,0,0,1,1.13-.24,1.27,1.27,0,0,1-.63-1.16h-1.64v-.12l.87-3.44.54.24.11-.24v-.39c-.43,0-.65-.09-.65-.27v-.5a2,2,0,0,1,.27-1q-.81-3.32-2.69-3.32,0-.12-.75-.12h-.27c-2,0-3.46.51-4.33,1.53a17.34,17.34,0,0,0-3.83,4.72c-.46,1.11-.75,1.67-.89,1.67q0-.54-.27-.54h-.24c-.18.05-.27.13-.27.27h.12a1.13,1.13,0,0,1,.51-.12v.12l-.12.27h.27v.12a45,45,0,0,1-2.18,6.4q0-.39-1.41-.9.36-3.8,4.1-9.83Q220,8.52,223.8,8.51ZM211.55,24.59q0,.3,1.26.66v.12c-.42,1.27-.76,1.91-1,1.91h-.12a5,5,0,0,1-.39-1.79v-.63Q211.31,24.59,211.55,24.59Zm2.66-6.13v.15h.27v-.15Zm1.17,34.61v.26h.23v-.26ZM217,12.73v.38h.51V13q0-.27-.24-.27Zm.39,32.3v.12l.12.27a1.08,1.08,0,0,1,.39-.12V45Zm.89,3.19q0,.27.27.27v-.27Zm.78-6.63v.12h.24v-.12ZM220,44v.39h.5V44Zm.12,1.53v.26h.62v-.26Zm.62-5-.12.23v.27l.63-.15C221.23,40.81,221.06,40.69,220.72,40.58Zm.12,2.42v.23a.8.8,0,0,1,.39.15l.15-.26-.27-.12Zm1-3.2v.39q0,.24.24.24h.39l.12-.51-.24-.12Zm.24-3.2v.27h.27V36.6Zm.51-1.91V35h.26v-.27Zm.77-5.5q0,.27.24.27h.15v-.27Zm.24,7.53V37H224q0-.27-.24-.27Zm.27-1.91q0,.27.27.27h.12v-.27Zm.27-6.25v.12l.12.27a.8.8,0,0,1,.39-.15v-.24Zm0,26.69h.24V55A.27.27,0,0,0,224.19,55.25Zm.9-30.78v.12q0,.27.24.27h.26v-.12a.24.24,0,0,0-.26-.27Zm0,7.14v.15q0,.24.24.24v-.12Q225.33,31.61,225.09,31.61Zm.74-22.32v.24h.27Q226.1,9.29,225.83,9.29Zm0,15.84v.24H226v-.24Zm.9,2.42v.39H227q.24,0,.24-.27v-.12Zm.12-7.92h.51v-.27h-.24Q226.85,19.42,226.85,19.63Zm0,9.44v.27h.66v-.27Zm.51-10.22q.06.27.27.27h.62v-.27c0-.12-.12-.25-.35-.39Q227.36,18.67,227.36,18.85Zm.15,5.23-.15.27v.24l.65-.12C228,24.35,227.85,24.22,227.51,24.08Zm.12,2.45v.12a.24.24,0,0,0,.27.24.21.21,0,0,0,.23-.24l-.23-.12Zm.38-13.3a1.43,1.43,0,0,0,.75.27.24.24,0,0,0,.27-.27v-.12l-.12-.26C228.31,13,228,13.08,228,13.23Zm.24,2.57V16h.39V15.8Zm.39,7.53v.39a.24.24,0,0,0,.27.24h.39v-.51a1.19,1.19,0,0,0-.54-.12Zm.66-5.11q0,.24.24.24h.12v-.24Zm.12-5.88v.12h.24v-.12Z"/><path class="cls-1" d="M31.83,212.91a9.76,9.76,0,0,1,3.53,1.49,7.72,7.72,0,0,1,2.44,2.82,9.57,9.57,0,0,1,.94,4.46,11.09,11.09,0,0,1-.94,4.43A11.39,11.39,0,0,1,35.06,230a14.34,14.34,0,0,1-4.34,2.74,15,15,0,0,1-5.8,1.05,17.2,17.2,0,0,1-5.85-.82,9.48,9.48,0,0,1-3.36-2,5.53,5.53,0,0,1-1.51-2.33,7.57,7.57,0,0,1-.35-2,5.49,5.49,0,0,1,.7-2.8,7.46,7.46,0,0,1,1.83-2.13,12.51,12.51,0,0,1,2.51-1.54,15.36,15.36,0,0,1,2.71-1v-.12a14.24,14.24,0,0,1-2.65-.29,10,10,0,0,1-2.77-1A6.52,6.52,0,0,1,14,215.85a5.07,5.07,0,0,1-.87-3A6.73,6.73,0,0,1,14,210a9.1,9.1,0,0,1,1.6-2.13,12.19,12.19,0,0,1,2.88-2.1c-.35-.27-.73-.59-1.16-1a8.64,8.64,0,0,1-1.2-1.28,7,7,0,0,1-.93-1.69,6.16,6.16,0,0,1-.38-2.25,7.59,7.59,0,0,1,.79-3.41,8.3,8.3,0,0,1,2.24-2.79,11,11,0,0,1,3.59-1.9,15.29,15.29,0,0,1,4.75-.7,11.21,11.21,0,0,1,4.51.82,14.43,14.43,0,0,1,3.24,1.86,15.47,15.47,0,0,1,2.62-2,6.27,6.27,0,0,1,3.09-.67,3.43,3.43,0,0,1,2.54.85,3,3,0,0,1,.84,2.18,2.42,2.42,0,0,1-.7,1.84,2.56,2.56,0,0,1-1.86.67,3.14,3.14,0,0,1-1.31-.23,2,2,0,0,1-.76-.56,1.6,1.6,0,0,1-.35-.7l-.15-.61a10,10,0,0,0-.23-1.22c-.08-.27-.33-.41-.76-.41a1.76,1.76,0,0,0-.81.26c-.32.18-.86.54-1.64,1.08a16.27,16.27,0,0,1,1.52,2,6.75,6.75,0,0,1,.81,3.64,7.92,7.92,0,0,1-.55,2.89,7,7,0,0,1-1.81,2.59,9.46,9.46,0,0,1-3.23,1.9,14.44,14.44,0,0,1-4.9.72,16.61,16.61,0,0,1-4.13-.46,23.24,23.24,0,0,1-3-.94,5.09,5.09,0,0,0-2,1.9,4.23,4.23,0,0,0-.29,1.43,2.32,2.32,0,0,0,1.17,2.15,6,6,0,0,0,3.14.7H27.6A20,20,0,0,1,31.83,212.91ZM19.39,228a6.17,6.17,0,0,0,1.1,2.3,6.31,6.31,0,0,0,2.22,1.78,8.17,8.17,0,0,0,3.61.7,8.84,8.84,0,0,0,3.21-.59,8.24,8.24,0,0,0,2.65-1.63A8.16,8.16,0,0,0,34,228a7.35,7.35,0,0,0,.69-3.2,5.93,5.93,0,0,0-.58-2.83,5,5,0,0,0-3.38-2.59,8.62,8.62,0,0,0-1.92-.23H22.77A13.27,13.27,0,0,0,20.06,222a6.51,6.51,0,0,0-1,3.73A9.62,9.62,0,0,0,19.39,228Zm8.33-21.36a2.88,2.88,0,0,0,1.4-1.05,6,6,0,0,0,.9-2.28,18.52,18.52,0,0,0,.32-3.87c0-1.13,0-2.17-.11-3.12a7.72,7.72,0,0,0-.59-2.48,3.67,3.67,0,0,0-1.34-1.63,4.36,4.36,0,0,0-2.44-.58,4.24,4.24,0,0,0-2.39.61,4,4,0,0,0-1.43,1.6,7.08,7.08,0,0,0-.67,2.28,18.79,18.79,0,0,0-.18,2.62,21.94,21.94,0,0,0,.35,4.37,7,7,0,0,0,1,2.48A2.74,2.74,0,0,0,24,206.65a7.43,7.43,0,0,0,1.87.23A6.19,6.19,0,0,0,27.72,206.62Z"/><path class="cls-1" d="M63.53,191.87a14.76,14.76,0,0,1,4.52,2.89,13,13,0,0,1,3,4.22,12.35,12.35,0,0,1,1.08,5.1,12.49,12.49,0,0,1-1.08,5.16,13,13,0,0,1-3,4.22,14.32,14.32,0,0,1-4.52,2.86,15.57,15.57,0,0,1-11.24,0,14.32,14.32,0,0,1-4.52-2.86,13,13,0,0,1-3-4.22,12.49,12.49,0,0,1-1.08-5.16,12.35,12.35,0,0,1,1.08-5.1,13,13,0,0,1,3-4.22,14.76,14.76,0,0,1,4.52-2.89,15.16,15.16,0,0,1,11.24,0Zm-2.06,23.66a6.4,6.4,0,0,0,1.89-2.82,15.2,15.2,0,0,0,.76-4c.09-1.51.14-3.05.14-4.6s-.05-3.08-.14-4.57a15.12,15.12,0,0,0-.76-4,6.4,6.4,0,0,0-1.89-2.82,5.37,5.37,0,0,0-3.56-1.08,5.34,5.34,0,0,0-3.55,1.08,6.34,6.34,0,0,0-1.9,2.82,15.12,15.12,0,0,0-.76,4c-.09,1.49-.14,3-.14,4.57s0,3.09.14,4.6a15.2,15.2,0,0,0,.76,4,6.34,6.34,0,0,0,1.9,2.82,5.34,5.34,0,0,0,3.55,1.08A5.37,5.37,0,0,0,61.47,215.53Z"/><path class="cls-1" d="M95.42,191.87a14.83,14.83,0,0,1,4.51,2.89,13,13,0,0,1,3,4.22,12.35,12.35,0,0,1,1.08,5.1,12.49,12.49,0,0,1-1.08,5.16,13,13,0,0,1-3,4.22,14.39,14.39,0,0,1-4.51,2.86,15.59,15.59,0,0,1-11.25,0,14.32,14.32,0,0,1-4.52-2.86,13,13,0,0,1-3-4.22,12.49,12.49,0,0,1-1.08-5.16,12.35,12.35,0,0,1,1.08-5.1,13,13,0,0,1,3-4.22,14.76,14.76,0,0,1,4.52-2.89,15.19,15.19,0,0,1,11.25,0Zm-2.07,23.66a6.4,6.4,0,0,0,1.89-2.82,15.2,15.2,0,0,0,.76-4c.09-1.51.14-3.05.14-4.6s0-3.08-.14-4.57a15.12,15.12,0,0,0-.76-4,6.4,6.4,0,0,0-1.89-2.82,6.39,6.39,0,0,0-7.11,0,6.34,6.34,0,0,0-1.9,2.82,15.12,15.12,0,0,0-.76,4c-.09,1.49-.14,3-.14,4.57s0,3.09.14,4.6a15.2,15.2,0,0,0,.76,4,6.34,6.34,0,0,0,1.9,2.82,6.39,6.39,0,0,0,7.11,0Z"/><path class="cls-1" d="M138.17,215.79v.82H127.32V212.3h-.11a8.53,8.53,0,0,1-2.6,3.76,6.7,6.7,0,0,1-4.28,1.31,12,12,0,0,1-5.19-1.11,12.77,12.77,0,0,1-4-2.94,13.53,13.53,0,0,1-2.59-4.23,13.68,13.68,0,0,1-.94-5,14.85,14.85,0,0,1,.73-4.37,13.66,13.66,0,0,1,2.28-4.31,12.72,12.72,0,0,1,3.93-3.3,11.88,11.88,0,0,1,5.77-1.31,6.85,6.85,0,0,1,4.25,1.23,7.59,7.59,0,0,1,2.51,3.67h.12V175.41h-4v-.82h11.08v41.2ZM127,200a17,17,0,0,0-.84-4.08,7.73,7.73,0,0,0-1.92-3.09,4.82,4.82,0,0,0-3.44-1.22,4.11,4.11,0,0,0-4.14,2.74,13.14,13.14,0,0,0-.9,3.87,54.78,54.78,0,0,0-.27,5.92q0,2.85.15,5.16a17.71,17.71,0,0,0,.64,3.93,5.48,5.48,0,0,0,1.46,2.51,3.71,3.71,0,0,0,2.59.87,5.49,5.49,0,0,0,3.82-1.25,8,8,0,0,0,2.07-3.15,14.79,14.79,0,0,0,.84-4.08q.15-2.19.15-4T127,200Z"/><path class="cls-1" d="M145.51,191.61q0-1.92.06-4a28.42,28.42,0,0,1,.37-4,17.94,17.94,0,0,1,1-3.64,9.22,9.22,0,0,1,2-3,8.9,8.9,0,0,1,3.26-2.07,13.67,13.67,0,0,1,4.9-.76,11,11,0,0,1,2.62.32,8.23,8.23,0,0,1,2.33,1,5.24,5.24,0,0,1,1.69,1.75,5,5,0,0,1,.64,2.59,3,3,0,0,1-1,2.28,3.3,3.3,0,0,1-2.33.93q-3.09,0-3.09-3a3.51,3.51,0,0,1,.09-.61c.06-.29.11-.61.17-.94s.11-.63.15-.9a4.65,4.65,0,0,0,.06-.58,1.73,1.73,0,0,0-.76-1.55,3.14,3.14,0,0,0-1.75-.49,2.78,2.78,0,0,0-1.92.61,3.27,3.27,0,0,0-1,1.66,10.06,10.06,0,0,0-.35,2.42q-.06,1.37-.06,2.88v9h4.84v.81h-4.84v23.37h4.49v.82H141.66v-.82h3.85V192.42h-3.85v-.81Z"/><path class="cls-1" d="M181.26,191.87a14.76,14.76,0,0,1,4.52,2.89,13,13,0,0,1,3,4.22,12.35,12.35,0,0,1,1.08,5.1,12.49,12.49,0,0,1-1.08,5.16,13,13,0,0,1-3,4.22,14.32,14.32,0,0,1-4.52,2.86,15.59,15.59,0,0,1-11.25,0,14.39,14.39,0,0,1-4.51-2.86,12.86,12.86,0,0,1-3-4.22,12.49,12.49,0,0,1-1.08-5.16,12.35,12.35,0,0,1,1.08-5.1,12.86,12.86,0,0,1,3-4.22,14.83,14.83,0,0,1,4.51-2.89,15.19,15.19,0,0,1,11.25,0Zm-2.07,23.66a6.34,6.34,0,0,0,1.9-2.82,15.2,15.2,0,0,0,.76-4c.09-1.51.14-3.05.14-4.6s-.05-3.08-.14-4.57a15.12,15.12,0,0,0-.76-4,6.34,6.34,0,0,0-1.9-2.82,6.39,6.39,0,0,0-7.11,0,6.4,6.4,0,0,0-1.89,2.82,15.12,15.12,0,0,0-.76,4c-.1,1.49-.14,3-.14,4.57s0,3.09.14,4.6a15.2,15.2,0,0,0,.76,4,6.4,6.4,0,0,0,1.89,2.82,6.39,6.39,0,0,0,7.11,0Z"/><path class="cls-1" d="M213.09,191.87a14.83,14.83,0,0,1,4.51,2.89,13,13,0,0,1,3,4.22,12.35,12.35,0,0,1,1.08,5.1,12.49,12.49,0,0,1-1.08,5.16,13,13,0,0,1-3,4.22,14.39,14.39,0,0,1-4.51,2.86,15.59,15.59,0,0,1-11.25,0,14.32,14.32,0,0,1-4.52-2.86,13,13,0,0,1-3-4.22,12.49,12.49,0,0,1-1.08-5.16,12.35,12.35,0,0,1,1.08-5.1,13,13,0,0,1,3-4.22,14.76,14.76,0,0,1,4.52-2.89,15.19,15.19,0,0,1,11.25,0ZM211,215.53a6.4,6.4,0,0,0,1.89-2.82,15.2,15.2,0,0,0,.76-4c.09-1.51.14-3.05.14-4.6s-.05-3.08-.14-4.57a15.12,15.12,0,0,0-.76-4,6.4,6.4,0,0,0-1.89-2.82,6.39,6.39,0,0,0-7.11,0,6.34,6.34,0,0,0-1.9,2.82,15.12,15.12,0,0,0-.76,4c-.09,1.49-.14,3-.14,4.57s0,3.09.14,4.6a15.2,15.2,0,0,0,.76,4,6.34,6.34,0,0,0,1.9,2.82,6.39,6.39,0,0,0,7.11,0Z"/><path class="cls-1" d="M255.89,215.79v.82H245.05V212.3h-.11a8.61,8.61,0,0,1-2.6,3.76,6.7,6.7,0,0,1-4.28,1.31,12,12,0,0,1-5.19-1.11,12.77,12.77,0,0,1-4-2.94,13.89,13.89,0,0,1-3.53-9.24,14.85,14.85,0,0,1,.73-4.37,13.66,13.66,0,0,1,2.28-4.31,12.6,12.6,0,0,1,3.93-3.3,11.88,11.88,0,0,1,5.77-1.31,6.85,6.85,0,0,1,4.25,1.23,7.59,7.59,0,0,1,2.51,3.67h.12V175.41h-4v-.82h11.08v41.2ZM244.73,200a17.55,17.55,0,0,0-.84-4.08,7.64,7.64,0,0,0-1.93-3.09,4.78,4.78,0,0,0-3.43-1.22,4.11,4.11,0,0,0-4.14,2.74,13.43,13.43,0,0,0-.91,3.87,57.81,57.81,0,0,0-.26,5.92q0,2.85.15,5.16a17.14,17.14,0,0,0,.64,3.93,5.4,5.4,0,0,0,1.46,2.51,3.71,3.71,0,0,0,2.59.87,5.49,5.49,0,0,0,3.82-1.25,8,8,0,0,0,2.07-3.15,14.79,14.79,0,0,0,.84-4.08q.15-2.19.15-4T244.73,200Z"/><path class="cls-1" d="M560.12,209.76c-1.2,7.86-11.76,8.85-15.47,8.09s-10-3.16-9.87-6.42,5.94-5.94,8.47-6.29,4.9,2.63,5.46,3.82,3.2,2.25,3.42.24c.18-1.56-.53-3-2-4.72s-5.29-1.69-4.4-2.6l6.34-8.73s9.61,6.11,8,16.61m-6.63-19.95c.9-1.31.48-6.85.48-6.85a19.77,19.77,0,0,0,3.26,2.52c2.65,1.81,4.26-.89,3.59-2s-4.43-4.13-6.45-6.19c-2.19-.25-3.29-.3-3.5.91-.67,3.66-.77,13.24-8.45,22.34-6.84,8.11-15.23,9-25.82,8.51s-13.69-3.44-21-10.64-7-16.28-6.63-20-4.48-1.46-4.48-1.46-6.67,5.74-8.55,7.43.32,3.7,2.12,2.44,2.7-1.14,4.81-3.1c2.59-2.42,2.28.16,2.28.16s-.19,13.07,11.11,21.41c6.66,4.91,17.14,7.71,34,5.82,2.38,6.25,7.08,9.74,14.19,10.17,4.94.29,11.9.06,16.45-5.73,11.1-14.15-7.2-25.89-7.37-25.74"/></g></g></svg>